<svg viewBox="-82.1100000000001 68.85000000000011 1184.2199999999998 895.0499999999998" xmlns="http://www.w3.org/2000/svg" xmlns:xlink="http://www.w3.org/1999/xlink" overflow="visible" width="1096.4999999999998px" height="828.7499999999999px"><rect id="Blush Background Color" fill="#222b54" x="-82.1100000000001" y="68.85000000000011" width="1184.2199999999998" height="895.0499999999998"/><defs><polygon id="masterspot-illustrationui-design-path-1" points="0 0.855728366 369.150131 0.855728366 369.150131 383.471976 0 383.471976"/><polygon id="masterspot-illustrationui-design-path-3" points="0.44031893 0.957161388 516.594 0.957161388 516.594 167.536028 0.44031893 167.536028"/></defs><g id="Master/Spot Illustration/UI Design" stroke="none" stroke-width="1" fill="none" fill-rule="evenodd"><g id="UI" transform="translate(-28.000000, -17.000000) scale(1 1)"><defs><polygon id="uiscreen-1-path-1" points="0 0.855728366 369.150131 0.855728366 369.150131 383.471976 0 383.471976"/><polygon id="uiscreen-1-path-3" points="0.44031893 0.957161388 516.594 0.957161388 516.594 167.536028 0.44031893 167.536028"/></defs><g id="UI/Screen 1" stroke="none" stroke-width="1" fill="none" fill-rule="evenodd"><g id="Group-27" transform="translate(0.000000, 121.000000)"><path d="M141.6414,537.3606 C141.6414,537.3606 132.2194,584.4716 187.0394,582.7586 L332.2294,508.2366 L391.7614,524.0836 L523.1924,582.0916 C706.7874,582.2956 896.2854,582.8036 896.2854,582.8036 C896.2854,582.8036 950.2494,588.2796 957.9584,530.8896 C964.2334,484.1796 997.1744,201.1836 1009.2194,97.4606 L197.8284,97.4606 C183.5294,213.2456 141.6414,537.3606 141.6414,537.3606" id="Fill-1" fill="#CBB1F4"/><path d="M973.3772,1.139 C918.5562,-1.426 273.5542,1.144 273.5542,1.144 C273.5542,1.144 209.3112,-0.57 201.6022,66.243 C200.7952,73.234 199.5002,83.931 197.8282,97.46 L1009.2192,97.46 C1011.9742,73.742 1013.6362,59.391 1013.6362,59.391 C1013.6362,59.391 1028.1982,3.705 973.3772,1.139" id="Fill-3" fill="#8C72CB"/><path d="M196.9978,441.0413 L187.0398,582.7593 C212.3618,581.9673 365.6028,581.9173 523.1918,582.0923 L535.7398,444.8543 C536.1618,440.2413 532.5498,436.2533 527.9178,436.2173 L204.9568,433.680049 C200.7768,433.6473 197.2908,436.8713 196.9978,441.0413" id="Fill-5" fill="#8C72CB"/><path d="M961.2112,154.9749 C961.7742,150.4859 958.4152,146.4569 953.8962,146.2339 C901.7942,143.6559 719.0492,143.8199 551.0832,144.6119 C539.9452,367.7419 346.4202,394.7859 346.4202,394.7859 C534.0702,398.4429 870.1432,405.1209 922.6972,406.166494 C926.6792,406.2449 930.0672,403.3039 930.5632,399.3519 L961.2112,154.9749 Z" id="Fill-7" fill="#AFDCFD"/><path d="M551.0828,144.6116 L551.0828,144.6116 C408.2958,145.2856 276.1898,146.4126 244.1058,146.6956 C239.9868,146.7316 236.6648,150.0436 236.5928,154.1636 L232.569621,385.0076 C232.4978,389.2006 235.8228,392.6606 240.0158,392.7386 C261.5878,393.1386 299.3368,393.8676 346.4208,394.7856 C346.4208,394.7856 539.9458,367.7416 551.0828,144.6116" id="Fill-9" fill="#70A0E6"/><path d="M566.6331,515.6839 L564.8101,534.3749 C564.3391,539.2009 568.1061,543.3889 572.9531,543.4239 C621.9601,543.7869 855.6291,545.4099 899.8371,543.7969 C903.7431,543.6559 907.0011,540.7949 907.6591,536.9429 L910.9151,517.8729 C911.7751,512.8359 907.8941,508.2369 902.7841,508.2369 L574.8431,508.2369 C570.5971,508.2369 567.0461,511.4589 566.6331,515.6839" id="Fill-11" fill="#8C72CB"/><path d="M573.7717,480.1702 C624.8937,481.2062 859.6157,485.8822 905.4167,485.3402 C909.5147,485.2922 912.9417,482.2442 913.4837,478.1822 L916.4877,455.6492 C917.1357,450.7932 913.4337,446.4462 908.5367,446.3132 L579.4487,437.3302 C575.4337,437.2212 571.9237,440.0202 571.1357,443.9582 L565.8667,470.3062 C564.8587,475.3432 568.6357,480.0662 573.7717,480.1702" id="Fill-13" fill="#8C72CB"/><path d="M247.1389,56.1995 C248.0879,68.9175 268.3989,67.0195 269.3479,55.6525 C270.6099,40.5425 245.9729,40.5785 247.1389,56.1995" id="Fill-15" fill="#4D33A2"/><path d="M311.6892,56.1995 C312.6382,68.9175 332.9492,67.0195 333.8982,55.6525 C335.1602,40.5425 310.5232,40.5785 311.6892,56.1995" id="Fill-17" fill="#4D33A2"/><path d="M378.2449,56.1995 C379.1939,68.9175 399.5049,67.0195 400.4539,55.6525 C401.7159,40.5425 377.0789,40.5785 378.2449,56.1995" id="Fill-19" fill="#4D33A2"/><g id="Group-23" transform="translate(0.000000, 131.945000)"><mask id="uiscreen-1-mask-2" fill="#fff"><use xlink:href="#uiscreen-1-path-1"/></mask><g id="Clip-22"/><path d="M175.1536,118.2516 L130.1296,22.4846 C128.5766,19.1826 123.6556,20.0526 123.3296,23.6876 L112.8106,140.9016 C112.6446,142.7466 111.0996,144.1596 109.2476,144.1596 L3.5836,144.1596 C-0.0284,144.1596 -1.3644,148.9026 1.7166,150.7876 L81.1096,199.3656 C82.9836,200.5126 83.3956,203.0576 81.9706,204.7306 C67.8256,221.3526 3.1566,297.4866 5.4456,297.4866 C7.6706,297.4866 89.5156,270.5196 111.4426,263.2806 C113.9376,262.4566 116.4246,264.5186 116.0986,267.1256 L102.0596,379.4396 C101.6146,382.9976 106.0976,384.9246 108.3736,382.1526 L184.0146,290.0356 C185.5276,288.1926 188.3856,288.3186 189.7316,290.2866 L247.7526,375.1436 C249.8376,378.1916 254.6126,376.4656 254.2656,372.7876 L243.0296,253.6876 C242.8536,251.8206 244.1496,250.1346 245.9986,249.8236 L347.6486,232.7586 C351.2016,232.1626 351.7426,227.2796 348.4066,225.9196 L257.3846,188.8106 C254.3436,187.5706 254.4406,183.2316 257.5336,182.1296 L366.7726,143.1646 C370.4366,141.8576 369.6756,136.4676 365.7926,136.2266 L248.5006,128.9406 C246.6746,128.8276 245.2276,127.3536 245.1496,125.5236 L239.9426,4.2826 C239.7806,0.5106 234.6426,-0.4704 233.1026,2.9786 L181.6566,118.1886 C180.4086,120.9826 176.4556,121.0216 175.1536,118.2516" id="Fill-21" fill="#FF71DB" mask="url(#uiscreen-1-mask-2)"/></g><g id="Group-26" transform="translate(560.000000, 205.945000)"><mask id="uiscreen-1-mask-4" fill="#fff"><use xlink:href="#uiscreen-1-path-3"/></mask><g id="Clip-25"/><path d="M0.448,84.2975 C0.07,120.1935 13.448,162.0725 84.043,159.0815 C154.639,156.0905 154.639,121.9885 198.313,151.3045 C229.029,171.9215 278.504,177.9815 320.361,138.7395 C339.506,120.7915 375.646,134.1285 404.119,144.1245 C460.356,163.8675 516.433,125.7635 516.594494,78.3155 C516.8,17.3805 452.579,-8.9435 371.812,17.3805 C344.322,26.3405 329.835,17.0775 313.181,11.9065 C280.906,1.8855 253.792,-11.2515 201.304,23.8715 C201.304,23.8715 174.981,47.8025 125.923,20.8805 C76.864,-6.0415 1.16,16.7265 0.448,84.2975" id="Fill-24" fill="#DDF77D" mask="url(#uiscreen-1-mask-4)"/></g></g></g></g><g transform="translate(198.000000, 174.000000) scale(1 1)" id="Master/Character/Standing"><defs><polygon id="mastercharacterstanding-path-1" points="0.606828676 0.9535 32.904 0.9535 32.904 6.2565 0.606828676 6.2565"/><polygon id="mastercharacterstanding-path-3" points="0 0.0324 255.9499 0.0324 255.9499 196.950829 0 196.950829"/></defs><g id="Master/Character/Standing" stroke="none" stroke-width="1" fill="none" fill-rule="evenodd"><g id="Lower" transform="translate(14.000000, 442.000000) scale(1 1)"><defs><polygon id="lowerwalking-3-path-1" points="0.5999 0.3974 67.3649 0.3974 67.3649 93 0.5999 93"/></defs><g id="Lower/Walking 3" stroke="none" stroke-width="1" fill="none" fill-rule="evenodd"><g id="Group-332" transform="translate(119.000000, -1.000000)"><g id="Group-279" transform="translate(0.000000, 0.142000)"><path d="M384.8029,233.64 C374.9229,236.591 364.7219,240.507 358.4799,243.02 C354.9179,244.454 350.8429,243.245 348.6309,240.106 L343.6619,233.051 L300.2449,258.297 L321.4529,290.8 L397.8259,242.153 C402.2039,239.364 400.4819,232.629 395.3049,232.251 C392.5119,232.047 389.0499,232.371 384.8029,233.64" id="Fill-232" fill="#ef9e89"/><polygon id="Fill-234" fill="#3D6C48" points="413.6808 250.0248 405.5328 237.2438 321.4528 290.7998 330.5288 304.7088"/><path d="M357.154,243.1635 L367.212,261.6525 L394.195,244.4655 L386.623,233.1425 C386.623,233.1425 384.598,230.8235 380.528,231.5925 C376.457,232.3595 362.38,237.8955 362.103,238.0275 C360.567,238.7575 355.489,239.6855 357.154,243.1635" id="Fill-236" fill="#5A593D"/><path d="M363.6056,255.142 C363.6056,255.142 363.1556,246.491 364.8566,245.49 C367.3136,244.043 370.8086,250.034 372.7416,249.483 C374.0576,249.109 373.2216,245.814 372.9126,243.155 C372.6166,240.617 374.3436,240.663 375.5826,241.342 C377.1396,242.197 380.8696,244.811 382.0606,244.26 C384.0206,243.355 383.5276,239.837 383.2476,238.358 C383.0026,237.062 383.9256,235.818 386.3136,236.85 C389.9996,238.444 391.7936,240.875 391.7936,240.875 L394.1946,244.465 L367.1316,261.623 L363.6056,255.142 Z" id="Fill-238" fill="#5A593D"/><path d="M328.0714,270.3041 C327.9024,270.3041 327.7314,270.2741 327.5654,270.2081 C317.9364,266.4321 311.6984,252.2021 311.4384,251.5981 C311.1344,250.8961 311.4574,250.0801 312.1604,249.7781 C312.8614,249.4721 313.6784,249.7961 313.9824,250.4991 C314.0414,250.6361 320.0264,264.2751 328.5774,267.6281 C329.2904,267.9081 329.6414,268.7111 329.3614,269.4241 C329.1464,269.9711 328.6244,270.3041 328.0714,270.3041" id="Fill-240" fill="#000"/><path d="M71.1613,280.2758 C68.3023,270.3688 64.4813,260.1318 62.0263,253.8668 C60.6253,250.2918 61.8713,246.2268 65.0313,244.0458 L72.1323,239.1418 L47.2913,195.4918 L14.5923,216.3978 L62.5283,293.2188 C65.2753,297.6228 72.0263,295.9638 72.4523,290.7908 C72.6823,287.9998 72.3903,284.5338 71.1613,280.2758" id="Fill-242" fill="#ef9e89"/><g id="Group-246" transform="translate(0.000000, 216.000000)"><mask id="lowerwalking-3-mask-2" fill="#fff"><use xlink:href="#lowerwalking-3-path-1"/></mask><g id="Clip-245"/><polygon id="Fill-244" fill="#3D6C48" mask="url(#lowerwalking-3-mask-2)" points="54.5089 93.0004 67.3649 84.9714 14.5919 0.3974 0.5999 9.3444"/></g><path d="M61.8947,252.5394 L43.3127,262.4254 L60.2187,289.6464 L71.6417,282.1004 C71.6417,282.1004 73.9787,280.0974 73.2487,276.0194 C72.5187,271.9414 67.1137,257.8144 66.9847,257.5354 C66.2697,255.9924 65.3877,250.9064 61.8947,252.5394" id="Fill-247" fill="#5A593D"/><path d="M49.4118,259.184 L56.8178,260.006 C58.0948,260.148 58.8318,261.526 58.2408,262.666 L56.9108,265.234 C56.2188,266.569 57.1788,268.163 58.6828,268.178 L62.7848,268.216 C63.7398,268.225 64.3678,269.216 63.9678,270.084 L62.2548,273.793 C61.4198,275.6 62.6378,277.686 64.6208,277.847 L66.7448,278.02 C68.3958,278.155 69.2808,280.027 68.3368,281.388 L64.6278,286.734 L60.2188,289.647 L43.3128,262.425 L49.4118,259.184 Z" id="Fill-249" fill="#5A593D"/><path d="M36.0163,225.1957 C35.8693,225.1957 35.7193,225.1727 35.5713,225.1227 C34.8473,224.8767 34.4583,224.0897 34.7033,223.3657 C39.2033,210.0777 53.5203,206.8027 54.1273,206.6707 C54.8743,206.5087 55.6123,206.9797 55.7753,207.7257 C55.9393,208.4727 55.4683,209.2127 54.7213,209.3777 C54.5873,209.4077 41.3193,212.4727 37.3283,224.2547 C37.1333,224.8317 36.5933,225.1957 36.0163,225.1957" id="Fill-251" fill="#000"/><path d="M349.9875,224.516 L240.2955,55.229 L223.7915,25.973 C223.7915,13.001 213.4175,0.549 200.4455,0.549 L145.0355,0.549 C132.0645,0.549 121.2065,12.346 121.2065,25.318 L118.7105,40.864 L103.8065,137.995 C103.8065,137.995 102.9875,151.103 89.0605,160.115 C78.3015,167.076 53.1205,182.838 42.2205,189.649 C39.4275,191.394 38.7225,195.148 40.6875,197.791 L78.3005,248.407 C80.2055,250.969 83.8555,251.441 86.3485,249.447 L155.0085,194.522 C155.0085,194.522 169.3455,183.462 173.8515,142.501 C175.3245,129.11 177.2325,110.09 178.9975,92.019 L287.9045,261.817 C289.4515,264.299 292.6935,265.102 295.2195,263.627 L347.9305,232.861 C350.8485,231.158 351.7795,227.379 349.9875,224.516" id="Fill-253" fill="#02A0E7"/><path d="M138.693,66.2914 C143.025,64.2504 145.179,60.2784 147.894,56.5774 C149.517,54.3634 150.826,53.1274 153.751,53.8474 C157.135,54.6794 160.438,56.4774 163.645,57.8184 C175.93,62.9564 188.947,68.2594 202.503,68.0344 C208.766,67.9304 214.744,66.4744 220.398,63.8064 C223.372,62.4024 226.627,60.0584 230.047,60.6944 C233.384,61.3164 236.732,63.9834 239.87,65.3504 C242.837,66.6424 245.867,67.7044 248.938,68.5674 L240.296,55.2284 C238.536,54.3074 236.779,53.3794 234.938,52.6124 C227.535,49.5344 221.714,53.2444 215.018,56.1744 C207.565,59.4344 199.263,59.3064 191.439,57.6394 C183.481,55.9424 175.857,52.9514 168.36,49.8524 C162.071,47.2524 154.81,42.6464 147.818,44.9854 C142.282,46.8374 140.429,52.2464 136.871,56.2364 C130.355,63.5444 124.701,50.3464 123.094,45.5534 C122.339,43.2964 120.463,42.1694 118.496,42.2634 L116.678,54.1114 C116.678,54.1104 116.681,54.1094 116.682,54.1084 C120.903,62.7524 128.305,71.1874 138.693,66.2914" id="Fill-255" fill="#E9DE2C"/><path d="M204.9948,93.7055 C212.8218,94.0465 211.4838,102.7325 216.1698,107.1015 C221.0478,111.6485 228.5888,110.4905 233.8468,107.2885 C237.2898,105.1915 239.9418,101.9455 243.4588,99.9765 C247.6318,97.6415 252.2398,97.9015 256.8028,98.7245 C261.0858,99.4965 265.6368,100.6095 270.1558,101.3115 L263.3328,90.7825 C259.4798,89.8495 255.6208,88.9705 251.6128,88.8855 C244.1358,88.7265 238.6588,91.7575 233.0388,96.3335 C230.7218,98.2215 227.6798,101.1835 224.3818,100.9055 C221.1798,100.6365 221.0248,97.2015 220.0728,94.7155 C215.6768,83.2315 201.8458,82.2165 192.4628,88.2205 C188.6458,90.6625 185.7018,94.2655 182.4028,97.3285 L187.3278,105.0065 C192.3228,100.2975 197.4798,93.3795 204.9948,93.7055" id="Fill-257" fill="#E9DE2C"/><path d="M172.9318,96.4418 C171.7518,92.4708 170.5728,88.5008 169.3928,84.5298 C168.8408,82.6668 166.9768,81.0288 164.9388,81.1378 C161.7248,81.3118 159.2888,82.4888 156.8058,84.4918 C155.4948,85.5488 154.2498,87.1298 152.5918,87.6048 C150.5618,88.1858 148.1038,87.1298 146.0698,86.6868 C138.1068,84.9528 129.8658,84.3228 121.7368,84.9058 C118.3808,85.1468 115.0498,85.5838 111.7558,86.1918 L110.2688,95.8808 C114.9938,94.8028 119.8318,94.1588 124.7318,93.9828 C132.5788,93.7028 139.7978,94.9588 147.4278,96.4988 C151.0808,97.2358 154.6148,97.2918 157.9148,95.3448 C159.1468,94.6188 160.5158,93.0618 161.9398,91.8808 C162.7998,94.7888 163.6578,97.6958 164.5288,100.5988 C165.4968,103.8268 166.3838,107.0228 169.1578,109.1708 C171.6578,111.1068 174.4218,111.4748 177.1288,110.9288 C177.4678,107.5398 177.8088,104.1048 178.1488,100.6648 C178.0938,100.6978 178.0408,100.7358 177.9858,100.7688 C173.8568,103.2748 174.0058,100.0588 172.9318,96.4418" id="Fill-259" fill="#E9DE2C"/><path d="M231.047,156.4906 C237.147,155.1916 243.266,153.9876 249.402,152.8766 C265.884,149.8906 282.481,147.6426 299.147,146.0526 L293.518,137.3676 C281.464,138.6196 269.446,140.2066 257.482,142.1556 C246.923,143.8766 236.453,145.9786 225.978,148.1426 C222.538,148.8536 220.921,149.1206 218.342,146.6566 C216.59,144.9816 214.944,143.1686 213.339,141.3566 C209.829,137.3946 206.681,133.1836 203.772,128.7656 C203.162,127.8396 202.285,127.1426 201.289,126.7746 L221.326,158.0136 C224.547,158.1276 227.859,157.1686 231.047,156.4906" id="Fill-261" fill="#E9DE2C"/><path d="M130.7848,132.8969 C130.0538,126.4919 132.0048,120.4699 128.2638,114.6059 C127.2438,113.0059 124.9858,111.7539 123.0478,112.4829 C117.6268,114.5219 112.2048,116.5599 106.7838,118.5979 L105.1818,129.0319 C110.6398,126.9799 116.0988,124.9279 121.5568,122.8759 C121.8678,125.0909 121.5768,127.4389 121.5198,129.6929 C121.4268,133.3819 121.7038,137.2559 123.6038,140.5189 C127.3758,146.9949 135.0708,148.4839 142.0148,147.9259 C151.3108,147.1789 160.6698,145.0229 169.7858,143.1289 C171.1528,142.8459 172.5148,142.5419 173.8788,142.2459 C174.2048,139.2749 174.5528,136.0269 174.9148,132.5829 C165.4238,134.7299 155.8698,136.5989 146.2628,138.1139 C140.7878,138.9769 131.6558,140.5249 130.7848,132.8969" id="Fill-263" fill="#E9DE2C"/><path d="M296.2526,168.725 C298.6466,169.734 300.9126,171.766 303.1746,173.059 C305.4996,174.388 307.8956,175.558 310.3626,176.597 C313.8066,178.047 317.3616,179.122 320.9406,179.689 L313.2706,167.851 C311.6206,167.121 310.0196,166.307 308.4916,165.456 C304.9596,163.491 301.7086,160.621 297.8266,159.371 C293.1656,157.869 288.9826,159.414 284.9436,161.809 C269.9296,170.708 252.3706,178.957 234.4236,178.434 L240.2586,187.532 C254.0446,186.636 267.9826,181.641 279.7536,175.553 C284.2256,173.241 291.2036,166.598 296.2526,168.725" id="Fill-265" fill="#E9DE2C"/><path d="M152.9806,178.0726 C143.5906,175.3566 136.0396,169.5516 126.0926,168.2256 C114.7306,166.7106 103.2476,168.7146 91.8836,167.2646 C88.3016,166.8086 84.7876,166.0566 81.3586,165.0436 C78.3176,166.9756 74.9286,169.1196 71.4136,171.3366 C75.3976,172.9406 79.5046,174.2426 83.7076,175.1596 C94.0166,177.4106 104.2456,176.8626 114.7056,176.8256 C119.7126,176.8066 124.7516,176.9756 129.6216,178.2446 C134.8486,179.6046 139.4226,182.4186 144.3116,184.6106 C149.4886,186.9326 154.7656,188.1146 160.1386,188.3176 C161.6446,186.0086 163.3436,182.9676 165.0486,179.0256 C161.0246,179.4246 156.9746,179.2276 152.9806,178.0726" id="Fill-267" fill="#E9DE2C"/><path d="M82.5719,195.9906 C75.9139,194.2566 71.7979,188.1766 65.2109,186.2946 C59.6689,184.7126 53.2969,185.6126 47.3279,186.4556 C45.4159,187.6516 43.6859,188.7326 42.2209,189.6486 C39.8399,191.1366 38.9829,194.0826 39.9969,196.5566 C46.4669,195.7826 53.1329,194.6286 59.5869,194.7956 C66.0649,194.9636 70.0329,200.7756 75.6319,203.2986 C81.0599,205.7436 87.0489,206.2096 92.9329,206.0766 C99.7619,205.9216 106.5259,205.1856 113.3349,206.1146 C120.4699,207.0876 127.3989,209.2026 134.3429,211.0336 C134.3499,211.0346 134.3559,211.0366 134.3629,211.0386 L143.4309,203.7836 C130.3729,200.9126 117.7929,196.1476 104.2089,196.3706 C97.0859,196.4876 89.5709,197.8146 82.5719,195.9906" id="Fill-269" fill="#E9DE2C"/><path d="M269.8302,208.0922 C271.9422,208.3262 272.8622,211.0532 273.7742,212.6582 C275.0852,214.9702 276.5772,217.0862 278.6062,218.8222 C288.1402,226.9792 302.0742,224.5292 312.1032,218.8022 C319.1532,214.7772 327.4022,206.8482 336.1452,203.1542 L331.2642,195.6192 C327.8522,197.1312 324.5602,199.0692 321.4392,201.2322 C312.2312,207.6132 301.5192,217.6552 289.3052,214.2152 C283.2732,212.5162 282.3372,207.5602 278.6982,203.2142 C275.7852,199.7362 271.3772,198.1582 266.9282,199.2062 C262.6472,200.2152 259.1692,203.0982 255.5522,205.4212 C254.7162,205.9592 253.7882,206.6042 252.8172,207.1122 L257.7782,214.8452 C258.4602,214.4762 259.1292,214.0832 259.7792,213.6762 C262.2952,212.0982 266.6212,207.7382 269.8302,208.0922" id="Fill-271" fill="#E9DE2C"/><path d="M308.5724,255.8334 L317.8704,250.4054 C315.7164,249.3954 313.5904,248.2574 311.5014,246.9514 C300.0514,239.7974 289.7874,230.7284 276.7014,226.5704 C272.3374,225.1854 268.1424,224.5834 264.0734,224.6604 L270.3144,234.3914 C282.2304,236.8474 292.2604,245.1374 302.0994,251.8214 C304.2404,253.2754 306.3964,254.6044 308.5724,255.8334" id="Fill-273" fill="#E9DE2C"/><path d="M84.1554,219.8051 C80.9594,218.6721 77.7714,219.7621 74.7364,220.8361 C70.5444,222.3191 66.3834,223.8971 62.2454,225.5241 C62.0004,225.6201 61.7584,225.7211 61.5144,225.8181 L67.1974,233.4661 C69.4084,232.6141 71.6224,231.7721 73.8464,230.9551 C75.3754,230.3951 77.2584,229.3781 78.8684,229.1491 C81.4054,228.7871 81.2834,229.2081 82.2294,231.5601 C84.3434,236.8191 87.1584,241.6731 90.5844,246.0581 L97.7574,240.3201 C96.1534,238.2751 94.6954,236.1131 93.4254,233.8181 C90.8294,229.1251 89.8464,221.8211 84.1554,219.8051" id="Fill-275" fill="#E9DE2C"/><path d="M172.4953,154.7006 C172.4473,154.7006 172.3983,154.6986 172.3493,154.6936 C171.5243,154.6136 170.9213,153.8816 171.0003,153.0556 C171.0693,152.3416 171.1723,151.9516 171.2553,151.6386 C171.3243,151.3796 171.3793,151.1746 171.4243,150.7036 C171.4883,150.0356 171.5583,149.6836 171.6203,149.3736 C171.6723,149.1176 171.7233,148.8606 171.7723,148.3436 C171.8443,147.6016 171.9663,147.1996 172.0633,146.8776 C172.1413,146.6236 172.1973,146.4396 172.2393,145.9956 C172.2833,145.5386 172.2663,145.3436 172.2423,145.0726 C172.2143,144.7426 172.1783,144.3316 172.2483,143.6006 C172.2733,143.3346 172.2493,143.2626 172.1663,143.0226 C172.0393,142.6536 171.8473,142.0966 171.9343,141.1776 C171.9963,140.5316 172.0513,140.2116 172.1043,139.8896 C172.1493,139.6226 172.1943,139.3546 172.2463,138.8166 C172.3133,138.1096 172.4083,137.7406 172.4913,137.4146 C172.5583,137.1516 172.6113,136.9436 172.6573,136.4676 C172.7263,135.7396 172.8393,135.3446 172.9303,135.0266 C173.0043,134.7646 173.0573,134.5766 173.1013,134.1206 C173.1683,133.4326 173.2503,133.0716 173.3223,132.7536 C173.3863,132.4786 173.4343,132.2626 173.4823,131.7636 C173.5563,130.9996 173.6943,130.5876 173.8063,130.2576 C173.8913,130.0066 173.9463,129.8416 173.9863,129.4196 C174.0033,129.2526 174.0003,129.2476 173.8823,129.0086 C173.6943,128.6296 173.3813,127.9966 173.4783,126.9776 C173.5573,126.1656 173.7413,125.7146 173.8763,125.3846 C173.9743,125.1446 174.0273,125.0136 174.0633,124.6406 C174.1213,124.0406 174.1533,123.7396 174.1853,123.4396 C174.2173,123.1466 174.2483,122.8546 174.3053,122.2686 C174.3313,121.9926 174.3073,121.9196 174.2253,121.6766 C174.1033,121.3096 173.9193,120.7566 174.0073,119.8466 C174.0953,118.9376 174.3823,118.4296 174.5713,118.0926 C174.6973,117.8696 174.7353,117.8026 174.7623,117.5246 C174.7933,117.2036 174.7653,117.1006 174.6973,116.8536 C174.5963,116.4826 174.4583,115.9736 174.5413,115.1076 C174.6413,114.0626 175.1033,113.4946 175.3803,113.1556 C175.5463,112.9516 175.5463,112.9516 175.5593,112.8086 C175.5733,112.6646 175.5733,112.6646 175.4503,112.4306 C175.2463,112.0466 174.9043,111.4016 175.0053,110.3606 C175.0633,109.7496 175.0963,109.4486 175.1283,109.1416 C175.1583,108.8546 175.1893,108.5616 175.2453,107.9866 C175.3303,107.1076 175.5743,106.6306 175.7533,106.2816 C175.8703,106.0516 175.9153,105.9656 175.9443,105.6566 C175.9923,105.1546 175.9873,104.9186 175.9803,104.6446 C175.9733,104.3216 175.9653,103.9546 176.0303,103.2716 C176.1173,102.3756 176.3913,101.8716 176.5713,101.5376 C176.6933,101.3126 176.7353,101.2366 176.7633,100.9476 C176.7993,100.5726 176.7703,100.4326 176.7213,100.1786 C176.6503,99.8286 176.5563,99.3496 176.6343,98.5366 C176.6823,98.0356 176.6753,97.8016 176.6673,97.5286 C176.6573,97.2026 176.6463,96.8336 176.7133,96.1456 C176.7433,95.8296 176.7153,95.7266 176.6463,95.4816 C176.5423,95.1076 176.3993,94.5966 176.4833,93.7236 C176.5903,92.6196 177.1333,92.0406 177.4583,91.6946 C177.5193,91.6296 177.6023,91.5406 177.6203,91.5096 C177.6533,91.2176 177.6403,91.1856 177.5363,90.9416 C177.3703,90.5526 177.1193,89.9646 177.2133,88.9886 C177.2923,88.1636 178.0203,87.5546 178.8493,87.6376 C179.6743,87.7176 180.2783,88.4506 180.1993,89.2746 C180.1793,89.4896 180.1923,89.5206 180.2963,89.7646 C180.4623,90.1546 180.7133,90.7426 180.6193,91.7186 C180.5133,92.8236 179.9703,93.4026 179.6443,93.7486 C179.5833,93.8136 179.5003,93.9026 179.4823,93.9336 C179.4393,94.3276 179.4683,94.4296 179.5363,94.6756 C179.6413,95.0496 179.7833,95.5606 179.6993,96.4326 C179.6513,96.9336 179.6583,97.1686 179.6663,97.4406 C179.6763,97.7666 179.6863,98.1366 179.6203,98.8236 C179.5843,99.1986 179.6123,99.3386 179.6623,99.5936 C179.7323,99.9426 179.8273,100.4216 179.7493,101.2346 C179.6623,102.1326 179.3893,102.6366 179.2083,102.9696 C179.0863,103.1946 179.0443,103.2696 179.0163,103.5596 C178.9683,104.0646 178.9743,104.3016 178.9793,104.5746 C178.9873,104.8966 178.9963,105.2626 178.9313,105.9426 C178.8463,106.8226 178.6013,107.3006 178.4233,107.6486 C178.3063,107.8796 178.2613,107.9656 178.2313,108.2736 C178.1753,108.8646 178.1423,109.1656 178.1113,109.4606 C178.0793,109.7586 178.0483,110.0506 177.9913,110.6466 C177.9773,110.7936 177.9773,110.7936 178.1003,111.0256 C178.3053,111.4106 178.6463,112.0546 178.5463,113.0966 C178.4453,114.1416 177.9833,114.7096 177.7073,115.0496 C177.5413,115.2536 177.5413,115.2536 177.5273,115.3946 C177.4963,115.7156 177.5243,115.8176 177.5923,116.0646 C177.6933,116.4366 177.8313,116.9446 177.7483,117.8106 C177.6613,118.7216 177.3743,119.2296 177.1833,119.5666 C177.0573,119.7906 177.0193,119.8576 176.9933,120.1346 C176.9673,120.4116 176.9913,120.4846 177.0723,120.7276 C177.1933,121.0946 177.3783,121.6466 177.2913,122.5546 C177.2333,123.1576 177.2013,123.4586 177.1693,123.7596 C177.1383,124.0516 177.1063,124.3446 177.0503,124.9286 C176.9723,125.7406 176.7873,126.1916 176.6523,126.5206 C176.5553,126.7606 176.5013,126.8916 176.4653,127.2636 C176.4483,127.4316 176.4513,127.4366 176.5693,127.6766 C176.7573,128.0546 177.0703,128.6866 176.9733,129.7066 C176.8993,130.4706 176.7613,130.8826 176.6493,131.2136 C176.5653,131.4646 176.5093,131.6306 176.4693,132.0516 C176.4033,132.7396 176.3203,133.1006 176.2483,133.4206 C176.1873,133.6836 176.1363,133.9116 176.0883,134.4086 C176.0173,135.1356 175.9053,135.5296 175.8153,135.8466 C175.7413,136.1086 175.6873,136.2976 175.6433,136.7546 C175.5753,137.4616 175.4813,137.8306 175.3983,138.1556 C175.3313,138.4196 175.2783,138.6266 175.2323,139.1036 C175.1703,139.7486 175.1163,140.0676 175.0623,140.3876 C175.0173,140.6556 174.9733,140.9236 174.9213,141.4646 C174.8943,141.7336 174.9183,141.7996 175.0023,142.0446 C175.1303,142.4136 175.3223,142.9716 175.2343,143.8876 C175.1903,144.3456 175.2073,144.5406 175.2313,144.8106 C175.2603,145.1406 175.2963,145.5526 175.2253,146.2826 C175.1543,147.0236 175.0323,147.4266 174.9343,147.7496 C174.8573,148.0036 174.8023,148.1866 174.7593,148.6306 C174.6943,149.2996 174.6243,149.6506 174.5623,149.9606 C174.5113,150.2176 174.4603,150.4726 174.4103,150.9916 C174.3413,151.7066 174.2383,152.0966 174.1553,152.4086 C174.0863,152.6686 174.0313,152.8736 173.9863,153.3446 C173.9113,154.1196 173.2593,154.7006 172.4953,154.7006" id="Fill-277" fill="#000"/></g></g></g></g><g id="Upper" transform="translate(-1.000000, 0.000000) scale(1 1)"><g id="Upper/Scientist" stroke="none" stroke-width="1" fill="none" fill-rule="evenodd"><g id="Group-691" transform="translate(202.500000, 272.500000)"><g id="Group-508" transform="translate(0.000000, 0.095000)"><path d="M88.4009,29.9342 C88.4009,29.9342 -11.6231,99.6842 1.9399,159.4312 C9.2159,191.4822 33.1019,194.6812 33.1019,194.6812 L88.4009,29.9342 Z" id="Fill-454" fill="#D5E1D5"/><path d="M44.3399,139.7135 C44.3399,139.7135 12.2059,140.0225 9.8999,168.1835 L39.0989,165.5065 L44.3399,139.7135 Z" id="Fill-456" fill="#FEF864"/><path d="M42.8428,147.1959 C42.8428,147.1959 15.1448,142.5239 8.6348,172.8829 C2.0128,203.7679 30.2768,208.6559 30.2768,208.6559 L42.8428,147.1959 Z" id="Fill-458" fill="#ef9e89"/><path d="M32.4244,198.1764 C32.2964,198.1764 32.1664,198.1594 32.0364,198.1254 C28.7364,197.2454 13.8514,192.9854 13.2184,192.8044 C12.4224,192.5754 11.9614,191.7454 12.1894,190.9494 C12.4174,190.1534 13.2414,189.6924 14.0444,189.9204 C14.1984,189.9644 29.5354,194.3544 32.8104,195.2274 C33.6104,195.4404 34.0864,196.2624 33.8724,197.0634 C33.6944,197.7344 33.0874,198.1764 32.4244,198.1764" id="Fill-460" fill="#000"/><path d="M36.1529,185.5983 C36.0549,185.5983 35.9569,185.5883 35.8569,185.5693 C30.6109,184.5203 13.9479,180.0363 13.2419,179.8463 C12.4409,179.6303 11.9669,178.8073 12.1829,178.0073 C12.3979,177.2073 13.2209,176.7343 14.0209,176.9503 C14.1939,176.9953 31.2959,181.5983 36.4449,182.6273 C37.2569,182.7893 37.7839,183.5793 37.6219,184.3923 C37.4789,185.1053 36.8529,185.5983 36.1529,185.5983" id="Fill-462" fill="#000"/><path d="M37.9498,172.6344 C37.8388,172.6344 37.7258,172.6214 37.6128,172.5964 C33.3048,171.6054 15.7878,167.9864 15.6108,167.9494 C14.8008,167.7814 14.2778,166.9884 14.4458,166.1774 C14.6138,165.3654 15.4038,164.8474 16.2188,165.0114 C16.3948,165.0484 33.9448,168.6744 38.2848,169.6724 C39.0928,169.8584 39.5958,170.6624 39.4108,171.4704 C39.2508,172.1644 38.6338,172.6344 37.9498,172.6344" id="Fill-464" fill="#000"/><path d="M40.4859,160.2281 C40.3789,160.2281 40.2689,160.2161 40.1599,160.1921 L35.8049,159.2211 C30.8039,158.1041 25.1349,156.8381 23.7319,156.5841 C22.9169,156.4381 22.3759,155.6581 22.5219,154.8421 C22.6699,154.0271 23.4449,153.4911 24.2649,153.6321 C25.7289,153.8971 31.1839,155.1151 36.4589,156.2931 L40.8099,157.2631 C41.6189,157.4431 42.1289,158.2451 41.9489,159.0531 C41.7939,159.7521 41.1739,160.2281 40.4859,160.2281" id="Fill-466" fill="#000"/><path d="M225.0865,68.861 L213.9595,66.424 C213.9595,66.424 205.2635,64.18 203.1565,71.442 C200.6415,80.116 209.4005,82.479 209.4005,82.479 L223.5745,85.904 L224.0685,75.518 C224.0685,75.518 224.0485,71.955 225.0865,68.861" id="Fill-468" fill="#3164CF"/><path d="M235.8672,82.5905 C235.8672,82.5905 239.4922,77.2475 242.9442,72.7715 L234.7032,70.9665 C235.9472,76.1785 235.8672,82.5905 235.8672,82.5905" id="Fill-470" fill="#3164CF"/><path d="M247.397,91.7408 C247.397,91.7408 247.407,91.7118 247.423,91.6678 L247.508,91.6878 C247.436,91.7208 247.397,91.7408 247.397,91.7408 M248.425,91.9098 L248.424,91.9098 C248.731,91.0628 250.963,84.3738 253.674,80.1668 C255.394,77.4968 255.899,76.7578 256.636,75.7688 C261.367,69.4318 266.351,62.6348 263.888,59.6598 C259.834,54.7628 252.447,62.1228 247.531,67.4738 C246.481,68.6168 244.676,70.5258 242.944,72.7708 C239.492,77.2478 235.867,82.5908 235.867,82.5908 C235.867,82.5908 235.947,76.1778 234.703,70.9668 C233.851,67.3968 232.378,64.3898 229.834,64.3898 C227.302,64.3898 225.883,66.4878 225.086,68.8608 C224.049,71.9548 224.069,75.5178 224.069,75.5178 L223.574,85.9038 L222.862,100.8568 L236.299,138.3958 L260.402,123.3818 C272.889,114.4738 273.965,104.3188 271.109,97.3918 L249.377,92.1398 C249.306,92.1738 248.425,91.9098 248.425,91.9098" id="Fill-472" fill="#ef9e89"/><path d="M247.397,91.7408 C247.397,91.7408 247.436,91.7208 247.508,91.6878 L247.423,91.6678 C247.407,91.7118 247.397,91.7408 247.397,91.7408" id="Fill-474" fill="#ef9e89"/><path d="M249.377,92.1403 L271.109,97.3923 L249.377,92.1403 Z" id="Fill-476" fill="#ef9e89"/><path d="M248.9029,102.3375 C248.3909,102.3375 247.8929,102.0755 247.6129,101.6055 C247.1879,100.8935 247.4219,99.9735 248.1329,99.5485 C248.4799,99.3425 256.7149,94.4565 263.8499,92.1815 C264.6459,91.9285 265.4839,92.3655 265.7349,93.1545 C265.9869,93.9435 265.5509,94.7875 264.7619,95.0395 C257.9589,97.2085 249.7509,102.0765 249.6689,102.1255 C249.4279,102.2695 249.1639,102.3375 248.9029,102.3375" id="Fill-478" fill="#000"/><path d="M253.8795,113.2946 C253.3905,113.2946 252.9105,113.0556 252.6225,112.6146 C252.1695,111.9216 252.3645,110.9916 253.0585,110.5386 C253.5435,110.2226 265.0235,102.7476 271.7365,100.2526 C272.5095,99.9626 273.3765,100.3576 273.6655,101.1356 C273.9535,101.9116 273.5585,102.7746 272.7815,103.0646 C266.3795,105.4436 254.8155,112.9756 254.6985,113.0506 C254.4455,113.2166 254.1605,113.2946 253.8795,113.2946" id="Fill-480" fill="#000"/><path d="M281.191,81.1461 L256.636,75.7691 C255.899,76.7571 255.394,77.4971 253.674,80.1671 C250.963,84.3741 248.731,91.0631 248.424,91.9101 L248.425,91.9101 L249.377,92.1401 L271.109,97.3921 L277.333,98.8961 C277.848,99.0211 278.37,99.1141 278.893,99.1921 C276.681,90.5841 279.147,84.4341 281.191,81.1461" id="Fill-482" fill="#3164CF"/><path d="M284.3174,99.1696 L295.7184,97.3416 C296.5654,97.2056 297.2564,96.5936 297.4934,95.7706 L298.1184,93.5996 C298.3774,92.7006 298.0424,91.7356 297.2814,91.1906 L286.3144,83.3316 C284.9034,82.3206 283.3024,81.6076 281.6074,81.2366 L281.1914,81.1466 C279.1464,84.4346 276.6804,90.5836 278.8924,99.1916 C280.6894,99.4596 282.5184,99.4576 284.3174,99.1696" id="Fill-484" fill="#FEF864"/><path d="M296.5626,91.6647 C295.7706,91.5617 294.8246,91.5107 294.1606,93.7607 C293.4956,96.0097 296.0006,96.6227 296.0006,96.6227 L300.5076,97.7467 C300.5076,97.7467 302.1856,98.3037 302.7476,97.0537 C303.3106,95.8047 304.0226,93.6357 302.5406,93.1757 C301.0586,92.7157 298.0846,91.8607 296.5626,91.6647" id="Fill-486" fill="#000"/><path d="M63.3399,46.7877 L21.5539,246.8657 C20.8709,250.2077 23.4239,253.3357 26.8349,253.3357 L195.0019,253.3357 C198.2529,253.3357 200.7639,250.4787 200.3479,247.2547 L165.2179,29.9337 L83.9879,29.9337 C73.9759,29.9337 65.3449,36.9787 63.3399,46.7877" id="Fill-488" fill="#F8FBF8"/><path d="M88.4009,29.9342 C88.4009,29.9342 122.6519,48.0302 135.2889,49.6932 C147.9259,51.3562 165.8829,51.7442 165.2179,29.9342 L88.4009,29.9342 Z" id="Fill-490" fill="#D5E1D5"/><path d="M144.9835,72.8092 L170.1795,120.2212 C170.5725,120.9592 171.4605,121.2812 172.2345,120.9642 L207.4505,106.5572 L226.3675,159.4062 C227.5025,162.5752 225.9255,166.0752 222.7995,167.3252 L173.5315,187.0332 C173.5315,187.0332 139.6125,198.3382 121.9875,164.0872 C104.3625,129.8352 88.4005,98.2442 88.4005,98.2442 C88.4005,98.2442 73.0575,64.3562 102.3675,56.5572 C136.2865,47.5322 144.9835,72.8092 144.9835,72.8092" id="Fill-492" fill="#F8FBF8"/><path d="M192.3199,162.0084 C193.3829,167.0114 201.3769,166.4974 201.381904,161.4264 C201.3889,154.0284 190.9069,155.3584 192.3199,162.0084" id="Fill-494" fill="#D5E1D5"/><path d="M80.7525,253.3356 L96.4945,204.8506 C97.0225,203.2256 98.5365,202.1246 100.2445,202.1246 L155.9525,202.1246 C157.5805,202.1246 158.8995,203.4436 158.8995,205.0716 L158.8995,253.3356 L80.7525,253.3356 Z" id="Fill-496" fill="#D5E1D5"/><path d="M207.4507,106.5573 L223.1527,100.4263 L239.5737,146.3013 C240.2957,148.3183 239.3137,150.5473 237.3387,151.3753 L225.3007,156.4243 L207.4507,106.5573 Z" id="Fill-498" fill="#FEF864"/><path d="M159.3912,190.2731 C158.6912,190.2731 158.0942,190.0441 157.6142,189.8611 C157.3832,189.7731 157.0962,189.6641 156.9682,189.6581 C156.8422,189.6561 156.5342,189.7471 156.2902,189.8231 C155.7982,189.9771 155.1862,190.1691 154.4952,190.1061 C154.2342,190.0831 153.9162,190.1051 153.5812,190.1271 C153.1092,190.1611 152.5732,190.2001 152.0092,190.1191 C151.2102,190.0051 150.6262,189.5661 150.1572,189.2121 C150.0052,189.0981 149.7762,188.9251 149.6852,188.8911 C149.6202,188.8911 149.3132,188.9611 149.1092,189.0091 C148.5632,189.1341 147.8862,189.2901 147.1532,189.1021 C146.5762,188.9541 146.0762,188.7111 145.6342,188.4981 C145.3482,188.3591 145.0782,188.2281 144.8482,188.1541 C144.1672,187.9351 143.6642,187.5221 143.2592,187.1901 C143.0722,187.0361 142.8372,186.8441 142.7192,186.7971 C142.5892,186.7471 142.2732,186.7351 142.0182,186.7261 C141.4952,186.7081 140.8462,186.6851 140.2102,186.3851 C139.6282,186.1111 139.1012,185.8061 138.5912,185.5121 L138.0252,185.1881 C137.3892,184.8341 136.9772,184.3191 136.6452,183.9061 C136.4952,183.7191 136.3082,183.4871 136.2072,183.4211 C136.0402,183.3121 135.7632,183.2191 135.4702,183.1211 C134.9842,182.9581 134.4322,182.7731 133.9192,182.3811 C133.4162,181.9981 133.0512,181.5571 132.7282,181.1691 C132.5372,180.9401 132.3582,180.7231 132.1952,180.5791 C131.9562,180.3671 131.7042,180.1791 131.4612,179.9971 C131.0652,179.6981 130.6552,179.3901 130.2792,179.0001 C130.0862,178.8001 129.8272,178.6101 129.5522,178.4081 C129.1622,178.1221 128.7202,177.7961 128.3592,177.3551 C127.8192,176.6961 127.6382,175.9461 127.5072,175.3991 C127.4662,175.2311 127.4112,175.0011 127.3752,174.9271 C127.1132,174.5441 126.9452,174.3161 126.8232,174.1511 C126.5372,173.7641 126.4182,173.5911 126.0352,172.8361 C125.9512,172.6691 125.9422,172.6651 125.7122,172.5211 C125.3402,172.2891 124.7782,171.9371 124.3122,171.0481 C123.8542,170.1701 123.8712,169.5241 123.8832,169.0951 C123.8902,168.8331 123.8912,168.7991 123.7942,168.6141 C123.4992,168.0511 123.3662,167.7631 123.2322,167.4741 C123.1142,167.2201 122.9952,166.9641 122.7362,166.4671 C122.4262,165.8771 122.2992,165.5661 122.1722,165.2541 C122.0722,165.0091 121.9722,164.7641 121.7272,164.2971 C121.6742,164.1971 121.6742,164.1971 121.4492,164.0841 C121.0392,163.8781 120.3562,163.5371 119.8542,162.5781 C119.4942,161.8881 119.3882,161.4601 119.3032,161.1161 C119.2412,160.8621 119.2002,160.6951 119.0062,160.3261 C118.7472,159.8321 118.6062,159.5911 118.4632,159.3511 C118.3012,159.0781 118.1392,158.8031 117.8452,158.2411 C117.5132,157.6071 117.3912,157.2431 117.2832,156.9211 C117.1962,156.6641 117.1272,156.4601 116.9062,156.0361 C116.6252,155.4991 116.4882,155.2281 116.3512,154.9591 C116.2182,154.6961 116.0852,154.4331 115.8122,153.9111 C115.3952,153.1141 115.3472,152.5441 115.3152,152.1671 C115.2932,151.9101 115.2862,151.8231 115.1502,151.5621 C115.0902,151.4471 115.0902,151.4471 114.8622,151.3271 C114.4662,151.1191 113.8042,150.7711 113.3112,149.8271 C112.9672,149.1701 112.8482,148.7711 112.7512,148.4511 C112.6742,148.1921 112.6192,148.0061 112.4092,147.6041 C111.9762,146.7771 111.9522,146.1771 111.9362,145.7811 C111.9252,145.5261 111.9222,145.4571 111.8022,145.2251 C111.6522,144.9391 111.5722,144.8681 111.3792,144.6951 C111.0932,144.4391 110.7032,144.0881 110.3002,143.3191 C110.0422,142.8261 109.9002,142.5861 109.7572,142.3471 C109.5942,142.0721 109.4312,141.7971 109.1352,141.2321 C108.8232,140.6341 108.6902,140.3001 108.5732,140.0051 C108.4762,139.7631 108.3792,139.5211 108.1392,139.0601 C107.9862,138.7681 107.9002,138.6901 107.7132,138.5191 C107.4322,138.2631 107.0472,137.9131 106.6482,137.1491 C106.1942,136.2811 106.2062,135.6411 106.2142,135.2171 C106.2192,134.9541 106.2202,134.9201 106.1212,134.7321 C106.0042,134.5081 105.9552,134.4711 105.7482,134.3181 C105.4262,134.0791 104.9402,133.7171 104.5042,132.8841 C104.0372,131.9931 104.0732,131.3301 104.0962,130.8911 C104.1102,130.6261 104.1112,130.6101 104.0252,130.4471 C103.9082,130.2211 103.8592,130.1851 103.6522,130.0321 C103.3312,129.7931 102.8472,129.4321 102.4122,128.6011 C102.2312,128.2521 102.1232,128.1391 101.9482,127.9501 C101.6982,127.6821 101.3872,127.3491 101.0172,126.6411 C100.5852,125.8171 100.5602,125.2191 100.5422,124.8251 C100.5322,124.5691 100.5292,124.5001 100.4072,124.2671 C100.0212,123.5281 99.9372,123.0361 99.8762,122.6771 C99.8332,122.4211 99.8112,122.2931 99.6452,121.9751 C99.4302,121.5621 99.3092,121.4061 99.1412,121.1881 C98.9412,120.9281 98.6922,120.6051 98.3562,119.9611 C98.2772,119.8111 98.2732,119.8091 98.0402,119.6711 C97.6772,119.4571 97.0692,119.0961 96.5952,118.1891 C96.1812,117.3981 96.1312,116.8551 96.0952,116.4601 C96.0732,116.2071 96.0642,116.1131 95.9252,115.8471 C95.7582,115.5281 95.6642,115.4361 95.4792,115.2531 C95.2202,114.9991 94.8652,114.6491 94.4792,113.9121 C94.1592,113.2981 94.0302,112.9521 93.9172,112.6451 C93.8192,112.3801 93.7422,112.1711 93.5092,111.7281 C93.2992,111.3241 93.1772,111.1711 93.0102,110.9601 C92.8012,110.6991 92.5422,110.3731 92.2002,109.7161 C91.7152,108.7921 91.7872,108.0671 91.8312,107.6331 C91.8582,107.3711 91.8582,107.3711 91.7892,107.2411 C91.6332,106.9411 91.5472,106.8611 91.3592,106.6871 C91.0822,106.4311 90.7042,106.0821 90.3082,105.3241 C89.9282,104.5961 89.8382,104.1161 89.7722,103.7651 C89.7252,103.5111 89.6992,103.3721 89.5262,103.0421 C89.4342,102.8661 89.4152,102.8541 89.1912,102.7101 C88.8272,102.4771 88.2772,102.1251 87.8162,101.2431 C87.4822,100.6041 87.3562,100.2201 87.2542,99.9121 C87.1712,99.6571 87.1052,99.4551 86.8862,99.0361 C86.5022,98.3011 86.7862,97.3951 87.5212,97.0111 C88.2522,96.6291 89.1612,96.9121 89.5442,97.6461 C89.8782,98.2851 90.0042,98.6691 90.1062,98.9771 C90.1892,99.2331 90.2552,99.4341 90.4742,99.8531 C90.5662,100.0291 90.5842,100.0411 90.8092,100.1841 C91.1732,100.4181 91.7232,100.7701 92.1842,101.6521 C92.5652,102.3781 92.6552,102.8601 92.7212,103.2111 C92.7682,103.4641 92.7942,103.6041 92.9672,103.9341 C93.1222,104.2311 93.2082,104.3111 93.3972,104.4851 C93.6732,104.7411 94.0522,105.0911 94.4492,105.8501 C94.9332,106.7761 94.8602,107.5011 94.8172,107.9341 C94.7892,108.1971 94.7892,108.1971 94.8582,108.3271 C95.0682,108.7301 95.1902,108.8821 95.3572,109.0931 C95.5662,109.3551 95.8252,109.6811 96.1672,110.3371 C96.4902,110.9511 96.6182,111.2981 96.7312,111.6061 C96.8252,111.8601 96.9062,112.0801 97.1372,112.5221 C97.3042,112.8401 97.3972,112.9321 97.5822,113.1151 C97.8422,113.3701 98.1982,113.7191 98.5832,114.4581 C98.9972,115.2491 99.0472,115.7921 99.0832,116.1871 C99.1062,116.4401 99.1152,116.5341 99.2532,116.7991 C99.3322,116.9501 99.3362,116.9531 99.5692,117.0891 C99.9322,117.3051 100.5402,117.6651 101.0142,118.5721 C101.2292,118.9831 101.3502,119.1391 101.5182,119.3571 C101.7182,119.6171 101.9672,119.9401 102.3042,120.5851 C102.6902,121.3231 102.7732,121.8161 102.8342,122.1751 C102.8772,122.4311 102.9002,122.5591 103.0652,122.8771 C103.4962,123.7021 103.5232,124.2991 103.5392,124.6951 C103.5512,124.9511 103.5542,125.0191 103.6752,125.2521 C103.8572,125.5991 103.9632,125.7131 104.1402,125.9021 C104.3902,126.1691 104.7012,126.5021 105.0712,127.2111 C105.1882,127.4351 105.2372,127.4711 105.4432,127.6251 C105.7642,127.8641 106.2482,128.2241 106.6832,129.0561 C107.1502,129.9471 107.1152,130.6111 107.0912,131.0491 C107.0782,131.3141 107.0772,131.3301 107.1622,131.4941 C107.2802,131.7181 107.3292,131.7551 107.5362,131.9091 C107.8582,132.1481 108.3442,132.5091 108.7802,133.3421 C109.2342,134.2101 109.2222,134.8501 109.2132,135.2741 C109.2082,135.5371 109.2082,135.5701 109.3072,135.7581 C109.4602,136.0531 109.5462,136.1311 109.7342,136.3021 C110.0142,136.5571 110.3982,136.9081 110.7972,137.6701 C111.1102,138.2681 111.2432,138.6021 111.3602,138.8971 C111.4562,139.1391 111.5532,139.3811 111.7932,139.8421 C112.0512,140.3351 112.1942,140.5751 112.3362,140.8141 C112.4992,141.0881 112.6622,141.3631 112.9582,141.9281 C113.1092,142.2161 113.1892,142.2891 113.3812,142.4601 C113.6662,142.7161 114.0572,143.0671 114.4602,143.8351 C114.8932,144.6641 114.9172,145.2621 114.9332,145.6591 C114.9442,145.9151 114.9472,145.9831 115.0672,146.2141 C115.4112,146.8701 115.5302,147.2691 115.6252,147.5901 C115.7032,147.8481 115.7592,148.0351 115.9692,148.4361 C116.0302,148.5511 116.0302,148.5511 116.2582,148.6711 C116.6532,148.8791 117.3152,149.2271 117.8082,150.1711 C118.2252,150.9681 118.2732,151.5391 118.3052,151.9161 C118.3272,152.1721 118.3332,152.2591 118.4702,152.5201 C118.7522,153.0601 118.8902,153.3311 119.0282,153.6021 C119.1602,153.8641 119.2922,154.1261 119.5642,154.6451 C119.8962,155.2791 120.0182,155.6431 120.1262,155.9641 C120.2132,156.2221 120.2822,156.4261 120.5032,156.8511 C120.7612,157.3431 120.9032,157.5841 121.0452,157.8231 C121.2072,158.0971 121.3702,158.3711 121.6642,158.9351 C122.0262,159.6251 122.1312,160.0531 122.2162,160.3981 C122.2792,160.6521 122.3202,160.8191 122.5122,161.1881 C122.5652,161.2881 122.5652,161.2881 122.7912,161.4011 C123.2002,161.6051 123.8842,161.9481 124.3852,162.9071 C124.6952,163.4991 124.8222,163.8091 124.9492,164.1211 C125.0492,164.3661 125.1492,164.6111 125.3942,165.0781 C125.6862,165.6371 125.8202,165.9241 125.9532,166.2111 C126.0722,166.4671 126.1902,166.7231 126.4532,167.2231 C126.9112,168.1011 126.8932,168.7491 126.8812,169.1761 C126.8742,169.4391 126.8732,169.4731 126.9702,169.6591 C127.0572,169.8241 127.0762,169.8361 127.3012,169.9761 C127.6782,170.2111 128.2472,170.5671 128.7092,171.4771 C128.9992,172.0481 129.0362,172.0971 129.2372,172.3691 C129.3722,172.5541 129.5612,172.8091 129.8762,173.2731 C130.1942,173.7401 130.3162,174.2491 130.4242,174.6981 C130.4952,174.9921 130.5752,175.3261 130.6802,175.4541 C130.8022,175.6031 131.0582,175.7921 131.3292,175.9911 C131.6762,176.2461 132.0692,176.5351 132.4392,176.9191 C132.6482,177.1351 132.9472,177.3601 133.2632,177.5981 C133.5722,177.8301 133.8862,178.0681 134.1892,178.3361 C134.5212,178.6321 134.7942,178.9611 135.0362,179.2521 C135.2782,179.5441 135.5072,179.8191 135.7412,179.9981 C135.8582,180.0861 136.1582,180.1871 136.4232,180.2761 C136.8402,180.4171 137.3602,180.5901 137.8512,180.9121 C138.3492,181.2381 138.7012,181.6751 138.9842,182.0271 C139.1532,182.2381 139.3632,182.5001 139.4882,182.5691 C139.6872,182.6801 139.8882,182.7961 140.0912,182.9141 C140.5482,183.1781 141.0212,183.4511 141.4902,183.6711 C141.5842,183.7101 141.9092,183.7201 142.1232,183.7281 C142.6082,183.7461 143.2102,183.7661 143.8182,184.0061 C144.3742,184.2251 144.8112,184.5831 145.1622,184.8711 C145.3812,185.0501 145.6292,185.2541 145.7682,185.2981 C146.1972,185.4371 146.5762,185.6201 146.9412,185.7971 C147.2872,185.9641 147.6142,186.1231 147.9012,186.1971 C147.9582,186.1951 148.2452,186.1291 148.4362,186.0861 C148.9532,185.9661 149.5972,185.8171 150.3032,185.9581 C151.0032,186.0951 151.5342,186.4951 151.9602,186.8151 C152.1222,186.9371 152.3702,187.1231 152.4672,187.1561 C152.6772,187.1831 153.0152,187.1601 153.3732,187.1351 C153.7912,187.1061 154.2652,187.0731 154.7682,187.1191 C154.8562,187.1181 155.1852,187.0251 155.3922,186.9601 C155.8592,186.8141 156.4382,186.6311 157.1002,186.6611 C157.7142,186.6871 158.2522,186.8931 158.6852,187.0591 C158.9482,187.1601 159.2452,187.2731 159.3902,187.2731 C159.6582,187.2731 159.9922,187.2101 160.3462,187.1451 C160.7472,187.0701 161.2032,186.9861 161.6922,186.9651 C162.0862,186.9491 162.4842,186.9661 162.8872,186.9861 C163.2882,187.0051 163.6672,187.0231 164.0142,186.9971 L164.7792,186.9421 C165.2902,186.9071 165.8102,186.8721 166.3332,186.8101 C166.4512,186.7971 166.7432,186.6461 166.9552,186.5361 C167.3832,186.3141 167.9142,186.0391 168.5542,185.9431 C169.1042,185.8621 169.6102,185.9071 170.0552,185.9461 C170.3862,185.9761 170.6982,186.0041 170.9162,185.9641 C171.4392,185.8701 171.9472,185.8831 172.3912,185.8961 C172.7122,185.9051 173.0152,185.9141 173.2452,185.8791 C173.5892,185.7531 173.7262,185.6621 173.9422,185.5171 C174.2312,185.3241 174.5912,185.0841 175.2862,184.8101 C176.0302,184.5161 176.4802,184.4601 176.8412,184.4141 C177.1072,184.3791 177.2822,184.3571 177.6762,184.2021 C178.2732,183.9661 178.5762,183.8611 178.8782,183.7551 C179.1542,183.6591 179.4292,183.5621 179.9712,183.3491 C180.2272,183.2491 180.2762,183.1961 180.4592,183.0001 C180.7372,182.7041 181.1552,182.2561 182.0392,181.9081 C182.6892,181.6521 183.0502,181.5551 183.3692,181.4701 C183.6442,181.3971 183.8812,181.3341 184.3712,181.1401 C185.1422,180.8361 186.0132,181.2141 186.3172,181.9861 C186.6202,182.7571 186.2422,183.6281 185.4712,183.9311 C184.8212,184.1871 184.4602,184.2841 184.1422,184.3691 C183.8682,184.4421 183.6292,184.5051 183.1392,184.6991 C182.8832,184.7991 182.8342,184.8521 182.6512,185.0481 C182.3732,185.3441 181.9552,185.7921 181.0712,186.1401 C180.4742,186.3761 180.1712,186.4811 179.8692,186.5861 C179.5932,186.6831 179.3182,186.7801 178.7762,186.9931 C178.0322,187.2861 177.5822,187.3431 177.2202,187.3891 C176.9552,187.4231 176.7812,187.4451 176.3852,187.6011 C175.9902,187.7561 175.8302,187.8631 175.6102,188.0111 C175.2982,188.2191 174.9122,188.4771 174.1272,188.7501 C174.0682,188.7701 174.0082,188.7871 173.9472,188.8001 C173.3602,188.9251 172.8002,188.9091 172.3072,188.8951 C171.9762,188.8841 171.6652,188.8771 171.4542,188.9161 C170.8392,189.0281 170.2812,188.9781 169.7892,188.9341 C169.4832,188.9081 169.1962,188.8831 168.9982,188.9101 C168.8522,188.9321 168.5782,189.0741 168.3352,189.2001 C167.8922,189.4281 167.3422,189.7131 166.6792,189.7911 C166.1092,189.8571 165.5422,189.8961 164.9842,189.9341 L164.2522,189.9871 C163.7112,190.0301 163.1952,190.0041 162.7402,189.9831 C162.4292,189.9671 162.1222,189.9501 161.8162,189.9621 C161.5412,189.9741 161.2272,190.0331 160.8952,190.0941 C160.4452,190.1781 159.9352,190.2731 159.3912,190.2731" id="Fill-500" fill="#000"/><path d="M170.8365,121.9586 C170.4825,121.9586 170.0785,121.8916 169.6135,121.7156 C168.1435,121.1576 167.9005,120.1296 167.7565,119.5156 C167.7015,119.2836 167.6575,119.1006 167.5475,118.8926 C167.1445,118.1326 167.0675,117.6186 167.0125,117.2436 C166.9745,116.9846 166.9575,116.8676 166.7965,116.5646 C166.6825,116.3506 166.6375,116.3186 166.4245,116.1686 C166.0885,115.9316 165.5805,115.5736 165.1305,114.7276 C164.8575,114.2156 164.7155,113.9586 164.5745,113.7056 C164.4235,113.4336 164.2735,113.1646 163.9815,112.6136 L162.8485,110.4956 C162.5575,109.9486 162.4185,109.6756 162.2775,109.3996 C162.1465,109.1406 162.0135,108.8786 161.7395,108.3636 C161.3955,107.7176 161.2705,107.3236 161.1685,107.0086 C161.0845,106.7456 161.0235,106.5566 160.8065,106.1456 C160.3975,105.3776 160.3275,104.8556 160.2765,104.4756 C160.2425,104.2236 160.2275,104.1076 160.0725,103.8156 C159.8045,103.3116 159.6595,103.0626 159.5165,102.8156 C159.3575,102.5436 159.2005,102.2716 158.9055,101.7166 C158.7665,101.4536 158.6975,101.3986 158.4955,101.2336 C158.1065,100.9166 157.7245,100.5696 157.3325,99.8336 C157.0825,99.3636 156.9365,99.1406 156.7895,98.9176 C156.6065,98.6366 156.4215,98.3546 156.1075,97.7646 C155.7435,97.0786 155.6335,96.6526 155.5435,96.3116 C155.4775,96.0546 155.4335,95.8846 155.2335,95.5106 C154.8895,94.8606 154.7645,94.4676 154.6625,94.1496 C154.5795,93.8876 154.5195,93.6976 154.3015,93.2876 C154.1515,93.0076 154.0715,92.9386 153.8785,92.7716 C153.5815,92.5176 153.1765,92.1676 152.7625,91.3896 C152.3855,90.6796 152.2865,90.2316 152.2065,89.8716 C152.1495,89.6166 152.1155,89.4636 151.9305,89.1136 C151.7135,88.7056 151.5895,88.5506 151.4195,88.3356 C151.2125,88.0746 150.9545,87.7506 150.6075,87.0996 C150.3005,86.5196 150.1685,86.2166 150.0365,85.9146 C149.9285,85.6656 149.8205,85.4176 149.5665,84.9396 C149.3545,84.5396 149.2315,84.3886 149.0605,84.1786 C148.8475,83.9166 148.5825,83.5906 148.2325,82.9316 C147.8165,82.1486 147.7575,81.6136 147.7135,81.2226 C147.6855,80.9636 147.6745,80.8656 147.5265,80.5896 C147.4045,80.3596 147.3505,80.3186 147.1445,80.1666 C146.8245,79.9286 146.3405,79.5696 145.9005,78.7426 C145.5125,78.0116 145.7895,77.1026 146.5215,76.7136 C147.2465,76.3236 148.1595,76.6016 148.5495,77.3336 C148.6725,77.5636 148.7275,77.6046 148.9335,77.7576 C149.2525,77.9956 149.7365,78.3546 150.1765,79.1816 C150.5925,79.9656 150.6515,80.5006 150.6955,80.8916 C150.7245,81.1506 150.7345,81.2476 150.8825,81.5236 C151.0955,81.9256 151.2185,82.0766 151.3885,82.2866 C151.6015,82.5486 151.8655,82.8736 152.2155,83.5306 C152.5245,84.1116 152.6555,84.4146 152.7875,84.7166 C152.8965,84.9656 153.0035,85.2136 153.2575,85.6906 C153.4755,86.1006 153.5985,86.2556 153.7695,86.4706 C153.9755,86.7306 154.2325,87.0556 154.5785,87.7046 C154.9565,88.4156 155.0555,88.8626 155.1355,89.2236 C155.1915,89.4786 155.2265,89.6316 155.4115,89.9806 C155.5615,90.2626 155.6415,90.3316 155.8355,90.4976 C156.1315,90.7526 156.5365,91.1026 156.9495,91.8806 C157.2955,92.5296 157.4205,92.9236 157.5225,93.2406 C157.6055,93.5036 157.6655,93.6926 157.8835,94.1036 C158.2475,94.7886 158.3575,95.2146 158.4475,95.5566 C158.5145,95.8126 158.5585,95.9826 158.7575,96.3566 C159.0065,96.8256 159.1525,97.0496 159.2995,97.2726 C159.4825,97.5546 159.6675,97.8346 159.9815,98.4266 C160.1205,98.6876 160.1895,98.7436 160.3915,98.9076 C160.7805,99.2266 161.1625,99.5716 161.5545,100.3086 C161.8225,100.8136 161.9675,101.0616 162.1105,101.3096 C162.2695,101.5806 162.4265,101.8536 162.7215,102.4086 C163.1295,103.1766 163.1995,103.6976 163.2505,104.0776 C163.2835,104.3306 163.2995,104.4456 163.4545,104.7376 C163.7995,105.3856 163.9245,105.7776 164.0255,106.0936 C164.1095,106.3556 164.1705,106.5456 164.3895,106.9566 C164.6755,107.4946 164.8145,107.7686 164.9515,108.0396 C165.0865,108.3036 165.2195,108.5646 165.4965,109.0876 L166.6305,111.2066 C166.9085,111.7316 167.0515,111.9876 167.1955,112.2466 C167.3445,112.5136 167.4935,112.7816 167.7785,113.3176 C167.8935,113.5336 167.9385,113.5646 168.1505,113.7156 C168.4865,113.9516 168.9945,114.3096 169.4445,115.1566 C169.8495,115.9166 169.9255,116.4306 169.9815,116.8066 C170.0195,117.0636 170.0355,117.1826 170.1965,117.4846 C170.4885,118.0346 170.6025,118.5126 170.6765,118.8276 C170.6835,118.8576 170.6905,118.8886 170.6955,118.9166 C170.7385,118.9326 170.7715,118.9426 170.7955,118.9496 C170.8575,118.9186 170.9185,118.8796 170.9875,118.8396 C171.2405,118.6946 171.5875,118.4966 172.0665,118.3206 C172.3195,118.2286 172.3695,118.1776 172.5545,117.9886 C172.8365,117.7016 173.2625,117.2686 174.1495,116.9426 C175.0645,116.6076 175.6935,116.6876 176.1085,116.7416 C176.3685,116.7756 176.4235,116.7826 176.6505,116.6996 C176.9805,116.5796 177.0735,116.5016 177.2785,116.3316 C177.5715,116.0886 177.9745,115.7556 178.7865,115.4576 C179.2235,115.2976 179.3945,115.1936 179.6305,115.0516 C179.9215,114.8756 180.2835,114.6566 180.9895,114.3976 C181.6815,114.1456 182.0865,114.0696 182.4125,114.0096 C182.6825,113.9586 182.8965,113.9196 183.3495,113.7536 C183.9505,113.5326 184.2555,113.4356 184.5605,113.3376 C184.8355,113.2486 185.1115,113.1596 185.6545,112.9606 C186.4335,112.6766 187.2935,113.0746 187.5795,113.8536 C187.8645,114.6306 187.4655,115.4926 186.6885,115.7766 C186.0865,115.9976 185.7815,116.0956 185.4775,116.1926 C185.2015,116.2816 184.9255,116.3706 184.3825,116.5696 C183.6915,116.8226 183.2855,116.8976 182.9595,116.9586 C182.6905,117.0096 182.4765,117.0486 182.0235,117.2146 C181.5875,117.3746 181.4175,117.4776 181.1815,117.6196 C180.8895,117.7956 180.5265,118.0156 179.8185,118.2736 C179.4915,118.3946 179.3985,118.4716 179.1925,118.6416 C178.8995,118.8846 178.4975,119.2186 177.6845,119.5166 C176.7685,119.8526 176.1405,119.7706 175.7255,119.7176 C175.4655,119.6836 175.4105,119.6766 175.1835,119.7596 C174.9305,119.8526 174.8805,119.9026 174.6955,120.0916 C174.4135,120.3786 173.9875,120.8126 173.1005,121.1376 C172.8575,121.2276 172.6805,121.3276 172.4755,121.4446 C172.0915,121.6636 171.5745,121.9586 170.8365,121.9586" id="Fill-502" fill="#000"/><path d="M126.1665,0.7819 L114.7675,0.7819 C109.6135,0.7819 105.2275,4.4759 104.3115,9.5169 C104.3015,9.5799 104.2925,9.6409 104.2835,9.7039 L104.2775,9.7379 C104.2405,9.9829 104.2025,10.2339 104.1655,10.4829 C102.8385,19.2239 101.2005,29.9339 101.2005,29.9339 L136.6335,29.9339 L136.7055,22.1699 L136.8035,11.5179 C136.8585,5.6049 132.0805,0.7819 126.1665,0.7819" id="Fill-504" fill="#ef9e89"/><path d="M136.6334,29.9342 C122.7584,28.9582 118.9674,25.9842 119.1014,23.5072 C119.2204,21.2882 121.3054,21.5972 122.2164,21.6182 C126.2304,21.7082 136.7054,22.1692 136.7054,22.1692" id="Fill-506" fill="#000"/></g></g></g></g><g id="Head" transform="translate(204.000000, 145.000000) scale(1 1)"><g id="Head/Short Ponytail 1" stroke="none" stroke-width="1" fill="none" fill-rule="evenodd"><g id="Group-183" transform="translate(57.000000, 76.000000)"><g id="Group-161" transform="translate(0.000000, 0.738000)"><path d="M94.2797,44.2955 C93.6827,42.2245 88.8087,41.3715 85.6927,41.0355 C84.3067,35.0205 82.7897,29.5255 81.4197,26.9635 C78.7147,21.9055 70.4677,16.5915 57.2797,18.6325 C48.5217,19.9875 39.1967,28.1565 45.2537,42.3775 C45.2537,42.3775 46.9867,45.8245 46.1567,51.5095 C46.0657,52.1355 45.9357,53.0105 45.7797,54.0515 L45.7787,54.0595 C45.5147,55.8185 45.1747,58.0745 44.8007,60.5395 C44.7917,60.6025 44.7817,60.6625 44.7727,60.7265 L44.7677,60.7605 C44.7297,61.0055 44.6927,61.2555 44.6547,61.5045 C44.4247,64.0945 45.1317,72.5695 64.2087,72.6665 L77.1947,73.1915 L77.3927,73.1995 C77.3927,73.1995 81.7437,73.1505 84.3777,73.1505 C89.8517,73.1505 90.7917,67.9325 90.1777,64.0695 C89.9677,62.7555 89.3007,58.8095 88.3697,53.9145 C92.7387,51.6265 95.0477,46.9565 94.2797,44.2955" id="Fill-153" fill="#ef9e89"/><path d="M1.2299,13.5719 C-3.9881,33.7319 27.1749,41.1209 32.8029,20.7989 C38.7829,-0.7971 6.9299,-8.4471 1.2299,13.5719" id="Fill-155" fill="#150656"/><path d="M30.5057,31.6383 C35.2537,33.2823 37.6397,34.2323 39.1217,31.1743 C40.6047,28.1173 42.2717,24.5963 42.2717,24.5963 C42.2717,24.5963 43.9277,21.3193 40.2337,19.0383 C24.4407,9.2873 17.0947,26.9933 30.5057,31.6383" id="Fill-157" fill="#FF71DB"/><path d="M93.1752,26.3219 C101.4222,13.8669 91.8452,-1.1041 81.4052,0.3639 C72.0702,1.6759 71.9552,7.7089 71.8472,10.4179 C71.8472,10.4179 50.8882,6.6469 41.0912,20.3359 C33.3022,31.2179 31.9552,45.9739 45.1112,58.5899 L52.2802,54.0089 C53.7502,53.0699 53.8882,50.9779 52.5512,49.8579 C50.8202,48.4069 49.1602,46.1329 49.8592,42.9919 C50.9762,37.9779 55.9912,37.4649 59.5952,37.7839 C63.1212,38.0969 84.5292,39.3799 93.1752,26.3219" id="Fill-159" fill="#150656"/></g></g></g></g><g id="Expression" transform="translate(315.000000, 246.000000) scale(1 1)"><defs><path d="M0.611,4.152 C0.516,6.977 4.407,8.141 8.572,9.455 L8.572,9.455 C16.217,11.868 20.367,12.194 21.052,9.038 L21.052,9.038 C21.453,7.193 20.288,5.826 18.679,5.317 L18.679,5.317 C17.91,5.073 16.958,4.844 15.818,4.517 L15.818,4.517 C15.818,4.517 12.448,3.701 6.92,1.517 L6.92,1.517 C6.885,1.502 6.85,1.488 6.813,1.475 L6.813,1.475 C5.923,1.139 5.098,0.988999462 4.36,0.988999462 L4.36,0.988999462 C2.113,0.988 0.672,2.381 0.611,4.152 L0.611,4.152 Z" id="expressionblush-path-1"/></defs><g id="Expression/Blush" stroke="none" stroke-width="1" fill="none" fill-rule="evenodd"><g id="Group-77" transform="translate(10.400000, 12.300000)"><g id="Group-10" transform="translate(0.000000, 9.116900)"><path d="M18.6791,16.3166 C17.9101,16.0736 16.9581,15.8446 15.8181,15.5166 C15.8181,15.5166 12.4481,14.7006 6.9201,12.5166 C6.8841,12.5026 6.8501,12.4886 6.8141,12.4746 C3.2091,11.1156 0.6911,12.7996 0.6121,15.1516 C0.5161,17.9776 4.4071,19.1406 8.5721,20.4556 C16.2181,22.8686 20.3661,23.1936 21.0521,20.0386 C21.4531,18.1926 20.2881,16.8256 18.6791,16.3166" id="Fill-6" fill="#000"/><path d="M9.474,2.9729 C9.474,4.2309 7.719,5.2509 5.553,5.2509 C3.388,5.2509 1.632,4.2309 1.632,2.9729 C1.632,1.7149 3.388,0.6959 5.553,0.6959 C7.719,0.6959 9.474,1.7149 9.474,2.9729" id="Fill-8" fill="#FF71DB"/></g><g id="Group" transform="translate(0.000000, 0.687879)"><g id="Group-13" transform="translate(0.000000, 19.429021)"><mask id="expressionblush-mask-2" fill="#fff"><use xlink:href="#expressionblush-path-1"/></mask><g id="Clip-12"/><path d="M-0.9284,0.8088 C-0.9284,0.8088 5.0096,3.9688 8.2026,7.7758 C11.3966,11.5818 11.2856,13.4168 11.2856,13.4168 L-5.0004,10.1608 L-0.9284,0.8088 Z" id="Fill-11" fill="#FF71DB" mask="url(#expressionblush-mask-2)"/></g><path d="M12.1527,2.62162057 C12.4587,5.55762057 16.8827,5.20162057 16.9197,2.37762057 C16.9607,-0.815379426 11.7917,-0.849379426 12.1527,2.62162057" id="Fill-14" fill="#000"/></g></g></g></g><g id="Facial Hair" transform="translate(311.300000, 250.950000) scale(1 1)"><g id="Facial Hair/None" stroke="none" stroke-width="1" fill="none" fill-rule="evenodd" fill-opacity="0"/></g><g id="Accesories" transform="translate(311.300000, 250.950000) scale(1 1)"><g id="Accesories/None" stroke="none" stroke-width="1" fill="none" fill-rule="evenodd" fill-opacity="0"/></g></g></g></g></svg>