<svg viewBox="45.89999999999999 68.85000000000011 826.2000000000002 895.0499999999998" xmlns="http://www.w3.org/2000/svg" xmlns:xlink="http://www.w3.org/1999/xlink" overflow="visible" width="765.0000000000001px" height="828.7499999999999px"><rect id="Blush Background Color" fill="#222b52" x="45.89999999999999" y="68.85000000000011" width="826.2000000000002" height="895.0499999999998"/><defs><polygon id="masterspot-illustrationbrowsing-path-1" points="0.788923017 0.381 328.99029 0.381 328.99029 507 0.788923017 507"/><polygon id="masterspot-illustrationbrowsing-path-3" points="0 0.971969833 42.3311467 0.971969833 42.3311467 76.5646 0 76.5646"/></defs><g id="Master/Spot Illustration/Browsing" stroke="none" stroke-width="1" fill="none" fill-rule="evenodd"><path d="M442.110214,296.765039 L368.564333,140.330556 C366.027536,134.93677 357.989172,136.357907 357.456657,142.295645 L340.274063,333.763599 C340.002905,336.777389 337.479176,339.085511 334.453968,339.085511 L161.853756,339.085511 C155.95362,339.085511 153.771289,346.833156 158.804046,349.912286 L288.491059,429.263987 C291.552204,431.1376 292.225199,435.294833 289.897487,438.027663 C266.791888,465.179542 161.156259,589.543706 164.895299,589.543706 C168.529796,589.543706 302.222107,545.493368 338.03946,533.668531 C342.114997,532.322535 346.177466,535.690792 345.644951,539.949302 L322.712501,723.413152 C321.985602,729.225111 329.3085,732.372847 333.026305,727.844812 L456.584495,577.372569 C459.055953,574.362046 463.724444,574.567866 465.92311,577.782575 L560.699353,716.395677 C564.105162,721.374556 571.905037,718.555151 571.338219,712.547173 L552.984418,517.998457 C552.696926,514.94873 554.813918,512.194665 557.834226,511.686649 L723.877642,483.811134 C729.681402,482.837574 730.565116,474.86124 725.115821,472.639693 L576.433048,412.022494 C571.465631,409.996966 571.624078,402.909251 576.676437,401.109145 L755.116346,337.460188 C761.101423,335.325216 759.858344,326.520702 753.515534,326.127031 L561.921197,314.225419 C558.938459,314.040835 556.574811,311.63307 556.4474,308.643782 L547.94186,110.597762 C547.677236,104.436236 539.284407,102.833782 536.768845,108.467691 L452.732745,296.662129 C450.69416,301.226102 444.237007,301.289808 442.110214,296.765039" id="Fill-21" fill="#FFE2E9" opacity=".5"/><g id="Phone Screen" transform="translate(367.000000, 101.000000) scale(1 1)"><defs><polygon id="phone-screenstats-path-1" points="0.918723017 0.381 329.12009 0.381 329.12009 506.99952 0.918723017 506.99952"/></defs><g id="Phone Screen/Stats" stroke="none" stroke-width="1" fill="none" fill-rule="evenodd"><g id="Group-52" transform="translate(104.000000, 73.000000)"><g id="Group-3" transform="translate(20.000000, 0.619000)"><mask id="phone-screenstats-mask-2" fill="#fff"><use xlink:href="#phone-screenstats-path-1"/></mask><g id="Clip-2"/><path d="M82.0181,1.0599 C82.0181,1.0599 45.7711,-0.2701 42.1131,32.5399 C38.0061,69.3789 3.5391,419.6189 1.3221,457.3059 C-0.8959,494.9949 5.3121,506.5219 38.1221,506.9649 C70.9331,507.4099 250.9491,503.4179 250.9491,503.4179 C250.9491,503.4179 281.8751,503.0859 285.0891,476.3719 C289.2171,442.0669 325.4381,69.7859 328.5411,39.1919 C331.6451,8.5969 322.7781,1.8549 289.5241,0.7919 C256.2691,-0.2701 82.0181,1.0599 82.0181,1.0599" id="Fill-1" fill="#CBB1F4" mask="url(#phone-screenstats-mask-2)"/></g><path d="M188.9292,466.2941 L134.8912,466.2941 C134.8912,466.2941 120.4252,465.6291 119.5942,472.4461 C118.7622,479.2631 124.5822,482.0901 134.7252,482.2561 C144.8662,482.4221 188.9292,482.2561 188.9292,482.2561 C188.9292,482.2561 207.0522,482.7991 207.0522,474.9401 C207.0522,466.2161 188.9292,466.2941 188.9292,466.2941" id="Fill-4" fill="#8C72CB"/><polygon id="Fill-6" fill="#4D33A2" points="60.1177 443.8478 272.6117 445.8428 311.5187 37.8148 99.3577 37.8148"/><polygon id="Fill-8" fill="#8C72CB" points="133.5767 421.4562 134.2417 432.7632 256.6167 433.9822 256.6167 423.2292"/><path d="M200.6714,19.4142 C200.3174,26.9862 211.8844,27.1392 211.9784,19.6352 C212.0734,11.9902 201.0334,11.6892 200.6714,19.4142" id="Fill-10" fill="#8C72CB"/><polygon id="Fill-12" fill="#8C72CB" points="186.7837 256.1837 181.0187 314.1567 338.4227 314.1567 345.5157 259.7307"/><polygon id="Fill-14" fill="#EFD638" points="200.0854 285.1701 193.8774 340.8701 353.9404 343.9751 362.3644 287.6641"/><path d="M110.0776,88.1398 L52.8806,86.5878 C52.8806,86.5878 34.7016,85.8118 34.7016,97.6718 C34.7016,111.1348 54.2106,111.1348 54.2106,111.1348 L113.8466,111.8988 C113.8466,111.8988 132.0246,113.4118 132.0246,100.7408 C132.0246,87.0148 110.0776,88.1398 110.0776,88.1398" id="Fill-16" fill="#FEF864"/><polygon id="Fill-18" fill="#7D7AF9" points="99.5464 209.4064 135.7934 209.4064 143.4424 130.9274 107.8604 130.9274"/><polygon id="Fill-20" fill="#4947D9" points="151.7554 209.4064 189.0004 209.4064 192.3254 146.8884 157.0764 146.8884"/><polygon id="Fill-22" fill="#7D7AF9" points="201.6372 209.4064 237.8842 209.4064 245.5332 100.7404 209.6172 100.7404"/><polygon id="Fill-24" fill="#4947D9" points="248.5249 208.0763 285.1049 209.4063 295.4139 71.4013 259.1669 71.4013"/><polygon id="Fill-26" fill="#1514B9" points="174.4116 135.0265 160.7556 101.5665 139.2666 122.5095 132.9856 116.0645 164.0406 85.7975 176.9856 117.5145 228.6176 53.5735 232.8906 77.6545 268.9056 44.1635 275.0346 50.7535 226.9166 95.5005 223.2076 74.5985"/><polygon id="Fill-28" fill="#4947D9" points="211.3638 224.5363 200.8048 224.5363 199.9738 233.8483 210.7818 233.8483"/><polygon id="Fill-30" fill="#7D7AF9" points="257.7534 224.5363 247.1944 224.5363 246.3634 233.8483 257.1714 233.8483"/><polygon id="Fill-32" fill="#8C72CB" points="134.2417 404.9406 134.2417 414.2516 256.6167 416.6896 256.6167 407.1576"/><polygon id="Fill-34" fill="#8C72CB" points="189.4438 397.8459 256.6168 398.9539 256.6168 389.1999 189.4438 387.7589"/><polygon id="Fill-36" fill="#8C72CB" points="189.4438 380.6652 256.6168 382.1052 256.6168 372.2402 191.1068 371.2692"/><polygon id="Fill-38" fill="#8C72CB" points="191.2173 364.1486 257.1713 365.6226 257.1713 354.9486 191.8823 353.6186"/><path d="M121.1392,248.7648 C79.9672,211.6708 -3.5528,228.2888 0.1172,303.9358 C3.7752,379.3338 104.9012,386.8948 136.3142,337.3338 L69.7292,302.7398 L121.1392,248.7648 Z" id="Fill-40" fill="#FF71DB"/><path d="M145.5483,300.9152 C144.9253,289.5532 142.1173,279.3972 137.7093,270.5382 L69.7293,302.7392 L136.3143,337.3342 C142.7543,327.1732 146.3173,314.9412 145.5483,300.9152" id="Fill-42" fill="#AD0B84"/><path d="M137.7095,270.5382 C133.4915,262.0592 127.8065,254.7702 121.1395,248.7652 L69.7295,302.7392 L137.7095,270.5382 Z" id="Fill-44" fill="#FF00BF"/><path d="M137.7095,270.5382 L137.7155,270.5352 L137.7095,270.5382 Z" id="Fill-46" fill="#FF71DB"/><path d="M137.7095,270.5382 L137.7155,270.5352 L137.7095,270.5382 Z" id="Stroke-48" stroke="#FFF"/><path d="M99.5464,209.1427 C100.7484,209.1427 100.7484,207.6567 101.9494,207.6567 C103.1514,207.6567 103.1514,211.0917 104.3534,211.0917 C105.5554,211.0917 105.5554,208.5597 106.7574,208.5597 C107.9604,208.5597 107.9604,210.4027 109.1624,210.4027 C110.3654,210.4027 110.3654,211.0007 111.5694,211.0007 C112.7734,211.0007 112.7734,210.2817 113.9774,210.2817 C115.1824,210.2817 115.1824,209.9347 116.3874,209.9347 C117.5914,209.9347 117.5914,207.6387 118.7964,207.6387 C120.0004,207.6387 120.0004,207.6597 121.2034,207.6597 C122.4074,207.6597 122.4074,207.9227 123.6104,207.9227 C124.8134,207.9227 124.8134,208.4037 126.0164,208.4037 C127.2194,208.4037 127.2194,208.4567 128.4214,208.4567 C129.6234,208.4567 129.6234,209.6547 130.8254,209.6547 C132.0284,209.6547 132.0284,209.9877 133.2314,209.9877 C134.4334,209.9877 134.4334,208.3887 135.6354,208.3887 C136.8384,208.3887 136.8384,211.1157 138.0404,211.1157 C139.2434,211.1157 139.2434,209.0937 140.4464,209.0937 C141.6504,209.0937 141.6504,210.0327 142.8544,210.0327 C144.0584,210.0327 144.0584,211.1877 145.2624,211.1877 C146.4684,211.1877 146.4684,209.4007 147.6734,209.4007 C148.8784,209.4007 148.8784,210.1927 150.0824,210.1927 C151.2874,210.1927 151.2874,209.5867 152.4914,209.5867 C153.6944,209.5867 153.6944,209.8117 154.8994,209.8117 C156.1024,209.8117 156.1024,210.2927 157.3064,210.2927 C158.5094,210.2927 158.5094,210.5387 159.7124,210.5387 C160.9154,210.5387 160.9154,210.9087 162.1184,210.9087 C163.3224,210.9087 163.3224,210.7087 164.5254,210.7087 C165.7304,210.7087 165.7304,210.9307 166.9344,210.9307 C168.1394,210.9307 168.1394,208.5217 169.3444,208.5217 C170.5494,208.5217 170.5494,209.3397 171.7554,209.3397 C172.9604,209.3397 172.9604,209.9147 174.1654,209.9147 C175.3694,209.9147 175.3694,209.4787 176.5734,209.4787 C177.7774,209.4787 177.7774,208.0087 178.9824,208.0087 C180.1864,208.0087 180.1864,210.6947 181.3904,210.6947 C182.5944,210.6947 182.5944,208.8527 183.7984,208.8527 C185.0034,208.8527 185.0034,211.2467 186.2074,211.2467 C187.4134,211.2467 187.4134,208.1277 188.6184,208.1277 C189.8244,208.1277 189.8244,208.1217 191.0294,208.1217 C192.2344,208.1217 192.2344,208.4357 193.4404,208.4357 C194.6444,208.4357 194.6444,208.1687 195.8494,208.1687 C197.0534,208.1687 197.0534,208.6297 198.2584,208.6297 C199.4624,208.6297 199.4624,210.6627 200.6674,210.6627 C201.8734,210.6627 201.8734,211.0567 203.0794,211.0567 C204.2844,211.0567 204.2844,208.0477 205.4904,208.0477 C206.6954,208.0477 206.6954,211.2467 207.9004,211.2467 C209.1064,211.2467 209.1064,209.7267 210.3114,209.7267 C211.5164,209.7267 211.5164,209.9247 212.7214,209.9247 C213.9274,209.9247 213.9274,210.0197 215.1344,210.0197 C216.3394,210.0197 216.3394,210.4377 217.5444,210.4377 C218.7504,210.4377 218.7504,209.0797 219.9554,209.0797 C221.1604,209.0797 221.1604,210.1737 222.3664,210.1737 C223.5724,210.1737 223.5724,210.0617 224.7784,210.0617 C225.9844,210.0617 225.9844,209.5687 227.1904,209.5687 C228.3964,209.5687 228.3964,208.2977 229.6024,208.2977 C230.8084,208.2977 230.8084,209.2477 232.0144,209.2477 C233.2184,209.2477 233.2184,210.9487 234.4224,210.9487 C235.6254,210.9487 235.6254,207.7037 236.8284,207.7037 C238.0324,207.7037 238.0324,209.6047 239.2364,209.6047 C240.4424,209.6047 240.4424,210.6987 241.6494,210.6987 C242.8544,210.6987 242.8544,209.1327 244.0604,209.1327 C245.2654,209.1327 245.2654,207.8857 246.4694,207.8857 C247.6744,207.8857 247.6744,208.5537 248.8804,208.5537 C250.0874,208.5537 250.0874,210.0007 251.2934,210.0007 C252.4994,210.0007 252.4994,210.8897 253.7044,210.8897 C254.9114,210.8897 254.9114,210.6357 256.1184,210.6357 C257.3244,210.6357 257.3244,208.8037 258.5304,208.8037 C259.7374,208.8037 259.7374,207.9907 260.9454,207.9907 C262.1514,207.9907 262.1514,209.3817 263.3584,209.3817 C264.5664,209.3817 264.5664,210.1607 265.7734,210.1607 C266.9814,210.1607 266.9814,210.2887 268.1894,210.2887 C269.3944,210.2887 269.3944,209.0757 270.5994,209.0757 C271.8064,209.0757 271.8064,208.3867 273.0124,208.3867 C274.2204,208.3867 274.2204,208.9437 275.4294,208.9437 C276.6374,208.9437 276.6374,211.0417 277.8454,211.0417 C279.0544,211.0417 279.0544,207.8627 280.2624,207.8627 C281.4734,207.8627 281.4734,209.4987 282.6844,209.4987 C283.8944,209.4987 283.8944,208.8387 285.1054,208.8387" id="Stroke-50" stroke="#1514B9" stroke-width="3" stroke-linecap="round"/></g></g></g><g transform="translate(0.000000, 174.000000) scale(1 1)" id="Master/Character/Standing"><defs><polygon id="mastercharacterstanding-path-1" points="0.606828676 0.9535 32.904 0.9535 32.904 6.2565 0.606828676 6.2565"/><polygon id="mastercharacterstanding-path-3" points="0 0.0324 255.9499 0.0324 255.9499 196.950829 0 196.950829"/></defs><g id="Master/Character/Standing" stroke="none" stroke-width="1" fill="none" fill-rule="evenodd"><g id="Lower" transform="translate(14.000000, 442.000000) scale(1 1)"><g id="Lower/Running" stroke="none" stroke-width="1" fill="none" fill-rule="evenodd"><g id="Group-332" transform="translate(75.000000, -1.000000)"><g id="Group-231" transform="translate(0.000000, 0.142000)"><path d="M393.9674,247.3598 L268.9044,49.5398 L268.0294,25.9728 C268.0294,11.9318 256.6464,0.5488 242.6054,0.5488 L190.6694,0.5488 C176.6284,0.5488 165.2454,11.9318 165.2454,25.9728 L214.1934,102.3648 C212.4004,113.7768 210.0384,124.2688 206.9244,131.9428 C194.5094,162.5368 168.3494,155.4418 168.3494,155.4418 L91.1994,135.4898 L73.9564,195.8408 C72.2174,201.9278 75.7944,208.2568 81.9074,209.8978 C101.5024,215.1578 142.8054,225.8988 171.0094,230.8178 C206.7244,237.0468 245.9384,231.2168 268.2534,186.7358 L318.6574,265.4028 L387.7164,259.8338 C393.8214,259.3408 397.2274,252.5458 393.9674,247.3598" id="Fill-221" fill="#FECB72"/><path d="M318.6579,265.4027 L340.5479,303.5467 C341.8869,305.8787 344.3699,307.3157 347.0589,307.3157 L356.4859,307.3157 C358.5929,307.3157 360.1219,305.3127 359.5669,303.2807 L357.1219,294.3337 C357.1219,294.3337 355.0939,288.7107 358.7849,288.4587 C363.6619,288.1267 366.8709,295.7457 370.8019,301.4057 C373.3669,305.1007 377.5909,307.2847 382.0889,307.2277 C398.0619,307.0237 434.9739,306.4917 440.3679,305.8617 C448.9039,304.8637 456.8849,302.6467 457.3279,295.7747 C457.7709,288.9017 448.3489,287.6827 448.3489,287.6827 C448.3489,287.6827 402.3169,279.1037 385.5949,260.0047 L318.6579,265.4027 Z" id="Fill-223" fill="#000"/><path d="M91.1999,135.4896 L39.3359,121.7226 C36.2429,120.9016 33.0579,122.6906 32.1499,125.7596 L28.9889,136.4396 C28.1959,139.1176 29.3849,141.9836 31.8399,143.3146 L41.4299,148.5136 C41.4299,148.5136 45.9959,150.7596 44.4229,154.5006 C43.2289,157.3376 38.7689,156.3286 38.7689,156.3286 L29.7289,154.6016 C26.4629,153.9776 23.2559,155.9356 22.3169,159.1266 L1.5249,229.8206 C1.5249,229.8206 -2.3411,242.7976 7.6769,246.2816 C22.9739,251.6016 43.2589,206.0446 43.2589,206.0446 C43.2589,206.0446 50.5749,189.0846 74.8179,192.8276 L91.1999,135.4896 Z" id="Fill-225" fill="#000"/><path d="M272.2599,194.3051 C271.9309,194.3051 271.6089,194.1431 271.4169,193.8451 C271.0219,193.2281 270.8949,192.8291 270.7919,192.5101 C270.7089,192.2481 270.6429,192.0411 270.3889,191.6461 C270.1799,191.3191 270.0469,191.2331 269.8069,191.0761 C269.4979,190.8731 269.0759,190.5981 268.6359,189.9101 C268.2609,189.3261 268.1209,188.9771 267.9979,188.6701 C267.8949,188.4121 267.8059,188.1901 267.5329,187.7641 C267.1069,187.0991 267.0169,186.6461 266.9449,186.2811 C266.8889,186.0021 266.8559,185.8341 266.6339,185.4881 C266.3709,185.0781 266.2119,184.9231 266.0119,184.7261 C265.7679,184.4871 265.4899,184.2161 265.1059,183.6151 C264.7389,183.0421 264.5929,182.7071 264.4639,182.4111 C264.3509,182.1521 264.2529,181.9281 263.9739,181.4911 C263.7779,181.1861 263.6539,181.1121 263.4059,180.9631 C263.0769,180.7681 262.6269,180.5001 262.1769,179.7971 C261.7879,179.1921 261.6599,178.8221 261.5479,178.4951 C261.4559,178.2331 261.3849,178.0251 261.1249,177.6201 C260.7409,177.0211 260.6109,176.6581 260.4939,176.3361 C260.3989,176.0731 260.3229,175.8641 260.0599,175.4521 C259.6879,174.8711 259.5469,174.5281 259.4219,174.2231 C259.3169,173.9661 259.2259,173.7431 258.9509,173.3151 C258.7539,173.0081 258.6289,172.9331 258.3809,172.7841 C258.0539,172.5881 257.6049,172.3201 257.1549,171.6171 C256.8549,171.1491 256.6839,170.9291 256.5129,170.7081 C256.3159,170.4531 256.1169,170.1981 255.7699,169.6571 C255.3909,169.0641 255.2549,168.7081 255.1359,168.3951 C255.0339,168.1291 254.9539,167.9191 254.6869,167.5001 C254.4479,167.1281 254.2949,167.0021 254.0839,166.8271 C253.8139,166.6051 253.4779,166.3271 253.0699,165.6921 C252.6639,165.0601 252.5489,164.6451 252.4559,164.3111 C252.3809,164.0441 252.3269,163.8521 252.0849,163.4731 C251.7259,162.9121 251.5749,162.5901 251.4419,162.3051 C251.3199,162.0431 251.2139,161.8181 250.9269,161.3691 C250.7089,161.0301 250.5709,160.9311 250.3409,160.7691 C250.0349,160.5531 249.6549,160.2841 249.2269,159.6161 C248.8459,159.0221 248.7119,158.6631 248.5939,158.3481 C248.4939,158.0831 248.4159,157.8731 248.1509,157.4581 C247.7219,156.7901 247.6359,156.3311 247.5679,155.9631 C247.5149,155.6871 247.4839,155.5191 247.2659,155.1791 C246.9439,154.6761 246.7809,154.4271 246.6169,154.1771 C246.4529,153.9261 246.2879,153.6741 245.9649,153.1691 C245.7059,152.7661 245.5479,152.6141 245.3479,152.4211 C245.1009,152.1831 244.8209,151.9121 244.4339,151.3101 L243.1439,149.2941 C242.7429,148.6681 242.6229,148.2601 242.5269,147.9321 C242.4479,147.6641 242.3919,147.4701 242.1459,147.0861 C241.9359,146.7591 241.7959,146.6661 241.5669,146.5121 C241.2629,146.3101 240.8489,146.0341 240.4119,145.3541 C240.1719,144.9781 240.0199,144.8501 239.8089,144.6731 C239.5429,144.4511 239.2129,144.1731 238.8089,143.5411 C238.4679,143.0101 238.3159,142.7351 238.1619,142.4571 C238.0259,142.2101 237.8889,141.9631 237.5849,141.4891 C237.1809,140.8581 237.0649,140.4441 236.9719,140.1111 C236.8979,139.8441 236.8439,139.6511 236.6019,139.2731 C236.2689,138.7541 236.1109,138.4921 235.9509,138.2281 C235.8009,137.9791 235.6509,137.7281 235.3369,137.2391 C235.0249,136.7511 234.8599,136.5111 234.6959,136.2721 C234.5209,136.0161 234.3469,135.7631 234.0129,135.2421 C233.7689,134.8601 233.6159,134.7291 233.4059,134.5461 C233.1459,134.3231 232.8219,134.0431 232.4199,133.4151 C231.9779,132.7261 231.9079,132.2221 231.8589,131.8541 C231.8209,131.5731 231.7989,131.4181 231.5949,131.1001 C231.1989,130.4821 231.0749,130.0811 230.9759,129.7591 C230.8919,129.4911 230.8309,129.2961 230.5809,128.9061 C230.4499,128.7011 230.3659,128.6741 230.0549,128.5721 C229.6269,128.4321 228.9819,128.2211 228.4659,127.4161 C228.0679,126.7941 227.9469,126.3901 227.8489,126.0651 C227.7679,125.7961 227.7089,125.6031 227.4609,125.2151 C227.1049,124.6591 226.9509,124.3411 226.8169,124.0601 C226.6909,123.7971 226.5819,123.5711 226.2919,123.1181 C225.9829,122.6361 225.8159,122.4041 225.6479,122.1711 C225.4649,121.9181 225.2809,121.6631 224.9449,121.1381 C224.7139,120.7781 224.5689,120.6641 224.3479,120.4921 C224.0659,120.2721 223.7139,119.9971 223.2989,119.3501 C222.8239,118.6101 222.8119,118.0421 222.8019,117.6291 C222.7949,117.3311 222.7919,117.2081 222.6209,116.9411 C222.4339,116.6491 222.3089,116.5791 222.0599,116.4411 C221.7169,116.2501 221.2459,115.9891 220.7869,115.2731 C220.3549,114.5971 220.2719,114.1111 220.2109,113.7551 C220.1639,113.4801 220.1359,113.3141 219.9219,112.9811 C219.5189,112.3501 219.4039,111.9351 219.3109,111.6011 C219.2369,111.3341 219.1839,111.1421 218.9419,110.7651 C218.7319,110.4371 218.5919,110.3431 218.3619,110.1901 C218.0599,109.9881 217.6459,109.7101 217.2099,109.0311 C216.9589,108.6391 216.8079,108.5021 216.5989,108.3131 C216.3499,108.0871 216.0399,107.8071 215.6459,107.1921 C215.2199,106.5281 215.1309,106.0751 215.0599,105.7101 C215.0049,105.4331 214.9719,105.2661 214.7519,104.9221 C214.5279,104.5721 214.3809,104.4631 214.1609,104.2981 C213.8679,104.0791 213.5039,103.8071 213.0829,103.1511 C212.7849,102.6861 212.9199,102.0671 213.3859,101.7691 C213.8489,101.4691 214.4689,101.6061 214.7669,102.0721 C214.9909,102.4221 215.1379,102.5311 215.3579,102.6961 C215.6509,102.9141 216.0149,103.1871 216.4359,103.8431 C216.8619,104.5071 216.9499,104.9601 217.0219,105.3251 C217.0759,105.6021 217.1099,105.7691 217.3289,106.1131 C217.5799,106.5041 217.7319,106.6411 217.9409,106.8301 C218.1899,107.0561 218.4989,107.3361 218.8939,107.9511 C219.1039,108.2801 219.2429,108.3731 219.4739,108.5271 C219.7759,108.7291 220.1899,109.0061 220.6249,109.6861 C221.0299,110.3171 221.1449,110.7321 221.2379,111.0661 C221.3119,111.3321 221.3639,111.5251 221.6069,111.9021 C222.0389,112.5771 222.1219,113.0641 222.1829,113.4191 C222.2299,113.6951 222.2579,113.8611 222.4719,114.1941 C222.6579,114.4861 222.7829,114.5551 223.0319,114.6941 C223.3749,114.8841 223.8459,115.1461 224.3049,115.8621 C224.7799,116.6021 224.7919,117.1691 224.8019,117.5821 C224.8089,117.8801 224.8119,118.0031 224.9829,118.2711 C225.2129,118.6301 225.3589,118.7441 225.5789,118.9161 C225.8619,119.1371 226.2129,119.4111 226.6279,120.0591 C226.9359,120.5381 227.1029,120.7701 227.2699,121.0011 C227.4539,121.2561 227.6379,121.5101 227.9759,122.0391 C228.3319,122.5951 228.4859,122.9131 228.6199,123.1951 C228.7459,123.4571 228.8549,123.6841 229.1449,124.1361 C229.5439,124.7581 229.6649,125.1631 229.7639,125.4891 C229.8439,125.7571 229.9029,125.9511 230.1509,126.3381 C230.2809,126.5411 230.3639,126.5691 230.6769,126.6711 C231.1039,126.8111 231.7499,127.0221 232.2649,127.8261 C232.6609,128.4451 232.7849,128.8451 232.8859,129.1671 C232.9689,129.4371 233.0299,129.6311 233.2789,130.0211 C233.7209,130.7101 233.7899,131.2141 233.8399,131.5821 C233.8779,131.8641 233.8999,132.0181 234.1039,132.3361 C234.3489,132.7191 234.5009,132.8501 234.7119,133.0331 C234.9719,133.2561 235.2949,133.5351 235.6969,134.1621 C236.0149,134.6591 236.1799,134.8991 236.3459,135.1411 C236.5179,135.3931 236.6919,135.6461 237.0209,136.1591 C237.3489,136.6721 237.5069,136.9351 237.6639,137.1951 C237.8169,137.4481 237.9679,137.6981 238.2849,138.1941 C238.6899,138.8251 238.8059,139.2401 238.8989,139.5731 C238.9729,139.8391 239.0269,140.0321 239.2689,140.4091 C239.6079,140.9391 239.7599,141.2141 239.9119,141.4901 C240.0499,141.7381 240.1869,141.9861 240.4919,142.4621 C240.7329,142.8371 240.8849,142.9651 241.0949,143.1421 C241.3609,143.3661 241.6919,143.6431 242.0959,144.2751 C242.3059,144.6021 242.4459,144.6951 242.6759,144.8481 C242.9789,145.0501 243.3939,145.3271 243.8289,146.0071 C244.2299,146.6331 244.3499,147.0411 244.4469,147.3691 C244.5249,147.6371 244.5809,147.8311 244.8269,148.2151 L246.1169,150.2311 C246.3769,150.6351 246.5349,150.7871 246.7349,150.9801 C246.9829,151.2181 247.2629,151.4881 247.6489,152.0901 C247.9669,152.5871 248.1299,152.8351 248.2909,153.0821 C248.4569,153.3361 248.6219,153.5891 248.9489,154.1001 C249.3779,154.7681 249.4639,155.2261 249.5319,155.5951 C249.5849,155.8711 249.6159,156.0381 249.8339,156.3791 C250.2149,156.9731 250.3489,157.3311 250.4669,157.6471 C250.5669,157.9111 250.6449,158.1211 250.9099,158.5361 C251.1279,158.8761 251.2669,158.9741 251.4959,159.1361 C251.8019,159.3531 252.1829,159.6221 252.6109,160.2901 C252.9699,160.8511 253.1199,161.1731 253.2539,161.4581 C253.3759,161.7201 253.4819,161.9461 253.7689,162.3941 C254.1739,163.0261 254.2889,163.4411 254.3819,163.7751 C254.4569,164.0411 254.5109,164.2341 254.7529,164.6131 C254.9909,164.9851 255.1449,165.1111 255.3559,165.2841 C255.6259,165.5071 255.9629,165.7841 256.3709,166.4221 C256.7499,167.0141 256.8859,167.3691 257.0049,167.6841 C257.1069,167.9501 257.1869,168.1591 257.4529,168.5771 C257.7529,169.0431 257.9229,169.2631 258.0939,169.4841 C258.2919,169.7401 258.4899,169.9941 258.8379,170.5371 C259.0349,170.8451 259.1599,170.9191 259.4079,171.0691 C259.7359,171.2641 260.1849,171.5331 260.6349,172.2361 C261.0079,172.8181 261.1489,173.1611 261.2739,173.4661 C261.3789,173.7231 261.4699,173.9461 261.7439,174.3741 C262.1279,174.9731 262.2589,175.3361 262.3749,175.6571 C262.4709,175.9211 262.5459,176.1301 262.8099,176.5411 C263.1969,177.1471 263.3249,177.5161 263.4379,177.8411 C263.5289,178.1051 263.6009,178.3121 263.8609,178.7181 C264.0569,179.0231 264.1809,179.0971 264.4289,179.2451 C264.7569,179.4411 265.2069,179.7081 265.6569,180.4111 C266.0239,180.9841 266.1689,181.3181 266.2979,181.6141 C266.4099,181.8731 266.5079,182.0971 266.7889,182.5351 C267.0519,182.9461 267.2099,183.1011 267.4109,183.2971 C267.6559,183.5361 267.9319,183.8081 268.3179,184.4091 C268.7429,185.0741 268.8329,185.5271 268.9059,185.8911 C268.9609,186.1701 268.9939,186.3381 269.2169,186.6851 C269.5919,187.2711 269.7319,187.6181 269.8549,187.9261 C269.9579,188.1831 270.0469,188.4061 270.3199,188.8321 C270.5289,189.1581 270.6609,189.2441 270.9019,189.4021 C271.2099,189.6031 271.6329,189.8791 272.0729,190.5671 C272.4679,191.1831 272.5949,191.5811 272.6969,191.9021 C272.7809,192.1631 272.8469,192.3691 273.1009,192.7651 C273.3989,193.2311 273.2639,193.8491 272.7989,194.1471 C272.6319,194.2541 272.4449,194.3051 272.2599,194.3051" id="Fill-227" fill="#000"/><path d="M302.6398,103.557 C302.3068,103.557 301.9818,103.392 301.7918,103.089 C301.3388,102.368 301.2988,101.831 301.2688,101.44 C301.2468,101.151 301.2368,101.005 301.0468,100.704 C300.7458,100.226 300.5768,99.998 300.4078,99.771 C300.2148,99.511 300.0228,99.252 299.6798,98.707 C299.3198,98.134 299.1728,97.802 299.0438,97.509 C298.9268,97.245 298.8268,97.017 298.5438,96.567 C298.3338,96.234 298.1948,96.138 297.9618,95.981 C297.6578,95.776 297.2418,95.494 296.8078,94.805 C296.3688,94.105 296.3048,93.596 296.2578,93.224 C296.2218,92.94 296.2028,92.784 295.9988,92.459 C295.7828,92.116 295.6428,92.015 295.4108,91.85 C295.1028,91.63 294.7188,91.356 294.2928,90.677 C293.9138,90.075 293.7838,89.711 293.6668,89.392 C293.5708,89.123 293.4938,88.911 293.2288,88.49 C292.8598,87.902 292.7198,87.555 292.5968,87.248 C292.4928,86.988 292.4028,86.762 292.1278,86.328 C291.9588,86.057 291.8468,86.002 291.5768,85.87 C291.1978,85.686 290.6798,85.434 290.2058,84.68 C289.8278,84.08 289.6968,83.719 289.5788,83.401 C289.4818,83.132 289.4038,82.919 289.1378,82.497 C288.7128,81.821 288.6298,81.359 288.5638,80.988 C288.5128,80.707 288.4828,80.537 288.2638,80.19 C288.0558,79.859 287.9158,79.765 287.6848,79.61 C287.3788,79.405 286.9598,79.123 286.5268,78.434 C286.2428,77.981 286.0798,77.788 285.8938,77.567 C285.6888,77.324 285.4568,77.047 285.0988,76.478 C284.6458,75.756 284.6048,75.22 284.5748,74.828 C284.5528,74.538 284.5418,74.393 284.3518,74.091 C284.0898,73.675 283.9328,73.517 283.7328,73.317 C283.4908,73.075 283.2148,72.799 282.8338,72.194 C282.5098,71.678 282.3508,71.418 282.1918,71.16 C282.0358,70.905 281.8788,70.65 281.5608,70.144 C281.3068,69.74 281.1478,69.588 280.9468,69.397 C280.7038,69.167 280.4038,68.882 280.0148,68.264 C279.5838,67.578 279.5058,67.085 279.4498,66.725 C279.4068,66.447 279.3798,66.279 279.1668,65.941 C278.8718,65.471 278.7018,65.251 278.5298,65.032 C278.3278,64.772 278.1258,64.513 277.7778,63.958 C277.4968,63.512 277.3348,63.326 277.1468,63.109 C276.9358,62.865 276.6968,62.589 276.3338,62.013 C276.1098,61.655 275.9618,61.543 275.7408,61.374 C275.4468,61.152 275.0808,60.874 274.6618,60.209 C274.3288,59.679 274.1748,59.405 274.0208,59.132 C273.8768,58.877 273.7348,58.624 273.4228,58.13 C272.9328,57.349 272.9668,56.714 272.9898,56.294 C273.0058,55.979 273.0118,55.872 272.8588,55.629 C272.5548,55.146 272.3868,54.914 272.2178,54.684 C272.0298,54.425 271.8398,54.165 271.4998,53.624 C271.1628,53.089 271.0098,52.812 270.8568,52.536 C270.7168,52.283 270.5768,52.03 270.2698,51.541 C269.9678,51.061 269.7988,50.831 269.6288,50.603 C269.4378,50.343 269.2468,50.084 268.9048,49.539 C268.6188,49.084 268.4568,48.891 268.2698,48.666 C268.0668,48.423 267.8358,48.147 267.4788,47.578 C267.2888,47.276 267.1618,47.202 266.9108,47.057 C266.5698,46.861 266.1028,46.591 265.6488,45.869 C265.2998,45.313 265.1448,44.998 265.0088,44.721 C264.8858,44.471 264.7628,44.221 264.4678,43.752 C264.0518,43.091 263.9558,42.647 263.8798,42.29 C263.8208,42.016 263.7818,41.834 263.5538,41.472 C263.2218,40.945 263.0648,40.677 262.9068,40.409 C262.7578,40.156 262.6088,39.901 262.2958,39.404 C262.0598,39.028 261.9058,38.901 261.6918,38.724 C261.4168,38.497 261.0758,38.215 260.6668,37.567 C260.3908,37.126 260.2268,36.944 260.0368,36.733 C259.8178,36.489 259.5688,36.212 259.2008,35.627 C258.7698,34.941 258.6908,34.449 258.6328,34.089 C258.5888,33.809 258.5618,33.64 258.3478,33.3 C258.0308,32.796 257.8668,32.548 257.7018,32.3 C257.5308,32.042 257.3588,31.785 257.0298,31.262 C256.6868,30.715 256.5358,30.429 256.3848,30.143 C256.2518,29.891 256.1188,29.638 255.8168,29.157 C255.5228,28.689 255.663031,28.072 256.1308,27.778 C256.5998,27.483 257.2158,27.6238322 257.5098,28.093 C257.8528,28.639 258.0038,28.925 258.1548,29.21 C258.2868,29.463 258.4198,29.715 258.7228,30.198 C259.0378,30.699 259.2028,30.947 259.3678,31.194 C259.5388,31.452 259.7098,31.71 260.0408,32.236 C260.4718,32.922 260.5508,33.414 260.6088,33.774 C260.6538,34.053 260.6798,34.222 260.8938,34.563 C261.1698,35.002 261.3338,35.184 261.5238,35.395 C261.7438,35.639 261.9928,35.916 262.3608,36.502 C262.5968,36.878 262.7508,37.005 262.9648,37.182 C263.2398,37.409 263.5808,37.691 263.9898,38.34 C264.3178,38.862 264.4738,39.129 264.6298,39.395 C264.7818,39.651 264.9308,39.905 265.2468,40.408 C265.6618,41.069 265.7578,41.512 265.8338,41.869 C265.8938,42.143 265.9328,42.325 266.1608,42.687 C266.5118,43.245 266.6608,43.547 266.8038,43.839 C266.9258,44.088 267.0488,44.337 267.3418,44.805 C267.5318,45.107 267.6588,45.18 267.9108,45.325 C268.2508,45.522 268.7178,45.791 269.1718,46.514 C269.4578,46.968 269.6188,47.161 269.8068,47.386 C270.0098,47.63 270.2408,47.907 270.5978,48.475 C270.9008,48.956 271.0698,49.186 271.2388,49.415 C271.4298,49.674 271.6208,49.933 271.9628,50.476 C272.2998,51.012 272.4528,51.289 272.6068,51.566 C272.7458,51.819 272.8868,52.072 273.1938,52.56 C273.4968,53.043 273.6648,53.275 273.8338,53.505 C274.0228,53.764 274.2118,54.024 274.5518,54.565 C275.0418,55.345 275.0088,55.98 274.9868,56.401 C274.9698,56.707 274.9638,56.823 275.1168,57.066 C275.4528,57.599 275.6078,57.873 275.7628,58.149 C275.9058,58.401 276.0478,58.655 276.3558,59.145 C276.5798,59.501 276.7268,59.613 276.9498,59.782 C277.2438,60.004 277.6098,60.283 278.0278,60.949 C278.3078,61.395 278.4698,61.581 278.6588,61.798 C278.8688,62.042 279.1088,62.318 279.4708,62.894 C279.7658,63.364 279.9368,63.583 280.1088,63.803 C280.3098,64.063 280.5118,64.322 280.8608,64.876 C281.2908,65.562 281.3688,66.055 281.4258,66.415 C281.4688,66.694 281.4948,66.862 281.7078,67.2 C281.9618,67.604 282.1208,67.755 282.3228,67.947 C282.5648,68.176 282.8658,68.461 283.2538,69.079 C283.5778,69.594 283.7378,69.854 283.8968,70.114 C284.0528,70.369 284.2088,70.622 284.5278,71.129 C284.7888,71.545 284.9468,71.703 285.1468,71.903 C285.3888,72.146 285.6638,72.42 286.0448,73.027 C286.4978,73.748 286.5388,74.285 286.5698,74.676 C286.5908,74.966 286.6018,75.111 286.7918,75.413 C287.0768,75.866 287.2378,76.057 287.4238,76.28 C287.6288,76.523 287.8618,76.799 288.2198,77.37 C288.4278,77.7 288.5678,77.793 288.7988,77.95 C289.1048,78.155 289.5238,78.435 289.9568,79.125 C290.3818,79.802 290.4648,80.263 290.5318,80.634 C290.5818,80.915 290.6128,81.085 290.8308,81.433 C291.2088,82.034 291.3408,82.395 291.4578,82.713 C291.5558,82.982 291.6338,83.194 291.8998,83.616 C292.0688,83.886 292.1808,83.941 292.4518,84.073 C292.8298,84.257 293.3478,84.509 293.8218,85.263 C294.1918,85.85 294.3298,86.198 294.4528,86.504 C294.5578,86.765 294.6488,86.991 294.9218,87.425 C295.3008,88.029 295.4318,88.391 295.5478,88.711 C295.6448,88.98 295.7218,89.192 295.9868,89.613 C296.2028,89.957 296.3428,90.057 296.5748,90.223 C296.8818,90.443 297.2658,90.717 297.6928,91.395 C298.1318,92.094 298.1958,92.604 298.2428,92.975 C298.2788,93.26 298.2978,93.416 298.5008,93.74 C298.7108,94.073 298.8508,94.167 299.0828,94.326 C299.3868,94.531 299.8038,94.813 300.2378,95.502 C300.5978,96.077 300.7438,96.409 300.8728,96.702 C300.9908,96.965 301.0908,97.194 301.3728,97.644 C301.6738,98.121 301.8428,98.349 302.0128,98.577 C302.2048,98.836 302.3978,99.095 302.7408,99.64 C303.1938,100.361 303.2338,100.898 303.2638,101.289 C303.2858,101.578 303.2958,101.724 303.4858,102.026 C303.7798,102.493 303.6388,103.111 303.1708,103.404 C303.0048,103.508 302.8218,103.557 302.6398,103.557" id="Fill-229" fill="#000"/></g></g></g></g><g id="Upper" transform="translate(-1.000000, 0.000000) scale(1 1)"><defs><path d="M64.794,0.198 L47.115,0.235 C39.998,0.25 33.129,2.86 27.822,7.601 L27.822,7.601 C19.12,15.377 8.18,30.236 9.507,56.232 L9.507,56.232 C10.151,68.865 10.626,79.349 16.743,104.865 L16.743,104.865 C17.329,107.307 17.157,109.872 16.24,112.211 L16.24,112.211 L0.993,158.72 C0.993,158.72 -1.634,164.806 3.935,164.806 L3.935,164.806 L74.519,164.806 L74.519,177.365 C74.519,178.509 75.447,179.437 76.591,179.437 L76.591,179.437 L136.205,179.437 C136.205,179.437 137.701,178.939 137.868,175.447 L137.868,175.447 C138.033,171.955 137.868,61.386 137.868,61.386 L137.868,61.386 C137.868,61.386 136.723,26.059 135.539,18.986 L135.539,18.986 C133.833,8.787 123.734,0.251 115.752,0.198 L115.752,0.198 C113.092,0.18 106.542,0.174 98.994,0.174 L98.994,0.174 C83.895,0.174 64.794,0.198 64.794,0.198" id="upperholding-phone-path-1"/></defs><g id="Upper/Holding Phone" stroke="none" stroke-width="1" fill="none" fill-rule="evenodd"><g id="Group-691" transform="translate(248.500000, 272.500000)"><g id="Group-174" transform="translate(0.000000, 13.095000)"><path d="M131.1129,151.8766 L167.4779,120.9226 C168.3619,119.9196 168.8489,118.6296 168.8489,117.2926 L168.8489,51.3386 L131.1129,80.0486 L131.1129,151.8766 Z" id="Fill-150" fill="#FD2118"/><path d="M64.794,17.1979 L47.115,17.2349 C39.998,17.2499 33.129,19.8599 27.822,24.6009 C19.12,32.3769 8.179,47.2359 9.507,73.2309 C10.152,85.8649 10.626,96.3489 16.743,121.8649 C17.329,124.3059 17.157,126.8729 16.24,129.2109 L0.993,175.7199 C0.993,175.7199 -1.634,181.8049 3.936,181.8049 L74.519,181.8049 L74.519,194.3649 C74.519,195.5099 75.447,196.4369 76.591,196.4369 L136.205,196.4369 C136.205,196.4369 137.701,195.9389 137.868,192.4469 C138.034,188.9559 137.868,78.3859 137.868,78.3859 C137.868,78.3859 136.723,43.0589 135.54,35.9859 C133.833,25.7869 123.734,17.2519 115.753,17.1979 C107.771,17.1439 64.794,17.1979 64.794,17.1979" id="Fill-152" fill="#FE5C4F"/><path d="M227.1548,41.3073 C227.1548,41.3073 222.9978,39.9773 216.8458,52.4473 C216.8458,52.4473 222.1668,30.1663 213.1878,26.5093 C213.1878,26.5093 213.1358,26.4933 213.0478,26.4683 C211.5668,41.1733 209.8628,59.4303 209.8628,59.4303 C209.8628,59.4303 208.9478,64.9173 202.1308,64.6263 C196.6388,64.3923 184.9638,63.6283 184.9638,63.6283 L183.0928,63.5043 L178.1048,63.1713 L179.8398,29.2123 C172.7418,31.1103 168.8488,51.3383 168.8488,51.3383 L168.8488,117.2923 C168.8488,117.2923 208.5328,91.3543 216.8458,81.0453 C225.1598,70.7373 230.9788,58.5993 231.8108,50.1203 C232.6418,41.6393 227.1548,41.3073 227.1548,41.3073" id="Fill-154" fill="#ef9e89"/><path d="M183.0933,63.5045 C183.0933,63.5045 190.9073,32.4365 182.4283,29.3355 C181.5223,29.0045 180.6603,28.9925 179.8403,29.2125 L178.1053,63.1715 L183.0933,63.5045 Z" id="Fill-156" fill="#ef9e89"/><path d="M209.1978,0.235 C209.1978,0.235 199.8878,0.242 189.9098,0.238 C181.3198,0.235 181.4298,6.39 181.4298,6.39 L179.8558,28.899 L179.8398,29.213 C180.6608,28.993 181.5218,29.005 182.4278,29.336 C190.9078,32.436 183.0938,63.505 183.0938,63.505 L184.9638,63.629 C184.9638,63.629 196.6388,64.392 202.1308,64.627 C208.9478,64.918 209.8628,59.43 209.8628,59.43 C209.8628,59.43 211.5668,41.173 213.0478,26.468 C213.7808,19.184 214.4608,12.772 214.8508,9.881 C216.2368,-0.371 209.1978,0.235 209.1978,0.235" id="Fill-158" fill="#7FBCCE"/><path d="M84.2452,196.4371 L77.3452,196.4371 C77.3452,196.4371 74.1862,209.7391 83.1642,221.7101 C83.1642,221.7101 89.2332,227.6961 89.9812,232.8511 C90.7302,238.0051 90.2312,254.7151 91.7272,260.7011 C93.2242,266.6871 96.3832,272.2561 102.4522,268.5991 C102.4522,268.5991 103.0342,271.8411 107.2742,271.5911 C111.5142,271.3421 113.6752,268.2661 113.6752,268.2661 C113.6752,268.2661 113.9252,271.7581 118.4972,272.2561 C123.0692,272.7551 125.8962,267.1021 125.8962,267.1021 C125.8962,267.1021 126.5612,270.5941 131.0502,270.3441 C135.5392,270.0951 137.3692,265.7721 138.9482,261.7821 C140.5282,257.7911 142.1902,240.4161 141.3592,229.3591 C141.3592,229.3591 145.9322,241.4971 153.8292,240.9151 C161.7272,240.3331 155.8252,226.4491 155.8252,226.4491 C155.8252,226.4491 149.5062,203.3371 136.2042,196.4371 L84.2452,196.4371 Z" id="Fill-160" fill="#ef9e89"/><path d="M193.0137,4.2838 L208.8657,4.5058 C208.8657,4.5058 211.9127,4.7268 211.6367,8.2198 C211.3587,11.7108 208.2557,45.4088 208.2557,45.4088 C208.2557,45.4088 208.0337,47.5138 206.3707,47.6258 C204.7087,47.7358 204.4867,45.2978 204.4867,45.2978 C204.4867,45.2978 202.7687,38.2038 203.4337,31.9958 C204.0987,25.7888 203.4337,22.4078 199.5537,19.3588 C195.6747,16.3108 192.5707,11.9318 190.9637,9.0508 C189.3557,6.1688 190.1867,4.2448 193.0137,4.2838" id="Fill-162" fill="#D5E1D5"/><path d="M190.9908,56.9362 C190.7388,60.5242 196.2418,60.4192 196.0618,57.1022 C195.8838,53.8002 191.2018,53.9292 190.9908,56.9362" id="Fill-164" fill="#000"/><path d="M193.525,78.4723 C193.021,78.4723 192.529,78.2183 192.246,77.7563 C188.985,72.4463 182.04,64.5763 181.97,64.4983 L181.452,63.9113 L181.635,63.1513 C187.109,40.5443 183.783,32.8533 183.749,32.7783 C183.408,32.0303 183.728,31.1393 184.471,30.7893 C185.212,30.4413 186.097,30.7433 186.456,31.4843 C186.616,31.8133 190.269,39.7443 184.733,63.1003 C186.442,65.0663 191.899,71.4583 194.802,76.1873 C195.236,76.8933 195.015,77.8173 194.309,78.2503 C194.064,78.4013 193.794,78.4723 193.525,78.4723" id="Fill-166" fill="#000"/><path d="M102.4517,270.0992 C102.2597,270.0992 102.0637,270.0622 101.8757,269.9832 C101.1117,269.6652 100.7497,268.7872 101.0667,268.0232 C101.1317,267.8672 107.5207,252.1392 104.6237,230.8922 C104.5117,230.0712 105.0867,229.3152 105.9067,229.2032 C106.7337,229.0902 107.4837,229.6652 107.5967,230.4872 C110.6097,252.5832 104.1137,268.5082 103.8367,269.1762 C103.5967,269.7512 103.0387,270.0992 102.4517,270.0992" id="Fill-168" fill="#430000"/><path d="M113.6754,269.7662 C113.4804,269.7662 113.2814,269.7282 113.0904,269.6472 C112.3284,269.3252 111.9724,268.4442 112.2944,267.6812 C112.3624,267.5202 119.0694,251.3072 115.8904,229.7442 C115.7704,228.9242 116.3364,228.1622 117.1554,228.0412 C117.9734,227.9142 118.7374,228.4862 118.8594,229.3062 C122.1664,251.7462 115.3484,268.1642 115.0564,268.8522 C114.8144,269.4232 114.2594,269.7662 113.6754,269.7662" id="Fill-170" fill="#430000"/><path d="M125.898,268.6022 C125.793,268.6022 125.687,268.5912 125.581,268.5692 C124.77,268.3942 124.255,267.5962 124.429,266.7872 C124.47,266.5952 128.521,247.4952 127.061,229.6472 C126.994,228.8222 127.608,228.0982 128.434,228.0302 C129.247,227.9572 129.983,228.5782 130.051,229.4032 C131.548,247.7032 127.405,267.2232 127.363,267.4182 C127.21,268.1222 126.589,268.6022 125.898,268.6022" id="Fill-172" fill="#430000"/></g><g id="Group-177" transform="translate(0.000000, 30.095000)"><mask id="upperholding-phone-mask-2" fill="#fff"><use xlink:href="#upperholding-phone-path-1"/></mask><g id="Clip-176"/><path d="M81.7198,73.1471 C80.1648,78.9961 79.1888,85.0261 78.7908,91.2091 C70.0918,88.5601 62.4948,84.5851 56.0328,79.2821 C63.7408,76.7981 72.2908,74.6771 81.7198,73.1471 M159.8098,119.0751 L160.5968,110.1091 C129.8728,107.4121 106.9678,112.1401 90.0218,119.7801 C89.2528,116.0641 88.6318,112.2511 88.1908,108.3251 C87.9708,106.3711 87.8138,104.4361 87.7088,102.5171 C94.0498,103.5991 100.7918,104.1611 107.9598,104.1611 C119.1208,104.1611 131.2788,102.8471 144.4058,100.2151 L142.6358,91.3911 C121.4388,95.6401 103.0768,96.2861 87.6498,93.3681 C87.9698,85.8931 89.2148,78.7091 91.3748,71.8311 C107.3158,70.0571 125.5118,69.9691 146.1308,72.5021 L147.2288,63.5701 C127.8318,61.1861 110.4568,61.0491 94.9818,62.4361 C99.6158,52.2961 106.4048,42.8921 115.3488,34.2811 C131.4468,18.7801 148.8288,11.7661 149.0028,11.6971 L145.6918,3.3291 C144.9248,3.6311 126.7138,10.9381 109.3438,27.5691 C98.1538,38.2821 89.9498,50.4071 84.8378,63.5931 C71.2288,65.4881 59.2518,68.5661 48.8138,72.2531 C43.3308,65.9501 39.3538,58.7901 36.4858,51.5071 C55.3518,39.1331 77.9118,19.8731 92.1448,-7.4789 L84.1598,-11.6329 C71.4028,12.8831 51.0118,30.7061 33.4808,42.5301 C31.4578,35.3011 30.3628,28.2581 29.7998,22.1371 C28.1698,4.4051 30.4918,-9.7779 30.5158,-9.9179 L21.6408,-11.4149 C21.5368,-10.7989 19.1168,3.8661 20.8148,22.7061 C21.6158,31.6091 23.2358,39.9251 25.5988,47.5851 C11.1208,56.4031 0.1388,60.6261 -0.1122,60.7201 L1.4708,64.9321 L3.0508,69.1461 C4.0788,68.7601 14.6898,64.6941 28.7408,56.3421 C31.7348,63.5461 35.4988,70.0131 39.9738,75.6621 C15.4888,85.9251 0.9918,99.0801 -4.9962,105.3831 C-5.1532,105.5491 -5.2692,105.6721 -5.3452,105.7481 C-5.1942,105.5971 -4.6302,105.0841 -3.7212,104.7811 L-0.8762,113.3191 C0.2298,112.9511 0.8028,112.3461 1.5298,111.5821 C7.3428,105.4621 21.7268,92.4701 46.3868,82.7341 C55.1608,91.1331 65.9328,97.0571 78.6228,100.5171 C78.7068,103.4261 78.9138,106.3651 79.2468,109.3311 C79.8268,114.4901 80.6768,119.3671 81.7388,123.9881 C72.3758,129.3271 65.2278,135.5021 59.8558,141.4101 C58.5108,142.8891 57.2588,144.3751 56.0788,145.8571 C54.0408,144.2761 51.8498,142.7641 49.4958,141.3371 C25.7548,126.9521 -8.7142,123.6731 -27.0292,128.8861 L-24.5662,137.5431 C-8.0632,132.8451 23.1628,135.9031 44.8308,149.0351 C47.0058,150.3531 49.0068,151.7301 50.8408,153.1611 C41.6818,167.4041 39.4878,179.6961 39.3768,180.3451 L48.2478,181.8651 C48.2718,181.7301 50.1298,171.5621 57.5118,159.4851 C61.2518,163.8641 63.6828,168.6471 64.7508,173.8081 L73.5638,171.9861 C72.0538,164.6861 68.3768,157.9141 62.7588,151.9171 C64.0098,150.3181 65.3608,148.7151 66.8238,147.1261 C71.9248,141.5821 77.6998,136.8341 84.1348,132.8851 C92.0528,158.2521 106.6618,174.6601 118.8768,184.5671 C135.8508,198.3351 151.6998,202.7721 152.3658,202.9551 L154.7468,194.2751 C154.5988,194.2341 139.7778,190.0311 124.2468,177.3341 C108.6388,164.5731 97.9078,148.2101 92.1828,128.5321 C110.3498,119.8981 132.9688,116.7171 159.8098,119.0751" id="Fill-175" fill="#7FBCCE" mask="url(#upperholding-phone-mask-2)"/></g><g id="Group-184" transform="translate(55.000000, 0.095000)"><path d="M18.8736,196.3063 C18.0456,196.3063 17.3736,195.6343 17.3736,194.8063 C17.3736,193.8833 17.6166,193.3463 17.7766,192.9903 C17.8826,192.7553 17.9146,192.6853 17.9146,192.4093 C17.9146,192.0953 17.8766,191.9973 17.7826,191.7623 C17.6396,191.3973 17.4416,190.8983 17.4416,190.0133 L17.4326,187.6193 C17.4326,186.8833 17.5076,186.4763 17.5676,186.1493 C17.6176,185.8803 17.6536,185.6863 17.6536,185.2263 C17.6536,184.8733 17.6126,184.7513 17.5306,184.5083 C17.4126,184.1583 17.2506,183.6773 17.2506,182.8323 C17.2506,182.0193 17.3876,181.5543 17.4856,181.2143 C17.5606,180.9613 17.6016,180.8233 17.6016,180.4393 C17.6016,179.5733 17.7816,179.0823 17.9146,178.7233 C18.0026,178.4853 18.0426,178.3763 18.0426,178.0453 C18.0426,177.4613 18.0366,177.1693 18.0306,176.8773 C18.0246,176.5713 18.0196,176.2643 18.0196,175.6513 C18.0196,175.0353 18.0256,174.7273 18.0326,174.4193 C18.0386,174.1283 18.0456,173.8363 18.0456,173.2543 C18.0456,173.0323 18.0256,172.9953 17.9016,172.7643 C17.7036,172.3933 17.4026,171.8323 17.4026,170.8563 C17.4026,169.8193 17.7906,169.2123 18.0216,168.8503 C18.1686,168.6203 18.1686,168.6203 18.1686,168.4593 C18.1686,168.2903 18.1656,168.2853 18.0216,168.0563 C17.7976,167.6963 17.4206,167.0923 17.4206,166.0643 C17.4206,165.0393 17.7916,164.4383 18.0136,164.0783 C18.1566,163.8463 18.1596,163.8423 18.1596,163.6683 C18.1596,163.4083 18.1306,163.3463 18.0196,163.1153 C17.8496,162.7543 17.5916,162.2103 17.5916,161.2743 C17.5916,160.3883 17.7896,159.8883 17.9356,159.5233 C18.0306,159.2823 18.0666,159.1913 18.0666,158.8793 C18.0666,158.4263 18.0296,158.2353 17.9776,157.9703 C17.9126,157.6403 17.8316,157.2283 17.8316,156.4833 C17.8316,155.8263 17.8566,155.4973 17.8826,155.1683 C17.9036,154.8983 17.9246,154.6273 17.9246,154.0853 C17.9246,153.6223 17.8886,153.4283 17.8386,153.1583 C17.7786,152.8303 17.7036,152.4243 17.7036,151.6883 C17.7036,150.8843 17.8256,150.4443 17.9246,150.0893 C17.9936,149.8383 18.0356,149.6863 18.0356,149.2913 C18.0356,148.9743 17.9976,148.8763 17.9046,148.6383 C17.7626,148.2753 17.5676,147.7773 17.5676,146.8953 C17.5676,146.1603 17.6426,145.7533 17.7026,145.4273 C17.7516,145.1573 17.7876,144.9623 17.7876,144.4993 C17.7876,143.7243 17.8906,143.2963 17.9726,142.9523 C18.0326,142.6953 18.0736,142.5253 18.0736,142.1033 C18.0736,141.5723 18.0496,141.3063 18.0246,141.0403 C17.9936,140.7063 17.9636,140.3723 17.9636,139.7043 C17.9636,139.4083 17.9296,139.3273 17.8286,139.0873 C17.6336,138.6243 17.4586,138.1403 17.4586,137.3063 C17.4586,136.7363 17.4476,136.4513 17.4366,136.1653 C17.4246,135.8523 17.4126,135.5373 17.4126,134.9103 C17.4126,134.0403 17.5966,133.5483 17.7296,133.1883 C17.8206,132.9443 17.8586,132.8423 17.8586,132.5133 C17.8586,131.7803 17.9326,131.3743 17.9906,131.0493 C18.0396,130.7783 18.0746,130.5813 18.0746,130.1163 C18.0746,129.5023 18.0806,129.1963 18.0856,128.8893 C18.0916,128.5963 18.0966,128.3033 18.0966,127.7163 L18.0906,125.3193 C18.0906,124.7343 18.0846,124.4423 18.0786,124.1503 C18.0726,123.8423 18.0666,123.5353 18.0666,122.9213 C18.0666,122.6813 18.0426,122.6333 17.9256,122.4023 C17.7386,122.0353 17.4576,121.4823 17.4576,120.5243 C17.4576,119.6633 17.6326,119.1743 17.7606,118.8183 C17.8476,118.5753 17.8876,118.4633 17.8876,118.1243 C17.8876,117.5903 17.8636,117.3233 17.8406,117.0563 C17.8116,116.7233 17.7826,116.3913 17.7826,115.7273 C17.7826,114.9613 17.8776,114.5393 17.9536,114.2003 C18.0126,113.9363 18.0516,113.7623 18.0516,113.3283 C18.0516,113.0713 18.0236,113.0153 17.9106,112.7803 C17.7366,112.4183 17.4746,111.8713 17.4746,110.9303 C17.4746,109.9593 17.7696,109.4013 17.9646,109.0323 C18.0856,108.8033 18.1066,108.7623 18.1066,108.5353 C18.1066,108.1993 18.0666,108.0883 17.9796,107.8473 C17.8516,107.4913 17.6756,107.0023 17.6756,106.1413 C17.6756,105.6893 17.6376,105.4983 17.5856,105.2353 C17.5196,104.9043 17.4386,104.4923 17.4386,103.7463 C17.4386,103.0193 17.5086,102.6163 17.5636,102.2923 C17.6096,102.0283 17.6456,101.8203 17.6456,101.3483 C17.6456,100.7183 17.6586,100.4033 17.6716,100.0883 C17.6836,99.8033 17.6946,99.5193 17.6946,98.9513 C17.6946,98.4453 17.6656,98.2103 17.6316,97.9393 C17.5906,97.6153 17.5446,97.2463 17.5446,96.5543 C17.5446,95.6983 17.7166,95.2113 17.8426,94.8563 C17.9296,94.6113 17.9686,94.4983 17.9686,94.1573 C17.9686,93.4683 18.0116,93.1043 18.0486,92.7823 C18.0806,92.5063 18.1086,92.2693 18.1086,91.7563 C18.1086,91.2273 18.0836,90.9633 18.0596,90.6993 C18.0266,90.3643 17.9956,90.0293 17.9956,89.3593 C17.9956,88.8703 17.9636,88.6543 17.9226,88.3803 C17.8726,88.0473 17.8156,87.6703 17.8156,86.9583 C17.8156,86.7273 17.7946,86.6853 17.6736,86.4533 C17.4796,86.0843 17.1886,85.5273 17.1886,84.5593 C17.1886,83.9363 17.1986,83.6243 17.2076,83.3133 C17.2166,83.0243 17.2256,82.7353 17.2256,82.1583 C17.2256,81.0373 17.7226,80.4073 18.0196,80.0303 C18.0746,79.9583 18.1506,79.8623 18.1666,79.8293 C18.1706,79.4743 18.1386,79.4023 18.0326,79.1623 C17.8766,78.8093 17.6406,78.2733 17.6406,77.3573 C17.6406,76.8313 17.6136,76.5703 17.5866,76.3073 C17.5546,75.9903 17.5186,75.6313 17.5186,74.9543 C17.5186,74.3923 17.5046,74.1113 17.4896,73.8293 C17.4746,73.5123 17.4586,73.1943 17.4586,72.5573 C17.4586,71.9303 17.4706,71.6163 17.4816,71.3023 C17.4916,71.0163 17.5026,70.7303 17.5026,70.1573 C17.5026,69.3533 17.6246,68.9113 17.7226,68.5573 C17.7916,68.3043 17.8336,68.1523 17.8336,67.7543 C17.8336,67.3013 17.7956,67.1103 17.7426,66.8453 C17.6766,66.5133 17.5946,66.0993 17.5946,65.3513 C17.5946,64.4503 17.8066,63.9423 17.9606,63.5723 C18.0586,63.3353 18.0956,63.2473 18.0956,62.9473 C18.0956,62.7933 18.0956,62.7933 17.9456,62.5663 C17.7066,62.2013 17.3056,61.5893 17.3056,60.5393 C17.3056,59.5243 17.6486,58.9483 17.8766,58.5663 C18.0156,58.3333 18.0236,58.3203 18.0236,58.1313 C18.0236,57.3023 18.6956,56.6313 19.5236,56.6313 C20.3526,56.6313 21.0236,57.3023 21.0236,58.1313 C21.0236,59.1473 20.6806,59.7233 20.4526,60.1043 C20.3136,60.3373 20.3056,60.3513 20.3056,60.5393 C20.3056,60.6933 20.3056,60.6933 20.4546,60.9193 C20.6936,61.2853 21.0956,61.8973 21.0956,62.9473 C21.0956,63.8483 20.8836,64.3553 20.7286,64.7263 C20.6316,64.9613 20.5946,65.0493 20.5946,65.3513 C20.5946,65.8043 20.6326,65.9943 20.6856,66.2593 C20.7516,66.5923 20.8336,67.0053 20.8336,67.7543 C20.8336,68.5573 20.7116,68.9993 20.6136,69.3543 C20.5446,69.6073 20.5026,69.7593 20.5026,70.1573 C20.5026,70.7853 20.4906,71.0983 20.4786,71.4113 C20.4696,71.6993 20.4586,71.9853 20.4586,72.5573 C20.4586,73.1193 20.4726,73.4003 20.4866,73.6813 C20.5026,73.9993 20.5186,74.3183 20.5186,74.9543 C20.5186,75.4793 20.5446,75.7423 20.5716,76.0033 C20.6036,76.3213 20.6406,76.6803 20.6406,77.3573 C20.6406,77.6403 20.6726,77.7123 20.7766,77.9513 C20.9346,78.3053 21.1706,78.8403 21.1706,79.7573 C21.1706,80.8773 20.6736,81.5093 20.3756,81.8863 C20.3206,81.9563 20.2446,82.0533 20.2286,82.0863 C20.2256,82.7813 20.2156,83.0923 20.2066,83.4033 C20.1976,83.6923 20.1886,83.9813 20.1886,84.5593 C20.1886,84.7903 20.2106,84.8323 20.3316,85.0643 C20.5246,85.4333 20.8156,85.9903 20.8156,86.9583 C20.8156,87.4473 20.8486,87.6623 20.8896,87.9363 C20.9386,88.2693 20.9956,88.6473 20.9956,89.3593 C20.9956,89.8873 21.0206,90.1523 21.0456,90.4163 C21.0776,90.7513 21.1086,91.0863 21.1086,91.7563 C21.1086,92.4443 21.0656,92.8093 21.0286,93.1313 C20.9966,93.4063 20.9686,93.6443 20.9686,94.1573 C20.9686,95.0133 20.7966,95.5003 20.6706,95.8563 C20.5836,96.1013 20.5446,96.2123 20.5446,96.5543 C20.5446,97.0593 20.5736,97.2933 20.6076,97.5653 C20.6486,97.8903 20.6946,98.2573 20.6946,98.9513 C20.6946,99.5803 20.6826,99.8953 20.6696,100.2103 C20.6576,100.4943 20.6456,100.7793 20.6456,101.3483 C20.6456,102.0773 20.5766,102.4793 20.5206,102.8033 C20.4756,103.0673 20.4386,103.2763 20.4386,103.7463 C20.4386,104.1993 20.4776,104.3893 20.5286,104.6543 C20.5946,104.9853 20.6756,105.3963 20.6756,106.1413 C20.6756,106.4773 20.7156,106.5873 20.8026,106.8293 C20.9316,107.1863 21.1066,107.6743 21.1066,108.5353 C21.1066,109.5053 20.8116,110.0643 20.6166,110.4333 C20.4926,110.6673 20.4746,110.7033 20.4746,110.9303 C20.4746,111.1873 20.5016,111.2433 20.6146,111.4793 C20.7886,111.8403 21.0516,112.3863 21.0516,113.3283 C21.0516,114.0943 20.9566,114.5163 20.8806,114.8553 C20.8216,115.1183 20.7826,115.2933 20.7826,115.7273 C20.7826,116.2613 20.8066,116.5283 20.8296,116.7953 C20.8576,117.1273 20.8876,117.4603 20.8876,118.1243 C20.8876,118.9853 20.7126,119.4733 20.5846,119.8293 C20.4976,120.0733 20.4576,120.1843 20.4576,120.5243 C20.4576,120.7643 20.4816,120.8123 20.5996,121.0423 C20.7856,121.4093 21.0666,121.9623 21.0666,122.9213 C21.0666,123.5063 21.0726,123.7983 21.0786,124.0913 C21.0846,124.3983 21.0906,124.7043 21.0906,125.3193 L21.0966,127.7163 C21.0966,128.3293 21.0906,128.6363 21.0856,128.9433 C21.0796,129.2373 21.0746,129.5303 21.0746,130.1163 C21.0746,130.8493 21.0016,131.2543 20.9426,131.5803 C20.8946,131.8523 20.8586,132.0483 20.8586,132.5133 C20.8586,133.3833 20.6756,133.8753 20.5416,134.2353 C20.4506,134.4803 20.4126,134.5813 20.4126,134.9103 C20.4126,135.4803 20.4236,135.7653 20.4346,136.0503 C20.4466,136.3653 20.4586,136.6783 20.4586,137.3063 C20.4586,137.6033 20.4926,137.6843 20.5936,137.9233 C20.7886,138.3863 20.9636,138.8713 20.9636,139.7043 C20.9636,140.2353 20.9876,140.5003 21.0126,140.7663 C21.0436,141.1003 21.0736,141.4343 21.0736,142.1033 C21.0736,142.8783 20.9716,143.3063 20.8906,143.6493 C20.8286,143.9073 20.7876,144.0773 20.7876,144.4993 C20.7876,145.2353 20.7136,145.6413 20.6526,145.9683 C20.6036,146.2383 20.5676,146.4333 20.5676,146.8953 C20.5676,147.2113 20.6056,147.3103 20.6986,147.5473 C20.8416,147.9113 21.0356,148.4103 21.0356,149.2913 C21.0356,150.0943 20.9136,150.5353 20.8146,150.8903 C20.7456,151.1413 20.7036,151.2923 20.7036,151.6883 C20.7036,152.1503 20.7396,152.3453 20.7896,152.6153 C20.8496,152.9423 20.9246,153.3493 20.9246,154.0853 C20.9246,154.7433 20.8986,155.0723 20.8736,155.4003 C20.8526,155.6713 20.8316,155.9423 20.8316,156.4833 C20.8316,156.9363 20.8686,157.1273 20.9216,157.3923 C20.9856,157.7233 21.0666,158.1343 21.0666,158.8793 C21.0666,159.7653 20.8686,160.2653 20.7236,160.6303 C20.6276,160.8723 20.5916,160.9623 20.5916,161.2743 C20.5916,161.5353 20.6206,161.5973 20.7306,161.8283 C20.9016,162.1883 21.1596,162.7323 21.1596,163.6683 C21.1596,164.6933 20.7886,165.2953 20.5656,165.6553 C20.4236,165.8863 20.4206,165.8913 20.4206,166.0643 C20.4206,166.2333 20.4236,166.2373 20.5666,166.4673 C20.7916,166.8273 21.1686,167.4303 21.1686,168.4593 C21.1686,169.4963 20.7806,170.1033 20.5496,170.4653 C20.4026,170.6963 20.4026,170.6963 20.4026,170.8563 C20.4026,171.0793 20.4226,171.1153 20.5466,171.3473 C20.7446,171.7173 21.0456,172.2783 21.0456,173.2543 C21.0456,173.8693 21.0386,174.1773 21.0316,174.4863 C21.0256,174.7773 21.0196,175.0683 21.0196,175.6513 C21.0196,176.2353 21.0246,176.5273 21.0306,176.8193 C21.0366,177.1253 21.0426,177.4323 21.0426,178.0453 C21.0426,178.9113 20.8616,179.4033 20.7286,179.7613 C20.6416,179.9993 20.6016,180.1093 20.6016,180.4393 C20.6016,181.2523 20.4646,181.7183 20.3656,182.0583 C20.2916,182.3103 20.2506,182.4503 20.2506,182.8323 C20.2506,183.1853 20.2916,183.3073 20.3736,183.5503 C20.4916,183.9013 20.6536,184.3813 20.6536,185.2263 C20.6536,185.9623 20.5786,186.3683 20.5186,186.6963 C20.4686,186.9643 20.4326,187.1593 20.4326,187.6193 L20.4416,190.0133 C20.4416,190.3273 20.4796,190.4243 20.5736,190.6603 C20.7176,191.0253 20.9146,191.5253 20.9146,192.4093 C20.9146,193.3303 20.6716,193.8683 20.5116,194.2243 C20.4056,194.4583 20.3736,194.5303 20.3736,194.8063 C20.3736,195.6343 19.7016,196.3063 18.8736,196.3063" id="Fill-178" fill="#000"/><path d="M25.605,0.9342 L14.206,0.9342 C9.052,0.9342 4.666,4.6282 3.75,9.6692 C3.74,9.7322 3.731,9.7932 3.721,9.8562 L3.716,9.8902 C3.679,10.1352 3.641,10.3862 3.604,10.6352 C2.277,19.3762 0.639,30.0862 0.639,30.0862 L36.072,30.0862 L36.144,22.3222 L36.242,11.6702 C36.297,5.7572 31.519,0.9342 25.605,0.9342" id="Fill-180" fill="#ef9e89"/><path d="M36.0718,30.0865 C22.1968,29.1105 18.4058,26.1365 18.5398,23.6595 C18.6588,21.4405 20.7438,21.7495 21.6548,21.7705 C25.6688,21.8605 36.1438,22.3215 36.1438,22.3215" id="Fill-182" fill="#000"/></g></g></g></g><g id="Head" transform="translate(204.000000, 145.000000) scale(1 1)"><g id="Head/Hat" stroke="none" stroke-width="1" fill="none" fill-rule="evenodd"><g id="Group-183" transform="translate(87.000000, 77.000000)"><g id="Group-13" transform="translate(0.000000, 0.738000)"><path d="M15.8334,53.0514 C15.8334,53.0544 15.8324,53.0564 15.8324,53.0594 L15.8334,53.0514 Z" id="Fill-1" fill="#ef9e89"/><path d="M62.9301,41.1676 C61.3891,38.1196 56.8201,38.7496 55.4921,38.9466 C54.1771,33.3646 52.7601,28.3696 51.4731,25.9636 C48.7691,20.9056 40.5221,15.5916 27.3331,17.6326 C18.5761,18.9876 9.2501,27.1566 15.3071,41.3776 C15.3071,41.3776 17.0401,44.8246 16.2101,50.5096 C16.1191,51.1356 15.9891,52.0106 15.8331,53.0516 L15.8321,53.0596 C15.5691,54.8186 15.2281,57.0746 14.8551,59.5396 C14.8451,59.6026 14.8361,59.6626 14.8261,59.7266 L14.8211,59.7606 C14.7841,60.0056 14.7461,60.2556 14.7081,60.5046 C14.4791,63.0946 15.1851,71.5696 34.2631,71.6666 L47.2481,72.1916 L47.4461,72.1996 C47.4461,72.1996 51.7981,72.1506 54.4311,72.1506 C59.9061,72.1506 60.8461,66.9326 60.2311,63.0696 C59.9791,61.4816 59.0561,56.0546 57.8101,49.7506 C63.9221,47.7976 64.1571,43.5926 62.9301,41.1676" id="Fill-3" fill="#ef9e89"/><path d="M11.9735,25.2038 C11.9735,25.2038 6.5095,39.1608 13.6855,48.1808 C13.6855,48.1808 13.8495,48.7068 13.3235,49.5958 C12.7965,50.4838 11.1505,52.8538 15.1335,53.0188 C19.1175,53.1828 26.0625,53.2828 26.0625,53.2828 C26.0625,53.2828 28.2355,53.3488 28.4325,52.0638 C28.6305,50.7808 27.5435,50.4838 26.5895,50.4188 C25.6345,50.3528 22.8365,49.1018 22.9685,45.4808 C23.0995,41.8598 25.3855,40.2468 28.4555,40.0498 L30.9015,39.9508 C30.9015,39.9508 35.2465,33.7628 36.0695,28.8248 C36.0695,28.8248 30.9345,22.2408 11.9735,25.2038" id="Fill-5" fill="#ff0048"/><path d="M5.9808,29.8122 L60.4568,29.8122 C60.4568,29.8122 65.3428,29.9252 65.3428,25.9012 C65.3428,21.3672 61.0828,21.2532 61.0828,21.2532 L52.1258,21.0272 C52.1258,21.0272 51.5618,9.1252 51.4368,7.1412 C51.3118,5.1582 50.0588,1.6432 47.7408,2.2102 C45.4228,2.7772 38.7828,8.6712 36.2148,10.8812 C36.2148,10.8812 35.0868,12.2982 33.8978,10.8812 C32.7078,9.4642 28.4478,4.2502 22.6218,1.1902 C22.6218,1.1902 19.1768,-0.4538 18.1118,3.4002 C17.0468,7.2542 15.6688,15.4162 15.4188,20.6302 L6.3978,20.7442 C6.3978,20.7442 1.9558,21.0682 1.0118,23.6912 C-0.4502,27.7522 2.4108,29.8122 5.9808,29.8122" id="Fill-7" fill="#E0B40C"/><polygon id="Fill-9" fill="#D5E1D5" points="20.1791 20.6491 52.1251 21.0271 51.8901 16.1131 25.2741 16.1131 15.8151 16.1131 15.4181 20.6301"/><path d="M55.4911,47.028 C55.6541,48.809 58.8161,48.309 58.5531,46.534 C58.2441,44.457 55.3001,44.939 55.4911,47.028" id="Fill-11" fill="#000"/></g></g></g></g><g id="Expression" transform="translate(315.000000, 246.000000) scale(1 1)"><g id="Expression/Surprisedd" stroke="none" stroke-width="1" fill="none" fill-rule="evenodd"><g id="Group-77" transform="translate(20.400000, 11.300000)"><g id="Group-29" transform="translate(0.000000, 0.116900)"><path d="M2.725,4.1232 C2.956,6.3522 6.315,6.0812 6.343,3.9372 C6.374,1.5152 2.451,1.4882 2.725,4.1232" id="Fill-23" fill="#000"/><path d="M4.4872,0.133 C3.3802,0.133 2.3422,0.579 1.6402,1.359 C0.9392,2.137 0.6172,3.193 0.7362,4.33 C0.9402,6.299 2.4782,7.675 4.4742,7.675 C6.6172,7.675 8.3162,6.044 8.3422,3.963 C8.3562,2.931 7.9822,1.976 7.2892,1.274 C6.5732,0.549 5.5522,0.133 4.4872,0.133 M4.4872,2.133 C5.4162,2.133 6.3582,2.745 6.3432,3.938 C6.3282,5.066 5.3922,5.675 4.4742,5.675 C3.6472,5.675 2.8352,5.179 2.7252,4.123 C2.5852,2.785 3.5292,2.133 4.4872,2.133" id="Fill-25" fill="#FFF"/><path d="M15.8003,24.8291785 C15.8003,28.1427865 14.4572387,30.8288 12.8003,30.8288 C11.1433613,30.8288 9.8003,28.1427865 9.8003,24.8291785 C9.8003,21.5148135 11.1433613,18.8288 12.8003,18.8288 C14.4572387,18.8288 15.8003,21.5148135 15.8003,24.8291785" id="Fill-27" fill="#000" transform="translate(12.800300, 24.828800) scale(-1, 1) translate(-12.800300, -24.828800)"/></g></g></g></g><g id="Facial Hair" transform="translate(311.300000, 250.950000) scale(1 1)"><g id="Facial Hair/Goatee" stroke="none" stroke-width="1" fill="none" fill-rule="evenodd"><g id="Group-88" transform="translate(29.000000, 35.000000)" fill="#ff0048"><g id="Group-19" transform="translate(0.000000, 0.609100)"><path d="M10.7659,0.2528 C8.2989,-0.5592 2.1629,1.9208 1.8259,2.1178 C0.5239,2.8798 -0.1971,4.8978 0.7489,6.2238 C2.2089,8.2678 4.0689,10.5238 6.3539,11.6978 C9.1229,13.1198 12.4169,11.8558 13.1629,8.8058 C13.9039,5.7808 12.7309,0.8998 10.7659,0.2528" id="Fill-17"/></g></g><path d="M38.5349,23.9635 C37.8499,23.5455 37.0209,23.5485 36.2469,23.4855 C35.3379,23.4135 34.4299,23.3205 33.5249,23.2105 C31.2419,22.9305 26.5319,21.8465 26.4119,21.8075 C26.1839,21.7335 25.9559,21.6575 25.7289,21.5795 C25.5989,21.5335 25.4689,21.4875 25.3399,21.4395 C25.2649,21.4115 25.1139,21.3845 25.0529,21.3275 C25.2519,21.4135 25.2769,21.4235 25.1269,21.3595 C25.0639,21.3305 25.0019,21.3025 24.9399,21.2735 C24.8479,21.2305 24.7559,21.1845 24.6659,21.1375 C24.4539,21.0255 24.2579,20.8955 24.0549,20.7695 C24.0329,20.7525 24.0389,20.7585 24.0259,20.7485 C24.0049,20.7315 23.9839,20.7145 23.9639,20.6965 C23.8949,20.6365 23.8269,20.5725 23.7629,20.5075 C23.7239,20.4685 23.6069,20.2985 23.5419,20.2505 L23.5319,20.2345 C23.4649,20.1325 23.4029,20.0255 23.3469,19.9165 C23.3459,19.8485 23.2549,19.6445 23.2429,19.5925 C23.2389,19.5765 23.2369,19.5605 23.2329,19.5435 C23.2319,19.4615 23.2309,19.3775 23.2299,19.2945 C23.2309,19.2875 23.2319,19.2865 23.2339,19.2775 C23.2479,19.2185 23.2739,19.1555 23.2949,19.0945 C23.3109,19.0655 23.3269,19.0365 23.3449,19.0085 C23.3539,18.9935 23.3559,18.9885 23.3619,18.9775 C23.4179,18.9215 23.4739,18.8655 23.5299,18.8085 C23.5359,18.8045 23.5409,18.8005 23.5479,18.7965 C23.5869,18.7715 23.7409,18.7065 23.7549,18.6925 C23.7799,18.6865 23.8009,18.6795 23.8099,18.6775 C23.8229,18.6745 23.8349,18.6725 23.8469,18.6695 L24.0639,18.6695 C24.0769,18.6735 24.0819,18.6755 24.0989,18.6805 C24.1599,18.6945 24.2319,18.7265 24.3009,18.7485 C24.3299,18.7655 24.3599,18.7815 24.3889,18.7995 C24.4049,18.8095 24.4109,18.8125 24.4229,18.8175 C24.4999,18.8955 24.5769,18.9695 24.6479,19.0535 C25.1559,19.6545 26.2519,19.6155 26.7689,19.0535 C27.3569,18.4125 27.3109,17.5735 26.7689,16.9325 C26.0699,16.1045 24.8819,15.5975 23.7989,15.6685 C22.5719,15.7505 21.5139,16.3705 20.8239,17.3875 C20.1979,18.3095 20.0719,19.5575 20.4109,20.6085 C20.6049,21.2045 23.3809,29.5785 37.8779,28.2985 C38.5489,28.2385 39.3829,27.5245 39.5019,26.2575 C39.5819,25.4095 39.4089,24.4955 38.5349,23.9635" id="Fill-37" fill="#ff0048"/></g></g><g id="Accesories" transform="translate(311.300000, 250.950000) scale(1 1)"><g id="Accesories/Shades" stroke="none" stroke-width="1" fill="none" fill-rule="evenodd"><g id="Group-88" transform="translate(3.000000, 4.000000)"><g id="Group-68" transform="translate(0.000000, 0.609100)"><path d="M35.4573,0.4647 L11.9853,1.0267 L1.8143,1.0267 C0.9853,1.0267 0.3143,1.6977 0.3143,2.5267 C0.3143,3.3547 0.9853,4.0267 1.8143,4.0267 L11.3063,4.0267 L24.9973,12.4327 C25.5673,12.7817 26.3013,12.7047 26.7853,12.2447 L36.5083,3.0087 C37.4873,2.0787 36.8073,0.4327 35.4573,0.4647" id="Fill-64" fill="#000"/><path d="M22.5808,8.6747 C22.1588,8.6747 21.9328,8.4907 21.7228,8.2467 C21.5258,8.0177 21.1618,7.4017 21.8648,6.4987 C21.5298,6.4727 21.2538,6.3657 21.0548,6.1047 C20.7198,5.6647 20.8048,5.0377 21.2438,4.7027 C24.6038,2.1447 25.4388,2.4767 25.7958,2.6197 C26.1608,2.7657 26.4258,3.0787 26.5058,3.4587 C26.5998,3.9077 26.4478,4.3457 26.0228,4.9247 C26.3948,4.6997 26.8078,4.4467 27.2628,4.1617 C30.0648,2.4017 31.2778,1.7857 31.9928,2.7847 C32.2368,3.1277 32.9808,4.1677 28.3408,7.9267 C27.9118,8.2727 27.2808,8.2067 26.9348,7.7787 C26.7058,7.4957 26.6558,7.1267 26.7708,6.8087 C24.4088,8.2137 23.2488,8.6747 22.5808,8.6747" id="Fill-66" fill="#F8FBF8"/></g></g></g></g></g></g></g></svg>