<svg viewBox="133.42065868263478 252.03850000000006 414.2964071856288 525.798" xmlns="http://www.w3.org/2000/svg" xmlns:xlink="http://www.w3.org/1999/xlink" overflow="visible" width="383.6077844311378px" height="486.85px"><rect id="Blush Background Color" fill="#222b52" x="133.42065868263478" y="252.03850000000006" width="414.2964071856288" height="525.798"/><defs><polygon id="mastercharactersitting-path-1" points="0.644 0.0174503817 98.896 0.0174503817 98.896 28.4488725 0.644 28.4488725"/><path d="M0.611,4.152 C0.516,6.977 4.407,8.141 8.572,9.455 L8.572,9.455 C16.217,11.868 20.367,12.194 21.052,9.038 L21.052,9.038 C21.453,7.193 20.288,5.826 18.679,5.317 L18.679,5.317 C17.91,5.073 16.958,4.844 15.818,4.517 L15.818,4.517 C15.818,4.517 12.448,3.701 6.92,1.517 L6.92,1.517 C6.885,1.502 6.85,1.488 6.813,1.475 L6.813,1.475 C5.923,1.139 5.098,0.988999462 4.36,0.988999462 L4.36,0.988999462 C2.113,0.988 0.672,2.381 0.611,4.152 L0.611,4.152 Z" id="mastercharactersitting-path-3"/></defs><g id="Master/Character/Sitting" stroke="none" stroke-width="1" fill="none" fill-rule="evenodd"><g id="Sitting/Lower Body" transform="translate(204.000000, 488.000000) scale(1 1)"><defs><polygon id="sittinglower-bodypurple-pants-path-1" points="0.644 0.018 98.896 0.018 98.896 31.1879 0.644 31.1879"/></defs><g id="Sitting/Lower Body/Purple Pants" stroke="none" stroke-width="1" fill="none" fill-rule="evenodd"><g id="Group-100" transform="translate(51.000000, 6.000000)"><g id="Group-87" transform="translate(0.000000, 0.982000)"><path d="M270.1253,242.2669 C270.0513,241.5329 269.9343,240.8259 269.7683,240.1479 C269.3933,238.6119 268.7783,237.2229 267.9753,235.9509 C267.9723,235.9459 267.9653,235.9329 267.9653,235.9329 L267.9643,235.9329 C263.1223,228.2869 251.2083,224.9899 240.0723,221.2189 C229.0443,217.4849 218.7863,213.2819 216.9333,203.9179 L163.6533,205.4449 C163.6533,205.4449 164.4313,221.5149 164.9023,235.1189 C165.1103,241.1059 173.6543,250.8159 180.0133,250.9969 C196.0433,251.4549 255.8883,251.9129 255.8883,251.9129 C255.8883,251.9129 270.2173,251.3299 270.213301,243.9159 C270.213301,243.3629 270.1923,242.8099 270.1253,242.2669" id="Fill-54" fill="#FD2118"/><path d="M230.3113,228.0784 C229.9703,228.0784 229.6283,227.9634 229.3473,227.7264 C228.7123,227.1934 228.6303,226.2474 229.1643,225.6134 L237.2943,215.9394 C237.8283,215.3074 238.7753,215.2244 239.4083,215.7564 C240.0423,216.2894 240.1243,217.2354 239.5913,217.8704 L231.4603,227.5444 C231.1643,227.8964 230.7393,228.0784 230.3113,228.0784" id="Fill-56" fill="#D5E1D5"/><path d="M224.8045,224.72 C224.4575,224.72 224.1105,224.601 223.8265,224.357 C223.1995,223.816 223.1275,222.869 223.6685,222.241 L231.6165,213.008 C232.1575,212.381 233.1035,212.309 233.7315,212.85 C234.3595,213.391 234.4305,214.337 233.8895,214.965 L225.9425,224.199 C225.6455,224.543 225.2265,224.72 224.8045,224.72" id="Fill-58" fill="#D5E1D5"/><path d="M220.0149,220.7034 C219.6069,220.7034 219.1999,220.5374 218.9039,220.2114 C218.3469,219.5984 218.3939,218.6484 219.0069,218.0934 L226.1779,211.5894 C226.7899,211.0334 227.7409,211.0784 228.2969,211.6914 C228.8539,212.3064 228.8069,213.2544 228.1939,213.8104 L221.0229,220.3144 C220.7359,220.5754 220.3739,220.7034 220.0149,220.7034" id="Fill-60" fill="#D5E1D5"/><path d="M164.9026,236.2854 C164.9746,237.9774 165.0506,239.7374 165.1296,241.5514 C165.6266,252.9404 175.3566,252.6604 175.3566,252.6604 C175.3566,252.6604 199.6546,253.0884 222.0736,253.4294 C217.2916,249.9434 211.1106,246.1184 203.4576,242.6834 C189.4446,236.3944 173.8286,235.9034 164.9026,236.2854" id="Fill-62" fill="#D5E1D5"/><path d="M270.4017,243.7659 C270.3277,243.0169 269.5677,242.5429 268.8717,242.8299 C265.4287,244.2539 254.8937,247.8309 237.3147,247.1179 C215.4707,246.2309 218.5887,240.3559 198.4697,226.2229 C189.1157,219.6519 170.8467,220.1069 164.9117,220.4519 C163.8467,220.5129 163.0337,221.4119 163.0767,222.4789 C163.1717,224.8249 163.3657,229.4479 163.5887,234.7039 C163.6337,235.7749 164.5287,236.6109 165.5997,236.5839 C174.8787,236.3509 190.3987,236.8229 203.4577,242.6839 C211.1097,246.1189 217.2917,249.9439 222.0737,253.4289 C236.8667,253.6539 250.8407,253.8389 256.4737,253.8389 C269.8867,253.8389 270.7117,246.8959 270.4017,243.7659" id="Fill-64" fill="#4947D9"/><path d="M235.8733,242.2669 C235.7993,241.5329 235.6823,240.8259 235.5163,240.1479 C235.1413,238.6119 234.5273,237.2229 233.7233,235.9509 C233.7213,235.9459 233.7133,235.9329 233.7133,235.9329 L233.7123,235.9329 C228.8703,228.2869 216.9563,224.9899 205.8203,221.2189 C194.7933,217.4849 184.5343,213.2819 182.6813,203.9179 L129.4013,205.4449 C129.4013,205.4449 130.1793,221.5149 130.6513,235.1189 C130.8583,241.1059 139.4033,250.8159 145.7623,250.9969 C161.7913,251.4549 221.6363,251.9129 221.6363,251.9129 C221.6363,251.9129 235.9653,251.3299 235.961301,243.9159 C235.961301,243.3629 235.9403,242.8099 235.8733,242.2669" id="Fill-66" fill="#FE5C4F"/><path d="M100.2401,25.3509 L86.2371,21.6909 L43.4856803,21.6909 L43.4856803,33.1069 L43.4856803,33.1069 C43.4856803,33.1069 42.3851,89.5889 101.5871,94.3399 L137.9261,99.4089 C137.9261,99.4089 167.2641,99.6319 167.2641,128.8549 C167.2641,140.2879 168.6301,190.3709 168.2881,195.9029 C168.1911,197.4919 168.1451,200.6929 168.1231,203.5739 C168.0991,206.8449 170.8131,209.7549 174.4621,209.8759 C175.4581,209.9099 175.9661,209.8759 176.8821,209.8759 C184.1911,209.8759 213.2091,209.891011 216.2501,209.891011 C221.8211,209.891011 222.1611,205.6819 222.2461,200.0289 C222.9971,150.0159 227.0591,94.9429 204.7451,67.3849 C187.8221,46.4849 164.9031,36.8409 100.2401,25.3509" id="Fill-68" fill="#4947D9"/><path d="M100.2401,25.3509 L75.2631,21.6909 L0.64368039,21.6909 L0.64368039,33.1069 L0.64368039,33.1069 C0.64368039,33.1069 -0.4569,89.5889 58.7461,94.3399 L95.0841,99.4089 C95.0841,99.4089 124.4231,99.6319 124.4231,128.8549 C124.4231,140.2879 125.7881,190.3709 125.4471,195.9029 C125.3491,197.4919 125.3031,200.6929 125.2821,203.5739 C125.2581,206.8449 127.9711,209.7549 131.6201,209.8759 C132.6161,209.9099 133.1241,209.8759 134.0401,209.8759 L181.9431,209.8759 C187.5131,209.8759 187.7121,205.6629 187.9391,200.0139 C188.1601,194.5249 196.4741,118.8129 181.9431,85.2539 C169.8851,57.4099 133.1621,42.8289 100.2401,25.3509" id="Fill-70" fill="#7D7AF9"/><g id="Group-74"><mask id="sittinglower-bodypurple-pants-mask-2" fill="#ffffff"><use xlink:href="#sittinglower-bodypurple-pants-path-1" fill="#ffffff"/></mask><g id="Clip-73"/><path d="M77.223,0.0179 L22.318,0.0179 C10.347,0.0179 0.644,9.7209 0.644,21.6909 L0.644,29.3449 L98.707,31.1879 L98.896,21.6909 C98.896,9.7209 89.193,0.0179 77.223,0.0179" id="Fill-72" fill="#7D7AF9" mask="url(#sittinglower-bodypurple-pants-mask-2)"/></g><path d="M193.431,231.5442 C193.09,231.5442 192.748,231.4292 192.467,231.1922 C191.832,230.6592 191.75,229.7132 192.284,229.0782 L200.414,219.4042 C200.948,218.7722 201.895,218.6892 202.528,219.2222 C203.162,219.7552 203.244,220.7012 202.711,221.3352 L194.58,231.0092 C194.284,231.3612 193.859,231.5442 193.431,231.5442" id="Fill-75" fill="#F8FBF8"/><path d="M187.9241,228.1848 C187.5771,228.1848 187.2301,228.0658 186.9461,227.8218 C186.3191,227.2818 186.2471,226.3338 186.7881,225.7058 L194.7361,216.4738 C195.2771,215.8458 196.2231,215.7748 196.8511,216.3158 C197.4791,216.8558 197.5501,217.8028 197.0091,218.4308 L189.0621,227.6638 C188.7651,228.0078 188.3461,228.1848 187.9241,228.1848" id="Fill-77" fill="#F8FBF8"/><path d="M184.1194,221.8704 C183.7114,221.8704 183.3044,221.7044 183.0084,221.3784 C182.4514,220.7644 182.4984,219.8154 183.1114,219.2594 L190.2824,212.7554 C190.8944,212.1994 191.8454,212.2454 192.4014,212.8584 C192.9584,213.4724 192.9114,214.4214 192.2984,214.9764 L185.1274,221.4804 C184.8404,221.7414 184.4784,221.8704 184.1194,221.8704" id="Fill-79" fill="#F8FBF8"/><path d="M130.6512,236.2854 C130.7232,237.9774 130.7992,239.7374 130.8782,241.5514 C131.3752,252.9404 141.1042,252.6604 141.1042,252.6604 C141.1042,252.6604 165.4032,253.0884 187.8212,253.4294 C183.0402,249.9434 176.8582,246.1184 169.2062,242.6834 C155.1932,236.3944 139.5772,235.9034 130.6512,236.2854" id="Fill-81" fill="#D5E1D5"/><path d="M236.1497,243.7659 C236.0757,243.0169 235.3157,242.5429 234.6197,242.8299 C231.1767,244.2539 220.6427,247.8309 203.0637,247.1179 C181.2197,246.2309 184.3367,240.3559 164.2177,226.2229 C154.8637,219.6519 136.5947,220.1069 130.6607,220.4519 C129.5947,220.5129 128.7817,221.4119 128.8247,222.4789 C128.9197,224.8249 129.1137,229.4479 129.3367,234.7039 C129.3817,235.7749 130.2767,236.6109 131.3487,236.5839 C140.6277,236.3509 156.1467,236.8229 169.2067,242.6839 C176.8577,246.1189 183.0397,249.9439 187.8217,253.4289 C202.6147,253.6539 216.5887,253.8389 222.2217,253.8389 C235.6347,253.8389 236.4597,246.8959 236.1497,243.7659" id="Fill-83" fill="#7D7AF9"/><path d="M157.2898,242.5178 C157.2898,242.5178 142.7588,238.8148 141.2728,242.7398 C139.8868,246.3968 145.5438,249.0098 156.0708,249.4458 C164.1068,249.7778 163.0748,243.9038 157.2898,242.5178" id="Fill-85" fill="#FEF864"/></g></g></g></g><g id="Upper Body" transform="translate(-1.000000, 53.000000) scale(1 1)"><g id="Upper Body/Laptop" stroke="none" stroke-width="1" fill="none" fill-rule="evenodd"><g id="Group-691" transform="translate(152.500000, 272.500000)"><g id="Group-453" transform="translate(0.000000, 0.095000)"><path d="M241.5489,174.4264 L262.3799,74.3814 C262.3799,74.3814 252.8759,47.1744 212.0979,39.9614 C212.0979,39.9614 211.5509,15.4834 160.0019,15.4834 C108.4529,15.4834 106.8899,38.6954 106.8899,38.6954 C106.8899,38.6954 -4.3451,56.6524 0.2789,139.0164 C0.2789,139.0164 6.1749,190.7654 71.0239,182.9044 C70.9179,185.7814 71.5209,189.0814 73.9719,191.7894 C79.9819,198.4274 91.6929,197.6654 98.3559,196.5624 C101.1019,196.1074 103.8799,196.8674 106.1169,198.5244 C108.6669,200.4134 113.3329,202.5834 121.5689,203.0954 C127.8529,203.4864 132.4689,202.2684 135.7249,200.6984 C139.4069,198.9254 143.7659,199.4444 146.8579,202.1154 C150.5619,205.3184 157.1519,208.6544 168.7689,209.4994 C182.7509,210.5184 189.9819,205.5454 193.5739,201.2484 C196.0219,198.3214 199.8399,196.8864 203.5659,197.7124 C207.7369,198.6374 213.2789,199.0844 218.4979,197.0464 C220.6419,196.2094 223.0059,196.1594 225.1979,196.8604 C230.4509,198.5374 240.5249,200.6714 249.3079,196.2434 C257.8439,191.9404 255.8429,175.1594 241.5489,174.4264" id="Fill-429" fill="#00A378"/><path d="M273.8741,181.274 C273.8741,181.274 301.1821,179.927 301.8441,150.795 C302.5221,120.91 284.6001,114.814 273.8741,114.071 L273.8741,181.274 Z" id="Fill-431" fill="#ef9e89"/><path d="M119.8228,61.6696 C119.6548,61.6696 119.4838,61.6416 119.3168,61.5816 C119.0848,61.4986 118.7918,61.4476 118.4808,61.3946 C117.9548,61.3036 117.3568,61.2006 116.7638,60.8986 C116.5298,60.7806 116.2918,60.6726 116.0558,60.5656 C115.5038,60.3156 114.9328,60.0556 114.3888,59.6776 C114.1598,59.5186 113.9158,59.3746 113.6738,59.2316 C113.1808,58.9396 112.6238,58.6076 112.1398,58.1576 C111.4738,57.5356 110.9048,56.8446 110.3308,56.1316 C109.8228,55.4986 109.6678,54.7816 109.5438,54.2056 C109.4948,53.9796 109.4268,53.6686 109.3678,53.5696 C109.2548,53.3816 109.0548,53.1666 108.8438,52.9396 C108.4708,52.5366 108.0478,52.0806 107.7658,51.4486 C107.4638,50.7696 107.4328,50.0936 107.4078,49.5516 C107.3948,49.2736 107.3828,48.9876 107.3338,48.8346 C107.2928,48.7406 107.0658,48.4956 106.9168,48.3326 C106.5068,47.8896 105.9968,47.3386 105.8268,46.5416 C105.6688,45.8046 105.7738,45.1216 105.8578,44.5726 C105.8978,44.3146 105.9428,44.0216 105.9268,43.8866 C105.8138,42.9666 105.7868,42.1636 105.7628,41.4546 L105.7588,41.3186 C105.7388,40.7736 105.6888,40.5656 105.6348,40.3466 C105.5308,39.9116 105.4568,39.5126 105.5358,38.6786 C105.6128,37.8536 106.3368,37.2416 107.1708,37.3256 C107.9948,37.4036 108.5998,38.1356 108.5218,38.9606 C108.4838,39.3616 108.4998,39.4276 108.5518,39.6426 C108.6428,40.0226 108.7278,40.4286 108.7568,41.2136 L108.7608,41.3526 C108.7828,41.9996 108.8078,42.7326 108.9048,43.5226 C108.9708,44.0676 108.8928,44.5786 108.8228,45.0296 C108.7708,45.3666 108.7178,45.7156 108.7598,45.9126 C108.7828,45.9326 108.9858,46.1516 109.1198,46.2966 C109.4958,46.7036 109.9638,47.2106 110.1908,47.9216 C110.3608,48.4536 110.3848,48.9636 110.4048,49.4136 C110.4198,49.7346 110.4348,50.0666 110.5078,50.2306 C110.5858,50.4046 110.8178,50.6556 111.0438,50.8986 C111.3348,51.2126 111.6648,51.5676 111.9378,52.0216 C112.2548,52.5476 112.3778,53.1156 112.4758,53.5726 C112.5258,53.8066 112.6018,54.1596 112.6708,54.2536 C113.1908,54.8996 113.6658,55.4776 114.1858,55.9646 C114.4318,56.1926 114.8068,56.4156 115.2038,56.6496 C115.5078,56.8306 115.8118,57.0136 116.0998,57.2136 C116.4218,57.4366 116.8468,57.6296 117.2988,57.8346 C117.5718,57.9596 117.8488,58.0856 118.1218,58.2246 C118.3118,58.3206 118.6418,58.3776 118.9908,58.4386 C119.3938,58.5076 119.8508,58.5866 120.3288,58.7576 C121.1078,59.0366 121.5138,59.8956 121.2348,60.6756 C121.0148,61.2876 120.4378,61.6696 119.8228,61.6696" id="Fill-433" fill="#000"/><path d="M202.3526,60.4244 C201.7886,60.4244 201.2476,60.1044 200.9926,59.5584 C200.6416,58.8074 200.9666,57.9144 201.7176,57.5654 C201.9406,57.4604 202.1656,57.3614 202.3886,57.2634 C202.8976,57.0404 203.3766,56.8304 203.7446,56.5864 C203.9586,56.4444 204.1846,56.1544 204.4226,55.8484 C204.6536,55.5524 204.9156,55.2174 205.2426,54.9144 C205.5096,54.6664 205.7946,54.4434 206.0796,54.2234 C206.4166,53.9614 206.7356,53.7144 206.9256,53.4724 C207.1016,53.2484 207.2406,52.8994 207.3886,52.5294 C207.5216,52.1964 207.6716,51.8204 207.8796,51.4514 C208.1536,50.9714 208.4946,50.6014 208.7946,50.2754 C209.0036,50.0484 209.2416,49.7914 209.3006,49.6414 C209.4206,49.3444 209.5536,49.0514 209.6856,48.7604 C209.8926,48.3054 210.0876,47.8754 210.1886,47.5014 C210.2196,47.3834 210.1416,46.9934 210.0946,46.7614 C209.9966,46.2714 209.8846,45.7164 209.9816,45.1084 C210.0636,44.5904 210.2006,44.1354 210.3206,43.7334 C210.4216,43.3934 210.5176,43.0724 210.5306,42.8684 C210.5716,42.1714 210.6306,41.8004 210.6746,41.5294 C210.7196,41.2504 210.7346,41.1554 210.6896,40.6284 C210.6776,40.4924 210.5116,40.1934 210.3786,39.9514 C210.1566,39.5484 209.9036,39.0904 209.7826,38.5264 C209.6616,37.9584 209.6936,37.4174 209.7186,36.9834 C209.7336,36.7274 209.7546,36.3774 209.7116,36.2594 L209.5776,35.8744 C209.3606,35.2564 209.1566,34.6724 208.8986,34.1674 C208.8186,34.0124 208.5716,33.7864 208.3316,33.5704 C208.0116,33.2784 207.6476,32.9474 207.3456,32.5064 C207.1256,32.1844 206.9406,31.8404 206.7576,31.4964 C206.5706,31.1434 206.3936,30.8094 206.1956,30.5794 C205.8216,30.1504 205.5926,29.6754 205.3916,29.2574 C205.2576,28.9824 205.1076,28.6694 204.9916,28.5614 C204.9346,28.5314 204.6316,28.4564 204.4316,28.4064 C203.9176,28.2784 203.2776,28.1194 202.7206,27.6844 C202.4046,27.4364 202.1146,27.1574 201.8266,26.8764 C201.5396,26.5974 201.2676,26.3324 200.9996,26.1554 C200.7706,26.0024 200.4426,25.8764 200.0946,25.7414 C199.7226,25.5984 199.2996,25.4354 198.8836,25.1974 L198.3266,24.8754 C197.8446,24.5954 197.3686,24.3174 196.8656,24.0684 C196.2176,23.7484 195.7966,23.2294 195.4576,22.8124 C195.3276,22.6514 195.1286,22.4064 195.0406,22.3504 C194.8906,22.2874 194.5616,22.2544 194.2426,22.2234 C193.7736,22.1764 193.2416,22.1224 192.6986,21.9184 C192.3556,21.7884 191.9706,21.6934 191.5626,21.5914 C191.1786,21.4954 190.7976,21.3994 190.4266,21.2764 C190.1306,21.1784 189.7736,21.1234 189.3956,21.0674 C189.0016,21.0074 188.5556,20.9394 188.1076,20.8094 C187.7906,20.7174 187.4816,20.6204 187.1746,20.5254 C186.7296,20.3864 186.2906,20.2484 185.8486,20.1364 C185.1716,19.9644 184.6496,19.5904 184.2286,19.2904 C184.0546,19.1654 183.7896,18.9764 183.6886,18.9454 C183.5266,18.9104 183.2046,18.9534 182.8926,18.9974 C182.4066,19.0654 181.8556,19.1404 181.2556,19.0284 C180.5956,18.9034 180.0516,18.6114 179.6156,18.3754 C179.4176,18.2694 179.1206,18.1094 179.0126,18.0914 C178.4136,17.9974 177.8526,17.9354 177.3466,17.8784 L176.6526,17.7984 C176.2116,17.7444 176.1376,17.7744 175.9746,17.8374 C175.5666,17.9984 175.1026,18.1514 174.2786,18.0964 C173.4526,18.0404 172.8276,17.3244 172.8836,16.4984 C172.9386,15.6714 173.6406,15.0434 174.4816,15.1034 C174.6976,15.1164 174.7116,15.1104 174.8726,15.0474 C175.3516,14.8584 175.9146,14.6854 177.0206,14.8204 L177.6806,14.8984 C178.2256,14.9584 178.8306,15.0274 179.4766,15.1274 C180.0916,15.2244 180.5946,15.4954 181.0396,15.7354 C181.3316,15.8934 181.6086,16.0414 181.8106,16.0794 C181.9246,16.1014 182.2486,16.0574 182.4826,16.0254 C183.0016,15.9534 183.6456,15.8644 184.3376,16.0174 C185.0186,16.1664 185.5486,16.5454 185.9746,16.8504 C186.1786,16.9964 186.4576,17.1954 186.5856,17.2284 C187.0796,17.3534 187.5706,17.5064 188.0696,17.6614 C188.3566,17.7514 188.6466,17.8424 188.9416,17.9274 C189.2016,18.0024 189.5136,18.0504 189.8456,18.1004 C190.3076,18.1704 190.8316,18.2504 191.3696,18.4284 C191.6676,18.5274 191.9776,18.6024 192.2886,18.6804 C192.7616,18.7984 193.2506,18.9194 193.7576,19.1114 C193.9316,19.1764 194.2416,19.2074 194.5406,19.2374 C195.0616,19.2894 195.6526,19.3484 196.2536,19.6084 C196.9716,19.9174 197.4226,20.4744 197.7866,20.9214 C197.9176,21.0834 198.1186,21.3284 198.2066,21.3854 C198.7586,21.6574 199.2946,21.9684 199.8346,22.2824 L200.3696,22.5914 C200.5896,22.7174 200.8746,22.8274 201.1756,22.9444 C201.6356,23.1214 202.1576,23.3224 202.6596,23.6554 C203.1596,23.9874 203.5636,24.3814 203.9186,24.7284 C204.1296,24.9334 204.3386,25.1414 204.5696,25.3204 C204.6476,25.3684 204.9546,25.4454 205.1566,25.4954 C205.7346,25.6394 206.4546,25.8194 207.0446,26.3734 C207.5666,26.8624 207.8586,27.4674 208.0926,27.9534 C208.2186,28.2154 208.3496,28.4864 208.4606,28.6134 C208.8846,29.1024 209.1636,29.6274 209.4096,30.0914 C209.5396,30.3374 209.6666,30.5844 209.8236,30.8144 C209.9256,30.9644 210.1316,31.1514 210.3496,31.3494 C210.7466,31.7094 211.2406,32.1584 211.5696,32.8014 C211.9206,33.4884 212.1686,34.1974 212.4096,34.8844 L212.5386,35.2524 C212.7856,35.9454 212.7456,36.6184 212.7136,37.1594 C212.6976,37.4404 212.6796,37.7304 212.7156,37.8994 C212.7446,38.0284 212.8826,38.2794 213.0046,38.5014 C213.2756,38.9904 213.6116,39.6004 213.6776,40.3704 C213.7496,41.2074 213.7106,41.5474 213.6356,42.0084 C213.6016,42.2244 213.5566,42.5024 213.5246,43.0444 C213.4926,43.5974 213.3406,44.1034 213.1946,44.5934 C213.0916,44.9354 212.9956,45.2594 212.9446,45.5784 C212.9356,45.6734 212.9966,45.9724 213.0366,46.1694 C213.1536,46.7554 213.2996,47.4854 213.0846,48.2814 C212.9206,48.8924 212.6656,49.4554 212.4166,50.0004 C212.3026,50.2514 212.1876,50.5044 212.0846,50.7594 C211.8206,51.4194 211.3666,51.9124 211.0006,52.3094 C210.7906,52.5364 210.5916,52.7524 210.4896,52.9324 C210.3656,53.1524 210.2726,53.3974 210.1746,53.6424 C209.9646,54.1664 209.7276,54.7614 209.2856,55.3244 C208.8666,55.8594 208.3616,56.2494 207.9156,56.5944 C207.7016,56.7614 207.4826,56.9284 207.2796,57.1154 C207.1306,57.2534 206.9646,57.4674 206.7896,57.6934 C206.4486,58.1294 206.0256,58.6724 205.4046,59.0854 C204.8206,59.4734 204.1976,59.7464 203.5946,60.0114 C203.3926,60.1004 203.1886,60.1894 202.9856,60.2834 C202.7806,60.3794 202.5646,60.4244 202.3526,60.4244" id="Fill-435" fill="#000"/><path d="M159.5821,72.0865 C159.5451,72.0865 159.5091,72.0845 159.4731,72.0825 C158.6461,72.0235 158.0241,71.3055 158.0841,70.4785 L158.9271,58.7765 C158.9861,57.9495 159.7451,57.3345 160.5301,57.3885 C161.3561,57.4475 161.9781,58.1655 161.9191,58.9925 L161.0761,70.6935 C161.0191,71.4835 160.3611,72.0865 159.5821,72.0865" id="Fill-437" fill="#000"/><path d="M175.6026,72.0865 C174.9206,72.0865 174.3046,71.6195 174.1426,70.9285 L171.4016,59.2275 C171.2126,58.4205 171.7136,57.6125 172.5206,57.4245 C173.3196,57.2345 174.1336,57.7355 174.3236,58.5425 L177.0646,70.2435 C177.2526,71.0505 176.7516,71.8575 175.9456,72.0465 C175.8316,72.0735 175.7156,72.0865 175.6026,72.0865" id="Fill-439" fill="#000"/><path d="M60.378,185.4069 C59.747,185.4069 59.191,185.2019 58.739,185.0359 C58.474,184.9379 58.173,184.8279 58.02,184.8279 L58.018,184.8279 C57.75,184.8289 57.437,184.8689 57.106,184.9119 C56.654,184.9699 56.16,185.0339 55.59,185.0249 L54.933,185.0139 C54.353,185.0059 53.762,184.9959 53.158,184.9689 C52.883,184.9559 52.606,184.9469 52.327,184.9379 C51.799,184.9219 51.265,184.9029 50.723,184.8639 C50.444,184.8449 50.125,184.8609 49.784,184.8789 C49.328,184.9029 48.813,184.9289 48.271,184.8749 C48.048,184.8519 47.745,184.8859 47.424,184.9229 C46.938,184.9769 46.387,185.0389 45.79,184.9589 C45.23,184.8849 44.728,184.7109 44.284,184.5569 C43.964,184.4459 43.661,184.3419 43.404,184.2989 C42.776,184.1919 42.265,183.9349 41.813,183.7089 C41.533,183.5679 41.27,183.4349 41.082,183.3959 C40.819,183.3429 40.506,183.3219 40.174,183.3019 C39.708,183.2709 39.181,183.2379 38.634,183.0999 C38.028,182.9479 37.538,182.6669 37.106,182.4189 C36.834,182.2629 36.577,182.1159 36.377,182.0549 C36.277,182.0339 35.962,182.0679 35.755,182.0909 C35.205,182.1519 34.519,182.2259 33.805,181.9699 C33.152,181.7349 32.665,181.3179 32.274,180.9839 C32.068,180.8079 31.835,180.6089 31.695,180.5499 C31.537,180.4809 31.241,180.4429 30.955,180.4049 C30.452,180.3399 29.827,180.2589 29.224,179.9499 C28.996,179.8339 28.706,179.7329 28.399,179.6269 C27.922,179.4609 27.383,179.2739 26.87,178.9599 C26.164,178.5259 25.942,177.6019 26.376,176.8959 C26.809,176.1899 27.732,175.9699 28.439,176.4019 C28.674,176.5469 29.019,176.6659 29.382,176.7929 C29.755,176.9219 30.178,177.0679 30.59,177.2789 C30.73,177.3509 31.055,177.3929 31.342,177.4299 C31.809,177.4909 32.337,177.5599 32.879,177.7929 C33.438,178.0319 33.873,178.4039 34.223,178.7029 C34.44,178.8879 34.686,179.0979 34.822,179.1479 C34.906,179.1649 35.221,179.1319 35.428,179.1089 C35.941,179.0529 36.578,178.9819 37.244,179.1829 C37.773,179.3429 38.211,179.5949 38.598,179.8159 C38.888,179.9819 39.161,180.1389 39.365,180.1909 C39.646,180.2609 39.995,180.2839 40.365,180.3069 C40.767,180.3329 41.222,180.3619 41.691,180.4589 C42.264,180.5779 42.739,180.8159 43.159,181.0269 C43.435,181.1659 43.72,181.3089 43.902,181.3399 C44.405,181.4249 44.862,181.5829 45.266,181.7219 C45.606,181.8399 45.926,181.9509 46.186,181.9849 C46.419,182.0169 46.746,181.9799 47.09,181.9409 C47.534,181.8919 48.038,181.8359 48.573,181.8899 C48.885,181.9219 49.245,181.9019 49.627,181.8829 C50.044,181.8609 50.478,181.8399 50.94,181.8719 C51.441,181.9089 51.936,181.9239 52.424,181.9399 C52.716,181.9489 53.007,181.9589 53.295,181.9709 C53.867,181.9979 54.428,182.0069 54.979,182.0139 L55.651,182.0259 C55.967,182.0339 56.339,181.9859 56.721,181.9359 C57.129,181.8839 57.551,181.8299 58.005,181.8279 L58.021,181.8279 C58.708,181.8279 59.3,182.0459 59.776,182.2209 C59.975,182.2939 60.274,182.4039 60.377,182.4069 C60.596,182.4009 60.9,182.2939 61.224,182.1809 C61.657,182.0289 62.149,181.8569 62.708,181.8279 C63.194,181.8019 63.653,181.8079 64.082,181.8149 C64.432,181.8209 64.758,181.8279 65.055,181.8039 C65.716,181.7529 66.036,181.7359 66.279,181.7219 C66.576,181.7069 66.747,181.6969 67.379,181.6269 C68.306,181.5219 68.877,181.6999 69.253,181.8179 C69.511,181.8989 69.597,181.9279 69.9,181.8929 C70.151,181.8669 70.198,181.8359 70.427,181.6849 C70.778,181.4529 71.311,181.1019 72.285,180.9979 C72.958,180.9259 73.297,180.9159 73.636,180.9059 C73.916,180.8979 74.197,180.8889 74.754,180.8299 C75.541,180.7469 75.986,180.8019 76.345,180.8469 C76.618,180.8819 76.8,180.9069 77.239,180.8579 C77.783,180.7999 78.052,180.7449 78.321,180.6899 C78.66,180.6209 78.999,180.5519 79.684,180.4779 C80.36,180.4059 80.702,180.3979 81.044,180.3899 C81.322,180.3839 81.601,180.3779 82.152,180.3179 C82.438,180.2879 82.507,180.2469 82.737,180.1079 C83.082,179.9019 83.603,179.5909 84.543,179.4889 C85.197,179.4199 85.527,179.4029 85.857,179.3859 C86.145,179.3709 86.433,179.3559 87.006,179.2949 C88.062,179.1809 88.723,179.5159 89.117,179.7169 C89.374,179.8469 89.382,179.8469 89.55,179.8309 C90.199,179.7609 90.524,179.7409 90.85,179.7209 C91.143,179.7029 91.435,179.6849 92.016,179.6229 L94.474,179.3619 C94.891,179.3169 95.046,179.2569 95.303,179.1559 C95.652,179.0199 96.087,178.8499 96.901,178.7629 C97.171,178.7339 97.232,178.6959 97.46,178.5529 C97.81,178.3309 98.338,177.9969 99.3,177.8939 C100.129,177.8129 100.863,178.4019 100.951,179.2259 C101.04,180.0499 100.443,180.7889 99.62,180.8779 C99.351,180.9059 99.289,180.9449 99.062,181.0889 C98.712,181.3089 98.184,181.6429 97.222,181.7469 C96.805,181.7909 96.649,181.8509 96.393,181.9519 C96.043,182.0879 95.608,182.2579 94.794,182.3439 L92.335,182.6059 C91.686,182.6759 91.36,182.6959 91.035,182.7159 C90.742,182.7339 90.45,182.7519 89.869,182.8139 C88.818,182.9289 88.153,182.5919 87.759,182.3909 C87.502,182.2609 87.496,182.2599 87.325,182.2779 C86.67,182.3479 86.34,182.3649 86.01,182.3819 C85.722,182.3959 85.435,182.4109 84.862,182.4719 C84.578,182.5029 84.509,182.5449 84.278,182.6819 C83.934,182.8879 83.412,183.2009 82.472,183.3019 C81.795,183.3739 81.454,183.3819 81.113,183.3889 C80.834,183.3959 80.556,183.4019 80.003,183.4619 C79.459,183.5199 79.19,183.5749 78.921,183.6299 C78.582,183.6989 78.243,183.7679 77.559,183.8419 C76.772,183.9269 76.324,183.8689 75.968,183.8239 C75.693,183.7899 75.513,183.7659 75.072,183.8129 C74.4,183.8859 74.062,183.8949 73.723,183.9049 C73.442,183.9129 73.161,183.9219 72.605,183.9809 C72.354,184.0079 72.307,184.0389 72.078,184.1889 C71.727,184.4219 71.194,184.7719 70.22,184.8769 C69.298,184.9769 68.731,184.7989 68.357,184.6809 C68.101,184.6009 68.018,184.5739 67.713,184.6079 C66.981,184.6899 66.783,184.6999 66.44,184.7189 C66.211,184.7299 65.91,184.7469 65.29,184.7959 C64.905,184.8259 64.489,184.8209 64.035,184.8149 C63.672,184.8079 63.28,184.8019 62.864,184.8239 C62.735,184.8309 62.459,184.9279 62.215,185.0119 C61.739,185.1789 61.147,185.3859 60.458,185.4059 C60.431,185.4069 60.404,185.4069 60.378,185.4069" id="Fill-441" fill="#000"/><path d="M62.0967,114.5406 C61.2357,114.5406 60.7447,114.3706 60.3877,114.2476 C60.1417,114.1616 60.0177,114.1186 59.6607,114.1186 C59.2727,114.1186 59.1307,114.1616 58.8737,114.2386 C58.5277,114.3436 58.0527,114.4856 57.2227,114.4856 C56.1767,114.4856 55.5647,114.0966 55.1997,113.8636 C54.9637,113.7136 54.9587,113.7106 54.7867,113.7106 C54.2157,113.7106 53.9307,113.7256 53.6447,113.7386 C53.3227,113.7556 52.9987,113.7706 52.3537,113.7706 C52.0637,113.7706 51.9837,113.8076 51.7447,113.9126 C51.3867,114.0726 50.8447,114.3136 49.9167,114.3136 C49.1617,114.3136 48.7437,114.2316 48.4097,114.1656 C48.1387,114.1126 47.9437,114.0736 47.4807,114.0736 C47.1257,114.0736 47.0027,114.1166 46.7577,114.2026 C46.4007,114.3266 45.9097,114.4976 45.0477,114.4976 C44.1707,114.4976 43.6737,114.3126 43.3107,114.1796 C43.0677,114.0886 42.9557,114.0476 42.6177,114.0476 C41.9447,114.0476 41.6087,114.0186 41.2727,113.9896 C40.9997,113.9666 40.7277,113.9426 40.1837,113.9426 C39.7937,113.9426 39.6527,113.9846 39.3947,114.0616 C39.0487,114.1646 38.5757,114.3066 37.7467,114.3066 C36.8787,114.3066 36.3857,114.1316 36.0267,114.0036 C35.7757,113.9136 35.6607,113.8736 35.3107,113.8736 C34.4827,113.8736 33.8107,113.2016 33.8107,112.3736 C33.8107,111.5446 34.4827,110.8736 35.3107,110.8736 C36.1777,110.8736 36.6707,111.0486 37.0307,111.1766 C37.2817,111.2656 37.3967,111.3066 37.7467,111.3066 C38.1377,111.3066 38.2797,111.2636 38.5367,111.1866 C38.8827,111.0836 39.3557,110.9426 40.1837,110.9426 C40.8567,110.9426 41.1927,110.9716 41.5287,111.0006 C41.8007,111.0236 42.0737,111.0476 42.6177,111.0476 C43.4927,111.0476 43.9907,111.2306 44.3527,111.3656 C44.5977,111.4556 44.7087,111.4976 45.0477,111.4976 C45.4027,111.4976 45.5267,111.4546 45.7717,111.3686 C46.1287,111.2446 46.6187,111.0736 47.4807,111.0736 C48.2367,111.0736 48.6547,111.1566 48.9897,111.2226 C49.2597,111.2756 49.4547,111.3136 49.9167,111.3136 C50.2067,111.3136 50.2857,111.2786 50.5247,111.1726 C50.8827,111.0136 51.4247,110.7706 52.3537,110.7706 C52.9247,110.7706 53.2097,110.7576 53.4957,110.7426 C53.8187,110.7276 54.1417,110.7106 54.7867,110.7106 C55.8327,110.7106 56.4457,111.1006 56.8107,111.3336 C57.0457,111.4826 57.0507,111.4856 57.2227,111.4856 C57.6117,111.4856 57.7517,111.4436 58.0087,111.3666 C58.3557,111.2626 58.8297,111.1186 59.6607,111.1186 C60.5227,111.1186 61.0127,111.2886 61.3697,111.4126 C61.6167,111.4976 61.7407,111.5406 62.0967,111.5406 C62.6357,111.5406 62.9057,111.5156 63.1747,111.4896 C63.5147,111.4586 63.8547,111.4266 64.5347,111.4266 C65.1177,111.4266 65.4097,111.4156 65.7007,111.4056 C66.0177,111.3946 66.3357,111.3836 66.9717,111.3836 C67.4397,111.3836 67.6367,111.3456 67.9087,111.2936 C68.2427,111.2286 68.6587,111.1496 69.4107,111.1496 L71.8487,111.1546 C72.2087,111.1546 72.3327,111.1116 72.5817,111.0266 C72.9397,110.9046 73.4287,110.7366 74.2877,110.7366 C75.1347,110.7366 75.6177,110.8936 75.9697,111.0076 C76.2177,111.0876 76.3547,111.1326 76.7287,111.1326 C77.5647,111.1326 78.0417,111.2806 78.3907,111.3896 C78.6437,111.4676 78.7827,111.5116 79.1627,111.5116 C79.4577,111.5116 79.5387,111.4756 79.7807,111.3696 C80.1377,111.2136 80.6777,110.9776 81.6017,110.9776 C82.4507,110.9776 82.9347,111.1346 83.2867,111.2496 C83.5427,111.3326 83.6707,111.3746 84.0417,111.3746 C84.6677,111.3746 84.9807,111.3816 85.2937,111.3886 C85.5907,111.3946 85.8887,111.3996 86.4837,111.3996 C86.6867,111.3996 86.7107,111.3866 86.9467,111.2486 C87.3287,111.0236 87.9087,110.6856 88.9257,110.6856 C90.0017,110.6856 90.6237,111.1116 90.9957,111.3666 C91.2247,111.5226 91.2247,111.5226 91.3707,111.5226 C91.7647,111.5226 91.9077,111.4796 92.1667,111.4026 C92.5137,111.3006 92.9887,111.1586 93.8177,111.1586 C94.6457,111.1586 95.3177,111.8306 95.3177,112.6586 C95.3177,113.4876 94.6457,114.1586 93.8177,114.1586 C93.4247,114.1586 93.2817,114.2016 93.0227,114.2786 C92.6757,114.3816 92.2007,114.5226 91.3707,114.5226 C90.2947,114.5226 89.6727,114.0966 89.3007,113.8416 C89.0727,113.6856 89.0727,113.6856 88.9257,113.6856 C88.7217,113.6856 88.6977,113.6986 88.4617,113.8366 C88.0787,114.0616 87.5007,114.3996 86.4837,114.3996 C85.8577,114.3996 85.5447,114.3946 85.2317,114.3876 C84.9347,114.3816 84.6367,114.3746 84.0417,114.3746 C83.1937,114.3746 82.7097,114.2176 82.3577,114.1026 C82.1017,114.0196 81.9737,113.9776 81.6017,113.9776 C81.3057,113.9776 81.2247,114.0126 80.9837,114.1176 C80.6257,114.2746 80.0867,114.5116 79.1627,114.5116 C78.3257,114.5116 77.8487,114.3616 77.4987,114.2536 C77.2467,114.1756 77.1087,114.1326 76.7287,114.1326 C75.8807,114.1326 75.3987,113.9766 75.0457,113.8616 C74.7977,113.7816 74.6607,113.7366 74.2877,113.7366 C73.9277,113.7366 73.8037,113.7796 73.5547,113.8646 C73.1977,113.9876 72.7077,114.1546 71.8487,114.1546 L69.4107,114.1496 C68.9437,114.1496 68.7457,114.1866 68.4737,114.2396 C68.1397,114.3036 67.7237,114.3836 66.9717,114.3836 C66.3887,114.3836 66.0967,114.3936 65.8057,114.4036 C65.4887,114.4146 65.1697,114.4266 64.5347,114.4266 C63.9947,114.4266 63.7257,114.4516 63.4557,114.4776 C63.1167,114.5096 62.7767,114.5406 62.0967,114.5406" id="Fill-443" fill="#000"/><path d="M88.6358,105.8483 C88.6358,105.8483 63.4068,110.9093 59.4538,135.1013 C55.9698,156.4213 64.5138,178.4283 90.6048,181.2743 L88.6358,105.8483 Z" id="Fill-445" fill="#ef9e89"/><path d="M86.0939984,74.0543 L88.4808,185.8853 C88.5198,187.7163 90.0148,189.1803 91.8468,189.1803 L270.5068,189.1803 C272.3668,189.1803 273.8738,187.6733 273.8738,185.8143 L273.8738,75.5063 C273.8738,73.6583 272.3838,72.1553 270.5358,72.1393 L89.4898,70.6161621 C87.5908,70.5993 86.0538,72.1563 86.0939984,74.0543" id="Fill-447" fill="#F8FBF8"/><path d="M94.8738,74.0543 L97.1490047,185.8853 C97.1861813,187.7163 98.6112813,189.1803 100.357625,189.1803 L270.664227,189.1803 C272.437261,189.1803 273.8738,187.6733 273.8738,185.8143 L273.8738,75.5063 C273.8738,73.6583 272.453466,72.1553 270.691871,72.1393 L98.1108281,70.6161621 C96.3006174,70.5993 94.8354811,72.1563 94.8738,74.0543" id="Fill-447-Copy" fill="#AFDCFD"/><path d="M176.1475,0.9069 L164.7485,0.9069 C159.5945,0.9069 155.2085,4.6009 154.2925,9.6419 C154.2825,9.7049 154.2735,9.7649 154.2635,9.8289 L154.2585,9.8619 L154.2585,9.8629 C154.2215,10.1079 154.1835,10.3579 154.1455,10.6069 C152.8195,19.3479 151.1815,30.0589 151.1815,30.0589 L186.6145,30.0589 L186.6865,22.2939 L186.7845,11.6419 C186.8385,5.7289 182.0605,0.9069 176.1475,0.9069" id="Fill-449" fill="#ef9e89"/><path d="M186.6143,30.0592 C172.7393,29.0832 168.9483,26.1082 169.0823,23.6312 C169.2013,21.4132 171.2863,21.7222 172.1973,21.7432 C176.2113,21.8322 186.6863,22.2932 186.6863,22.2932" id="Fill-451" fill="#430000"/></g></g><circle id="Oval" fill="#F8FBF8" cx="342.5" cy="405.5" r="11.5"/><path d="M223.5,449 L248,449 L248,449 L248,462 L223.5,462 C219.910149,462 217,459.089851 217,455.5 C217,451.910149 219.910149,449 223.5,449 Z" id="Rectangle" fill="#F8FBF8"/></g></g><g id="Head" transform="translate(204.000000, 198.000000) scale(1 1)"><g id="Head/Short Slick" stroke="none" stroke-width="1" fill="none" fill-rule="evenodd"><g id="Group-183" transform="translate(95.000000, 78.000000)"><g id="Group-62" transform="translate(0.000000, 0.738000)"><path d="M57.5267,44.234 C56.6657,41.283 50.6257,39.08 47.5357,38.13 C46.2107,32.49 44.7797,27.428 43.4827,25.001 C40.7777,19.943 32.5307,14.629 19.3417,16.67 C10.5847,18.025 1.2587,26.194 7.3167,40.415 C7.3167,40.415 9.0487,43.862 8.2197,49.546 C8.1277,50.172 7.9977,51.047 7.8417,52.088 L7.8407,52.096 C7.5777,53.856 7.2367,56.113 6.8637,58.577 C6.8537,58.639 6.8447,58.7 6.8357,58.763 L6.8307,58.797 L6.8297,58.797 C6.7927,59.043 6.7557,59.293 6.7167,59.542 C6.4877,62.131 7.1937,70.607 26.2717,70.704 L39.2577,71.229 L39.4557,71.237 C39.4557,71.237 43.8067,71.189 46.4407,71.189 C51.9147,71.189 52.8547,65.97 52.2407,62.107 C51.9807,60.477 51.3877,56.696 50.0897,50.176 C53.6197,48.64 58.3127,46.927 57.5267,44.234" id="Fill-58" fill="#ef9e89"/><path d="M3.8353,23.2077 C3.8353,23.2077 0.5253,31.5227 0.8293,42.2757 L0.8043,42.2637 L0.8533,42.9437 C0.8913,43.8447 0.9573,44.7617 1.0503,45.6897 L2.2303,62.1197 C2.2303,62.1197 2.4493,66.5497 5.6143,66.8147 C8.7793,67.0817 11.2593,66.8147 11.2593,66.8147 C11.2593,66.8147 14.2053,66.6507 16.0223,62.9137 C17.8393,59.1767 19.6163,56.7467 20.3493,51.9917 C20.4383,51.5307 20.5213,51.0547 20.5953,50.5617 C20.7943,49.2537 19.6903,48.9517 18.7183,48.8857 C17.7463,48.8177 14.8973,47.5447 15.0313,43.8567 C15.1653,40.1697 17.4923,38.5267 20.6193,38.3257 C20.6193,38.3257 27.3983,38.6707 27.0423,29.7587 C27.0423,29.7587 56.5643,28.7557 59.6803,18.6277 C68.1483,-8.8903 12.8153,-3.9633 3.8353,23.2077" id="Fill-60" fill="#860a0c"/></g></g></g></g><g id="Expression" transform="translate(315.000000, 299.000000) scale(1 1)"><g id="Expression/Smile" stroke="none" stroke-width="1" fill="none" fill-rule="evenodd"><g id="Expression" transform="translate(14.000000, 12.000000)" fill="#000"><path d="M8.5371,3.6102 C8.8431,6.5462 13.2671,6.1902 13.3041,3.3662 C13.3451,0.1732 8.1761,0.1392 8.5371,3.6102" id="Fill-95"/><path d="M3.8824,24.6669 C10.1784,28.8049 17.2924,27.1859 17.6314,27.1049 C18.4374,26.9129 18.9354,26.1039 18.7434,25.2989 C18.5514,24.4919 17.7444,23.9949 16.9394,24.1859 C16.8054,24.2169 9.0204,25.9289 3.5054,20.5259 C2.9134,19.9499 1.9634,19.9569 1.3834,20.5479 C0.8044,21.1409 0.8144,22.0899 1.4064,22.6699 C2.2044,23.4509 3.0364,24.1109 3.8824,24.6669" id="Fill-97"/></g></g></g><g id="Facial Hair" transform="translate(311.300000, 303.950000) scale(1 1)" fill="#000"><g id="Facial Hair/Stubble" stroke="none" stroke-width="1" fill="none" fill-rule="evenodd"><g id="Group-88" transform="translate(10.000000, 30.000000)" fill="#860a0c"><g id="Group-36" transform="translate(0.000000, 0.609100)"><path d="M5.32,1.6297 C5.224,1.2817 4.955,0.9047 4.631,0.7337 C4.282,0.5497 3.861,0.4567 3.475,0.5817 C3.107,0.7007 2.772,0.9257 2.578,1.2717 C2.114,2.1017 1.65,2.9317 1.186,3.7617 C0.993,4.1057 0.929,4.5347 1.034,4.9167 C1.13,5.2657 1.399,5.6427 1.724,5.8137 C2.072,5.9977 2.494,6.0897 2.88,5.9647 C3.248,5.8457 3.583,5.6207 3.776,5.2757 C4.24,4.4457 4.705,3.6157 5.169,2.7857 C5.361,2.4417 5.425,2.0127 5.32,1.6297" id="Fill-20"/><path d="M11.1672,5.2743 C10.9852,4.9623 10.6282,4.6663 10.2712,4.5853 C9.8872,4.4973 9.4562,4.5163 9.1152,4.7363 C8.7862,4.9483 8.5302,5.2483 8.4252,5.6323 C8.1932,6.4843 7.9612,7.3373 7.7292,8.1883 C7.6262,8.5643 7.6832,9.0073 7.8802,9.3443 C8.0622,9.6553 8.4182,9.9523 8.7762,10.0343 C9.1602,10.1213 9.5912,10.1023 9.9322,9.8813 C10.2602,9.6703 10.5172,9.3703 10.6212,8.9863 C10.8542,8.1333 11.0862,7.2823 11.3182,6.4293 C11.4212,6.0533 11.3642,5.6113 11.1672,5.2743" id="Fill-22"/><path d="M19.0901,10.9686 C19.0801,10.5776 18.9301,10.1876 18.6511,9.9076 C18.5151,9.7616 18.3541,9.6576 18.1681,9.5976 C17.9891,9.5036 17.7971,9.4606 17.5901,9.4686 C17.2021,9.4866 16.8001,9.6136 16.5291,9.9076 C16.2641,10.1976 16.0791,10.5666 16.0901,10.9686 C16.1091,11.6706 16.1271,12.3726 16.1451,13.0746 C16.1551,13.4656 16.3061,13.8566 16.5851,14.1356 C16.7201,14.2816 16.8821,14.3856 17.0681,14.4466 C17.2461,14.5396 17.4391,14.5826 17.6451,14.5746 C18.0331,14.5576 18.4361,14.4306 18.7061,14.1356 C18.9711,13.8466 19.1561,13.4776 19.1451,13.0746 C19.1271,12.3726 19.1091,11.6706 19.0901,10.9686" id="Fill-24"/><path d="M26.2043,13.3348 C25.9733,12.7758 25.7433,12.2188 25.5123,11.6598 C25.4663,11.4658 25.3763,11.2948 25.2443,11.1498 C25.1383,10.9868 24.9973,10.8578 24.8233,10.7648 C24.6513,10.6538 24.4653,10.5948 24.2653,10.5858 C24.0663,10.5418 23.8663,10.5498 23.6673,10.6118 C23.3043,10.7308 22.9543,10.9548 22.7703,11.3018 L22.6193,11.6598 C22.5483,11.9268 22.5483,12.1918 22.6193,12.4578 C22.8503,13.0168 23.0803,13.5738 23.3113,14.1328 C23.3573,14.3278 23.4473,14.4978 23.5793,14.6428 C23.6853,14.8058 23.8263,14.9348 24.0003,15.0288 C24.1733,15.1388 24.3583,15.1978 24.5583,15.2068 C24.7573,15.2518 24.9573,15.2428 25.1563,15.1808 C25.5193,15.0628 25.8693,14.8378 26.0533,14.4908 C26.1033,14.3718 26.1533,14.2518 26.2043,14.1328 C26.2753,13.8668 26.2753,13.6008 26.2043,13.3348" id="Fill-26"/><path d="M31.0661,10.1327 C30.4821,9.5537 29.8971,8.9737 29.3121,8.3947 C29.0381,8.1227 28.6381,7.9547 28.2521,7.9547 C28.0451,7.9467 27.8531,7.9897 27.6741,8.0837 C27.4881,8.1447 27.3271,8.2477 27.1911,8.3947 C26.9291,8.6807 26.7331,9.0557 26.7521,9.4547 C26.7701,9.8527 26.9031,10.2307 27.1911,10.5157 C27.7751,11.0947 28.3601,11.6747 28.9451,12.2537 C29.2191,12.5257 29.6191,12.6937 30.0051,12.6937 C30.2121,12.7007 30.4041,12.6577 30.5831,12.5647 C30.7691,12.5037 30.9301,12.4007 31.0661,12.2537 C31.3281,11.9677 31.5241,11.5927 31.5051,11.1937 C31.4871,10.7957 31.3541,10.4177 31.0661,10.1327" id="Fill-28"/><path d="M14.4529,11.6678 C14.4439,11.4688 14.3849,11.2818 14.2749,11.1098 C14.1809,10.9358 14.0519,10.7958 13.8889,10.6888 C13.7439,10.5568 13.5739,10.4678 13.3789,10.4208 C13.2449,10.4028 13.1129,10.3858 12.9799,10.3668 C12.7089,10.3678 12.4559,10.4368 12.2229,10.5718 C11.8919,10.7858 11.6439,11.0838 11.5339,11.4688 C11.3699,12.0368 11.2069,12.6048 11.0439,13.1738 C10.9809,13.3728 10.9719,13.5718 11.0169,13.7718 C11.0259,13.9718 11.0849,14.1568 11.1949,14.3288 C11.2889,14.5038 11.4179,14.6448 11.5809,14.7498 C11.7259,14.8828 11.8959,14.9728 12.0909,15.0188 C12.2239,15.0358 12.3569,15.0548 12.4899,15.0718 C12.7609,15.0708 13.0129,15.0028 13.2469,14.8668 C13.5779,14.6538 13.8259,14.3558 13.9359,13.9708 C14.0999,13.4028 14.2629,12.8348 14.4259,12.2668 C14.4889,12.0668 14.4969,11.8668 14.4529,11.6678" id="Fill-30"/><path d="M6.0075,11.286 C5.9615,11.091 5.8715,10.921 5.7395,10.776 C5.6335,10.612 5.4935,10.484 5.3185,10.39 C4.9705,10.206 4.5485,10.114 4.1625,10.238 C3.7955,10.357 3.4585,10.582 3.2655,10.928 C2.9685,11.463 2.6725,11.998 2.3755,12.533 C2.2655,12.705 2.2065,12.89 2.1965,13.091 C2.1525,13.29 2.1615,13.489 2.2235,13.688 C2.2705,13.884 2.3595,14.054 2.4925,14.198 C2.5975,14.362 2.7385,14.491 2.9135,14.585 C3.2615,14.768 3.6825,14.861 4.0695,14.736 C4.4365,14.617 4.7735,14.392 4.9655,14.047 L5.8565,12.442 C5.9655,12.269 6.0255,12.084 6.0345,11.885 C6.0795,11.684 6.0695,11.485 6.0075,11.286" id="Fill-32"/></g></g></g></g><g id="Accesories" transform="translate(311.300000, 303.950000) scale(1 1)" fill="#000"><g id="Accesories/None" stroke="none" stroke-width="1" fill="none" fill-rule="evenodd" fill-opacity="0"/></g></g></svg>